<?xml version="1.0" encoding="utf-8"?>
<!-- Generator: Adobe Illustrator 19.0.0, SVG Export Plug-In . SVG Version: 6.00 Build 0)  -->
<svg version="1.1" id="Layer_1" xmlns="http://www.w3.org/2000/svg" xmlns:xlink="http://www.w3.org/1999/xlink" x="0px" y="0px"
	 viewBox="0 0 3600 624" style="enable-background:new 0 0 3600 624;" xml:space="preserve">
<style type="text/css">
	.st0{fill:#FFFFFF;}
</style>
<g id="XMLID_1_">
	<path id="XMLID_3_" class="st0" d="M83.6,451.5c1.2,12.2,7.1,22.3,17.8,30.2c7.1,5.6,13.8,8.4,20.1,8.4v4.1H22.2v-4.1
		c9.5,0,20.2-5.8,32-17.5c11-10.8,20.1-24.1,27.2-39.9L83.6,451.5z M168,221.3l32.5-79.8h4.1l117.4,287.3
		c7.5,17.4,16.3,32,26.4,43.7c10,11.7,18.8,17.5,26.4,17.5v4.1H231.5v-4.1c9.5,0,16.4-6.9,20.8-20.8c1.9-5.8,2.8-11.8,2.8-18
		c0-9.1-1.9-19.1-5.8-29.7l-14.7-36.1l-1.8-4.1h0.3l-63.3-154.7L168,221.3z"/>
	<path id="XMLID_6_" class="st0" d="M494.9,428.6c0,17.3,3.3,31.8,9.9,43.7c6.8,11.9,14.8,17.8,24.1,17.8v4.1H395.1v-4.1
		c9.5,0,17.6-5.9,24.4-17.8c6.6-11.9,9.9-26.4,9.9-43.7V206.8c0-17.3-3.3-31.8-9.9-43.7c-6.8-11.7-14.9-17.5-24.4-17.5v-4.1h125.5
		c-5.9,2.7-11.2,8.3-15.7,16.8c-6.6,12.5-9.9,27.9-9.9,46.2V428.6z M578,141.5h19.6c18.1,0,35.3,3.8,51.6,11.4
		c16.6,7.8,30.1,19,40.4,33.5c10.3,14.4,15.5,31.9,15.5,52.6c0,28.5-8.4,51.7-25.1,69.9c-16.8,18.1-39.1,28.9-67.1,32.3
		c21.2,4.6,37.3,12.3,48.5,23.1c11.2,10.8,19.2,23.1,24.1,36.8c4.9,13.7,8.6,27.1,11.2,40.1c1.9,9.1,4,17.4,6.4,24.6
		c2.2,7.3,5.3,13.1,9.4,17.5c3.9,4.4,9.4,6.6,16.5,6.6v4.1H676c-14.2,0-25.4-2.6-33.5-7.9c-8.3-5.2-14.5-12.2-18.5-20.8
		c-4.2-8.6-7.1-18.2-8.6-28.7c-1.7-10.5-3-20.9-3.8-31.2c-0.7-11.3-1.9-21.8-3.8-31.5c-1.7-9.5-4.8-17.2-9.4-23.1
		c-3.6-4.6-8.5-7.4-14.7-8.4c15.1-1.9,26.8-8,35.1-18.3c10-12.4,15-31.8,15-58.2c0-30.8-4.8-58.1-14.5-81.8
		C609.5,160.5,595.7,146.3,578,141.5z"/>
	<path id="XMLID_9_" class="st0" d="M936.9,499.2c-20.7,5.1-42,14-64,26.7c20.2-7.3,38.9-10.9,56.4-10.9c22.4,0,41.2,1.4,56.4,4.3
		c15.1,2.9,28.9,6.1,41.4,9.7c11,3,22.2,5.7,33.5,7.9c11.3,2.4,24.4,3.6,39.1,3.6c11,0,20.4-1.5,28.2-4.6
		c7.8-2.9,14.2-6.3,19.3-10.2c4.9-3.9,8.5-7.2,10.9-9.9l3.6-4.3l3.8,1.5l-0.8,7.9c-0.3,5.2-1.5,11.9-3.6,19.8
		c-2,7.8-5.3,15.6-9.9,23.4c-4.7,7.8-11.3,14.3-19.6,19.6c-8.3,5.4-19,8.1-32,8.1c-14.4-0.5-29-3-43.7-7.6
		c-14.7-4.6-29.6-9.8-44.7-15.8c-15.9-6.4-32.2-12.2-48.8-17.3c-16.4-5.1-33.4-8-51.1-8.9c-22.4,0-39.9,1-52.6,3
		c-12.7,2-21.7,4.1-26.9,6.1l-7.9,3h-0.3v0.3l-1.5-3.8l18.5-11.7c11.9-8,24.5-15.6,37.9-22.9c13.2-7.5,27.2-13.5,41.9-18
		c-53.9-3.2-95.9-21.9-126-56.1c-30.3-34.2-45.5-75.5-45.5-124c0-33.4,7.3-63.7,21.8-90.9c14.6-27.3,35.3-49,62.2-65.3
		c14.7-8.6,30.9-15,48.5-19.1c-4.6,1.9-9.1,4.1-13.5,6.6c-15.4,9.3-27.8,23.9-37.1,43.7c-9.3,19.8-14,45.9-14,78.2
		c0,18.5,1.2,38.1,3.6,58.9c2.4,20.7,6.4,40.9,11.9,60.7c5.4,20,12.7,38.1,21.8,54.4s20.5,29.3,34,39.1
		C902.4,494.3,918.4,499.2,936.9,499.2z M939.7,138c33,1.4,61.8,9.3,86.4,23.9c26.9,16.3,47.7,38,62.2,65.3
		c14.4,27.3,21.6,57.6,21.6,90.9c0,47.9-14.8,88.9-44.5,122.9c-24.2,27.6-55.9,45.3-95,53.1c45.9-14.1,68.8-58.8,68.8-134.1
		c0-17.1-1.1-35.7-3.3-55.9c-2.2-20.2-6-40.1-11.4-60c-5.4-19.6-12.7-37.7-21.8-54.1c-9.3-16.3-20.8-29.4-34.5-39.4
		C959.8,144.6,950.4,140.4,939.7,138z"/>
	<path id="XMLID_12_" class="st0" d="M1378.4,476.9c-18.8,14.2-42.6,21.3-71.4,21.3c-31.2,0-57.4-4.8-78.7-14.5
		c-21.2-9.7-37.1-25.1-47.8-46.5c-10.8-21.2-16.3-49.1-16.3-83.8V206.8c0-17.3-3.3-31.8-9.9-43.7c-6.8-11.7-14.9-17.5-24.4-17.5
		v-4.1h134.1v4.1c-9.3,0-17.4,5.8-24.1,17.5c-6.8,11.9-10.2,26.4-10.2,43.7v146.6c0,28.6,3.2,53.1,9.7,73.4
		c6.3,20.3,16.3,36.7,30.2,49c14.1,12.5,32.3,18.8,54.9,18.8C1343.7,494.6,1361.6,488.7,1378.4,476.9z M1425.1,202.3
		c-1.9-15.2-5.8-28.3-11.9-39.1c-6.6-11.7-14.7-17.5-24.1-17.5v-4.1h72.4v4.1c-9.3,0-17.4,5.8-24.1,17.5
		C1431.1,174,1427,187,1425.1,202.3z"/>
	<path id="XMLID_15_" class="st0" d="M1615.7,494.1h-133.9v-4.1c9.5,0,17.5-5.9,24.1-17.8c6.8-11.9,10.2-26.4,10.2-43.7V206.8
		c0-17.3-3.4-31.8-10.2-43.7c-6.6-11.7-14.6-17.5-24.1-17.5v-4.1h133.9v4.1c-9.3,0-17.4,5.8-24.1,17.5c-6.6,11.9-9.9,26.4-9.9,43.7
		v221.8c0,17.3,3.3,31.8,9.9,43.7c6.8,11.9,14.8,17.8,24.1,17.8V494.1z"/>
	<path id="XMLID_17_" class="st0" d="M1766.6,494.1H1636v-4.1c9.5,0,17.6-5.9,24.4-17.8c6.6-11.9,9.9-26.4,9.9-43.7V206.8
		c0-17.3-3.3-31.8-9.9-43.7c-6.8-11.7-14.9-17.5-24.4-17.5v-4.1h130.6c-7.8,1.2-14.7,7.1-20.6,17.8c-6.8,12-10.2,26.9-10.2,44.7
		v227.4c0,17.4,3.4,32.3,10.2,44.7C1751.9,486.8,1758.8,492.8,1766.6,494.1z M1805.9,141.5h2.3c37.4,0,69.6,7.7,96.5,23.1
		c26.9,15.4,47.7,36.5,62.2,63.3c14.4,26.6,21.6,56.6,21.6,89.9c0,33.2-7.2,63.1-21.6,89.7c-14.6,26.6-35.3,47.7-62.2,63.3
		c-17.3,10-36.6,16.8-57.9,20.3c48.1-12.2,72.1-56,72.1-131.3c0-16.8-1.1-35.1-3.3-54.9c-2.2-19.8-6-39.4-11.4-58.7
		c-5.4-19.1-12.7-36.6-21.8-52.3c-9.3-15.8-20.8-28.5-34.5-38.1C1836,147.3,1822,142.6,1805.9,141.5z"/>
	<path id="XMLID_20_" class="st0" d="M2108.7,428.6c0,17.3,3.3,31.8,9.9,43.7c6.8,11.9,14.8,17.8,24.1,17.8v4.1h-133.9v-4.1
		c9.5,0,17.6-5.9,24.4-17.8c6.6-11.9,9.9-26.4,9.9-43.7V206.8c0-17.3-3.3-31.8-9.9-43.7c-6.8-11.7-14.9-17.5-24.4-17.5v-4.1h125.5
		c-5.9,2.7-11.2,8.3-15.8,16.8c-6.6,12.5-9.9,27.9-9.9,46.2V428.6z M2191.8,141.5h19.6c18.1,0,35.3,3.8,51.6,11.4
		c16.6,7.8,30.1,19,40.4,33.5c10.3,14.4,15.5,31.9,15.5,52.6c0,28.5-8.4,51.7-25.1,69.9c-16.8,18.1-39.1,28.9-67.1,32.3
		c21.2,4.6,37.3,12.3,48.5,23.1c11.2,10.8,19.2,23.1,24.1,36.8c4.9,13.7,8.6,27.1,11.2,40.1c1.9,9.1,4,17.4,6.4,24.6
		c2.2,7.3,5.3,13.1,9.4,17.5c3.9,4.4,9.4,6.6,16.5,6.6v4.1h-52.8c-14.2,0-25.4-2.6-33.5-7.9c-8.3-5.2-14.5-12.2-18.5-20.8
		c-4.2-8.6-7.1-18.2-8.6-28.7c-1.7-10.5-3-20.9-3.8-31.2c-0.7-11.3-1.9-21.8-3.8-31.5c-1.7-9.5-4.8-17.2-9.4-23.1
		c-3.6-4.6-8.5-7.4-14.7-8.4c15.1-1.9,26.8-8,35.1-18.3c10-12.4,15-31.8,15-58.2c0-30.8-4.8-58.1-14.5-81.8
		C2223.3,160.5,2209.6,146.3,2191.8,141.5z"/>
	<path id="XMLID_23_" class="st0" d="M2533.5,497.9c-33-1.4-61.8-9.4-86.4-24.1c-26.9-16.3-47.7-38-62.2-65.3
		c-14.6-27.3-21.8-57.5-21.8-90.7c0-33.4,7.3-63.6,21.8-90.7c14.6-27.3,35.3-49,62.2-65.3c15.8-9.5,33.2-16.2,52.3-20.1
		c-5.6,2-11,4.6-16.3,7.6c-15.4,9.3-27.8,24-37.1,43.9c-9.3,20.2-14,46.2-14,78.2c0,18.3,1.2,37.9,3.6,58.7
		c2.4,20.8,6.4,41.2,11.9,61c5.4,20,12.7,38.1,21.8,54.4c9.1,16.4,20.5,29.6,34,39.4C2512.5,491.4,2522.5,495.7,2533.5,497.9z
		 M2553.3,137.7c33.2,1.4,62,9.4,86.4,24.1c26.9,16.3,47.7,38,62.2,65.3c14.6,27.1,21.8,57.3,21.8,90.7c0,33.2-7.3,63.4-21.8,90.7
		c-14.6,27.3-35.3,49-62.2,65.3c-15.1,9.1-31.8,15.7-50,19.6c43-15.6,64.5-60,64.5-133.4c0-17.1-1.1-35.7-3.3-55.9
		c-2.2-20.2-6-40.1-11.4-60c-5.4-19.6-12.7-37.7-21.8-54.1c-9.3-16.3-20.8-29.4-34.5-39.4C2574.4,144.3,2564.5,139.9,2553.3,137.7z"
		/>
	<path id="XMLID_26_" class="st0" d="M2962.8,419.5l-34.8,74.7h-4.1l-154.2-328.2c-6.9-13.5-15.5-20.3-25.7-20.3v-4.1h88.1
		l128.5,273.3L2962.8,419.5z M2780.9,435.2c1.9,14.4,5.8,26.8,11.7,37.1c6.8,11.9,14.8,17.8,24.1,17.8v4.1H2744v-4.1
		c9.5,0,17.6-5.9,24.4-17.8c6.6-11.9,10.8-23.4,12.4-34.5V435.2z M3069.5,182.2l19.1-40.6h80.8v4.1c-9.3,0-17.4,5.9-24.1,17.8
		c-6.8,11.9-10.2,26.4-10.2,43.7v221.5c0,17.3,3.4,31.8,10.2,43.7c6.8,11.9,14.8,17.8,24.1,17.8v4.1h-134.1v-4.1
		c9.5,0,17.6-5.9,24.4-17.8c6.6-11.9,9.9-26.4,9.9-43.7V182.2z"/>
	<path id="XMLID_30_" class="st0" d="M3360.1,497.9c-33-1.4-61.8-9.4-86.4-24.1c-26.9-16.3-47.7-38-62.2-65.3
		c-14.6-27.3-21.8-57.5-21.8-90.7c0-33.4,7.3-63.6,21.8-90.7c14.6-27.3,35.3-49,62.2-65.3c15.8-9.5,33.2-16.2,52.3-20.1
		c-5.6,2-11,4.6-16.3,7.6c-15.4,9.3-27.8,24-37.1,43.9c-9.3,20.2-14,46.2-14,78.2c0,18.3,1.2,37.9,3.6,58.7
		c2.4,20.8,6.4,41.2,11.9,61c5.4,20,12.7,38.1,21.8,54.4c9.1,16.4,20.5,29.6,34,39.4C3339.1,491.4,3349.1,495.7,3360.1,497.9z
		 M3379.9,137.7c33.2,1.4,62,9.4,86.4,24.1c26.9,16.3,47.7,38,62.2,65.3c14.6,27.1,21.8,57.3,21.8,90.7c0,33.2-7.3,63.4-21.8,90.7
		c-14.6,27.3-35.3,49-62.2,65.3c-15.1,9.1-31.8,15.7-50,19.6c43-15.6,64.5-60,64.5-133.4c0-17.1-1.1-35.7-3.3-55.9
		c-2.2-20.2-6-40.1-11.4-60c-5.4-19.6-12.7-37.7-21.8-54.1c-9.3-16.3-20.8-29.4-34.5-39.4C3401,144.3,3391.1,139.9,3379.9,137.7z"/>
</g>
</svg>
