<?xml version="1.0" encoding="utf-8"?>
<!-- Generator: Adobe Illustrator 19.0.0, SVG Export Plug-In . SVG Version: 6.00 Build 0)  -->
<svg version="1.1" xmlns="http://www.w3.org/2000/svg" xmlns:xlink="http://www.w3.org/1999/xlink" x="0px" y="0px"
	 viewBox="0 0 200 200" style="enable-background:new 0 0 200 200;" xml:space="preserve">
<style type="text/css">
	.st0{fill:#FFFFFF;}
</style>
<g id="Layer_2">
</g>
<g id="Layer_1">
	<g id="XMLID_1_">
		<path id="XMLID_6_" class="st0" d="M29.2,78.2c0.1,1.2,0.7,2.1,1.7,2.9c0.7,0.5,1.3,0.8,1.9,0.8v0.4h-9.5v-0.4
			c0.9,0,1.9-0.6,3.1-1.7c1.1-1,1.9-2.3,2.6-3.8L29.2,78.2z M37.2,56.2l3.1-7.6h0.4L51.9,76c0.7,1.7,1.6,3.1,2.5,4.2
			c1,1.1,1.8,1.7,2.5,1.7v0.4H43.3v-0.4c0.9,0,1.6-0.7,2-2c0.2-0.5,0.3-1.1,0.3-1.7c0-0.9-0.2-1.8-0.6-2.8l-1.4-3.4l-0.2-0.4h0
			l-6-14.8L37.2,56.2z"/>
		<path id="XMLID_9_" class="st0" d="M68.4,76c0,1.6,0.3,3,0.9,4.2c0.6,1.1,1.4,1.7,2.3,1.7v0.4H58.9v-0.4c0.9,0,1.7-0.6,2.3-1.7
			c0.6-1.1,0.9-2.5,0.9-4.2V54.8c0-1.6-0.3-3-0.9-4.2c-0.6-1.1-1.4-1.7-2.3-1.7v-0.4h12c-0.6,0.3-1.1,0.8-1.5,1.6
			c-0.6,1.2-0.9,2.7-0.9,4.4V76z M76.3,48.6h1.9c1.7,0,3.4,0.4,4.9,1.1c1.6,0.7,2.9,1.8,3.9,3.2c1,1.4,1.5,3,1.5,5
			c0,2.7-0.8,4.9-2.4,6.7c-1.6,1.7-3.7,2.8-6.4,3.1c2,0.4,3.6,1.2,4.6,2.2c1.1,1,1.8,2.2,2.3,3.5c0.5,1.3,0.8,2.6,1.1,3.8
			c0.2,0.9,0.4,1.7,0.6,2.4c0.2,0.7,0.5,1.3,0.9,1.7c0.4,0.4,0.9,0.6,1.6,0.6v0.4h-5c-1.4,0-2.4-0.3-3.2-0.8c-0.8-0.5-1.4-1.2-1.8-2
			c-0.4-0.8-0.7-1.7-0.8-2.7c-0.2-1-0.3-2-0.4-3c-0.1-1.1-0.2-2.1-0.4-3c-0.2-0.9-0.5-1.6-0.9-2.2c-0.3-0.4-0.8-0.7-1.4-0.8
			c1.4-0.2,2.6-0.8,3.3-1.7c1-1.2,1.4-3,1.4-5.6c0-2.9-0.5-5.5-1.4-7.8C79.3,50.4,78,49.1,76.3,48.6z"/>
		<path id="XMLID_12_" class="st0" d="M110.6,82.7c-2,0.5-4,1.3-6.1,2.5c1.9-0.7,3.7-1,5.4-1c2.1,0,3.9,0.1,5.4,0.4
			c1.4,0.3,2.8,0.6,4,0.9c1.1,0.3,2.1,0.5,3.2,0.8c1.1,0.2,2.3,0.3,3.7,0.3c1.1,0,1.9-0.1,2.7-0.4c0.7-0.3,1.4-0.6,1.8-1
			c0.5-0.4,0.8-0.7,1-0.9l0.3-0.4l0.4,0.1l-0.1,0.8c0,0.5-0.1,1.1-0.3,1.9c-0.2,0.7-0.5,1.5-0.9,2.2c-0.5,0.7-1.1,1.4-1.9,1.9
			c-0.8,0.5-1.8,0.8-3.1,0.8c-1.4,0-2.8-0.3-4.2-0.7s-2.8-0.9-4.3-1.5c-1.5-0.6-3.1-1.2-4.7-1.6c-1.6-0.5-3.2-0.8-4.9-0.8
			c-2.1,0-3.8,0.1-5,0.3c-1.2,0.2-2.1,0.4-2.6,0.6L99.8,88h0v0l-0.1-0.4l1.8-1.1c1.1-0.8,2.3-1.5,3.6-2.2c1.3-0.7,2.6-1.3,4-1.7
			c-5.1-0.3-9.1-2.1-12-5.4c-2.9-3.3-4.3-7.2-4.3-11.8c0-3.2,0.7-6.1,2.1-8.7c1.4-2.6,3.4-4.7,5.9-6.2c1.4-0.8,2.9-1.4,4.6-1.8
			c-0.4,0.2-0.9,0.4-1.3,0.6c-1.5,0.9-2.6,2.3-3.5,4.2c-0.9,1.9-1.3,4.4-1.3,7.5c0,1.8,0.1,3.6,0.3,5.6c0.2,2,0.6,3.9,1.1,5.8
			c0.5,1.9,1.2,3.6,2.1,5.2c0.9,1.6,2,2.8,3.2,3.7C107.3,82.3,108.8,82.7,110.6,82.7z M110.9,48.3c3.2,0.1,5.9,0.9,8.2,2.3
			c2.6,1.6,4.5,3.6,5.9,6.2c1.4,2.6,2.1,5.5,2.1,8.7c0,4.6-1.4,8.5-4.2,11.7c-2.3,2.6-5.3,4.3-9.1,5.1c4.4-1.3,6.6-5.6,6.6-12.8
			c0-1.6-0.1-3.4-0.3-5.3c-0.2-1.9-0.6-3.8-1.1-5.7c-0.5-1.9-1.2-3.6-2.1-5.2c-0.9-1.6-2-2.8-3.3-3.8
			C112.8,48.9,111.9,48.5,110.9,48.3z"/>
		<path id="XMLID_15_" class="st0" d="M152.7,80.6c-1.8,1.4-4.1,2-6.8,2c-3,0-5.5-0.5-7.5-1.4c-2-0.9-3.5-2.4-4.6-4.4
			c-1-2-1.6-4.7-1.6-8v-14c0-1.6-0.3-3-0.9-4.2c-0.6-1.1-1.4-1.7-2.3-1.7v-0.4h12.8V49c-0.9,0-1.7,0.6-2.3,1.7c-0.6,1.1-1,2.5-1,4.2
			v14c0,2.7,0.3,5.1,0.9,7c0.6,1.9,1.6,3.5,2.9,4.7c1.3,1.2,3.1,1.8,5.2,1.8C149.4,82.3,151.1,81.7,152.7,80.6z M157.2,54.4
			c-0.2-1.5-0.6-2.7-1.1-3.7c-0.6-1.1-1.4-1.7-2.3-1.7v-0.4h6.9V49c-0.9,0-1.7,0.6-2.3,1.7C157.7,51.7,157.4,53,157.2,54.4z"/>
		<path id="XMLID_18_" class="st0" d="M175.4,82.3h-12.8v-0.4c0.9,0,1.7-0.6,2.3-1.7c0.6-1.1,1-2.5,1-4.2V54.8c0-1.6-0.3-3-1-4.2
			c-0.6-1.1-1.4-1.7-2.3-1.7v-0.4h12.8V49c-0.9,0-1.7,0.6-2.3,1.7c-0.6,1.1-0.9,2.5-0.9,4.2V76c0,1.6,0.3,3,0.9,4.2
			c0.6,1.1,1.4,1.7,2.3,1.7V82.3z"/>
		<path id="XMLID_20_" class="st0" d="M20.5,141.8H8v-0.4c0.9,0,1.7-0.6,2.3-1.7c0.6-1.1,0.9-2.5,0.9-4.2v-21.2c0-1.6-0.3-3-0.9-4.2
			c-0.6-1.1-1.4-1.7-2.3-1.7v-0.4h12.5c-0.7,0.1-1.4,0.7-2,1.7c-0.6,1.1-1,2.6-1,4.3v21.7c0,1.7,0.3,3.1,1,4.3
			C19.1,141.1,19.7,141.7,20.5,141.8z M24.2,108.2h0.2c3.6,0,6.6,0.7,9.2,2.2s4.5,3.5,5.9,6c1.4,2.5,2.1,5.4,2.1,8.6
			c0,3.2-0.7,6-2.1,8.6c-1.4,2.5-3.4,4.5-5.9,6c-1.6,1-3.5,1.6-5.5,1.9c4.6-1.2,6.9-5.3,6.9-12.5c0-1.6-0.1-3.3-0.3-5.2
			c-0.2-1.9-0.6-3.8-1.1-5.6c-0.5-1.8-1.2-3.5-2.1-5c-0.9-1.5-2-2.7-3.3-3.6C27.1,108.7,25.7,108.3,24.2,108.2z"/>
		<path id="XMLID_23_" class="st0" d="M53.1,135.6c0,1.6,0.3,3,0.9,4.2c0.6,1.1,1.4,1.7,2.3,1.7v0.4H43.6v-0.4
			c0.9,0,1.7-0.6,2.3-1.7c0.6-1.1,0.9-2.5,0.9-4.2v-21.2c0-1.6-0.3-3-0.9-4.2c-0.6-1.1-1.4-1.7-2.3-1.7v-0.4h12
			c-0.6,0.3-1.1,0.8-1.5,1.6c-0.6,1.2-0.9,2.7-0.9,4.4V135.6z M61,108.2h1.9c1.7,0,3.4,0.4,4.9,1.1c1.6,0.7,2.9,1.8,3.9,3.2
			c1,1.4,1.5,3,1.5,5c0,2.7-0.8,4.9-2.4,6.7c-1.6,1.7-3.7,2.8-6.4,3.1c2,0.4,3.6,1.2,4.6,2.2c1.1,1,1.8,2.2,2.3,3.5
			c0.5,1.3,0.8,2.6,1.1,3.8c0.2,0.9,0.4,1.7,0.6,2.4c0.2,0.7,0.5,1.3,0.9,1.7c0.4,0.4,0.9,0.6,1.6,0.6v0.4h-5
			c-1.4,0-2.4-0.3-3.2-0.8c-0.8-0.5-1.4-1.2-1.8-2c-0.4-0.8-0.7-1.7-0.8-2.7c-0.2-1-0.3-2-0.4-3c-0.1-1.1-0.2-2.1-0.4-3
			c-0.2-0.9-0.5-1.6-0.9-2.2c-0.3-0.4-0.8-0.7-1.4-0.8c1.4-0.2,2.6-0.8,3.3-1.7c1-1.2,1.4-3,1.4-5.6c0-2.9-0.5-5.5-1.4-7.8
			C64,110,62.7,108.6,61,108.2z"/>
		<path id="XMLID_26_" class="st0" d="M93.6,142.2c-3.2-0.1-5.9-0.9-8.2-2.3c-2.6-1.6-4.5-3.6-5.9-6.2c-1.4-2.6-2.1-5.5-2.1-8.7
			c0-3.2,0.7-6.1,2.1-8.7c1.4-2.6,3.4-4.7,5.9-6.2c1.5-0.9,3.2-1.5,5-1.9c-0.5,0.2-1.1,0.4-1.6,0.7c-1.5,0.9-2.7,2.3-3.5,4.2
			c-0.9,1.9-1.3,4.4-1.3,7.5c0,1.7,0.1,3.6,0.3,5.6c0.2,2,0.6,3.9,1.1,5.8c0.5,1.9,1.2,3.6,2.1,5.2c0.9,1.6,2,2.8,3.2,3.8
			C91.6,141.6,92.6,142,93.6,142.2z M95.5,107.8c3.2,0.1,5.9,0.9,8.2,2.3c2.6,1.6,4.5,3.6,5.9,6.2c1.4,2.6,2.1,5.5,2.1,8.7
			c0,3.2-0.7,6.1-2.1,8.7c-1.4,2.6-3.4,4.7-5.9,6.2c-1.4,0.9-3,1.5-4.8,1.9c4.1-1.5,6.2-5.7,6.2-12.7c0-1.6-0.1-3.4-0.3-5.3
			c-0.2-1.9-0.6-3.8-1.1-5.7c-0.5-1.9-1.2-3.6-2.1-5.2c-0.9-1.6-2-2.8-3.3-3.8C97.5,108.4,96.6,108,95.5,107.8z"/>
		<path id="XMLID_29_" class="st0" d="M134.6,134.7l-3.3,7.1h-0.4l-14.7-31.3c-0.7-1.3-1.5-1.9-2.4-1.9v-0.4h8.4l12.3,26.1
			L134.6,134.7z M117.2,136.2c0.2,1.4,0.5,2.6,1.1,3.5c0.6,1.1,1.4,1.7,2.3,1.7v0.4h-6.9v-0.4c0.9,0,1.7-0.6,2.3-1.7
			c0.6-1.1,1-2.2,1.2-3.3V136.2z M144.8,112.1l1.8-3.9h7.7v0.4c-0.9,0-1.7,0.6-2.3,1.7c-0.6,1.1-1,2.5-1,4.2v21.1c0,1.6,0.3,3,1,4.2
			c0.6,1.1,1.4,1.7,2.3,1.7v0.4h-12.8v-0.4c0.9,0,1.7-0.6,2.3-1.7c0.6-1.1,0.9-2.5,0.9-4.2V112.1z"/>
		<path id="XMLID_33_" class="st0" d="M172.5,142.2c-3.2-0.1-5.9-0.9-8.2-2.3c-2.6-1.6-4.5-3.6-5.9-6.2c-1.4-2.6-2.1-5.5-2.1-8.7
			c0-3.2,0.7-6.1,2.1-8.7c1.4-2.6,3.4-4.7,5.9-6.2c1.5-0.9,3.2-1.5,5-1.9c-0.5,0.2-1.1,0.4-1.6,0.7c-1.5,0.9-2.7,2.3-3.5,4.2
			c-0.9,1.9-1.3,4.4-1.3,7.5c0,1.7,0.1,3.6,0.3,5.6s0.6,3.9,1.1,5.8c0.5,1.9,1.2,3.6,2.1,5.2c0.9,1.6,2,2.8,3.2,3.8
			C170.5,141.6,171.5,142,172.5,142.2z M174.4,107.8c3.2,0.1,5.9,0.9,8.2,2.3c2.6,1.6,4.5,3.6,5.9,6.2c1.4,2.6,2.1,5.5,2.1,8.7
			c0,3.2-0.7,6.1-2.1,8.7c-1.4,2.6-3.4,4.7-5.9,6.2c-1.4,0.9-3,1.5-4.8,1.9c4.1-1.5,6.2-5.7,6.2-12.7c0-1.6-0.1-3.4-0.3-5.3
			c-0.2-1.9-0.6-3.8-1.1-5.7c-0.5-1.9-1.2-3.6-2.1-5.2c-0.9-1.6-2-2.8-3.3-3.8C176.4,108.4,175.5,108,174.4,107.8z"/>
	</g>
	<g id="XMLID_2_">
		<path id="XMLID_36_" class="st0" d="M32.4,162.4h-1.9v9h-0.5v-9h-1.9V162h1.9h0.5h1.9V162.4z"/>
		<path id="XMLID_38_" class="st0" d="M34.1,164.5c0.3,0,0.5,0,0.7,0.1c0.2,0.1,0.4,0.2,0.6,0.4c0.2,0.2,0.3,0.4,0.4,0.6
			c0.1,0.2,0.1,0.5,0.1,0.7v1.6v1.7v1.8h-0.5v-0.6c-0.2,0.2-0.4,0.4-0.6,0.5c-0.2,0.1-0.5,0.2-0.8,0.2c-0.3,0-0.5,0-0.7-0.1
			c-0.2-0.1-0.4-0.2-0.6-0.4s-0.3-0.4-0.4-0.6s-0.1-0.5-0.1-0.7v-0.4c0-0.6,0.4-1,1.1-1.3c0.1,0,0.2-0.1,0.4-0.2
			c0.2-0.1,0.4-0.2,0.6-0.2c0.2-0.1,0.5-0.2,0.7-0.3c0.2-0.1,0.4-0.1,0.5-0.2v-0.8c0-0.4-0.1-0.7-0.4-1c-0.2-0.3-0.6-0.4-0.9-0.4
			c-0.2,0-0.4,0-0.5,0.1c-0.2,0.1-0.3,0.2-0.4,0.3c-0.1,0.1-0.2,0.3-0.3,0.4s-0.1,0.4-0.1,0.6h-0.5c0-0.3,0-0.5,0.1-0.7
			c0.1-0.2,0.2-0.4,0.4-0.6s0.4-0.3,0.6-0.4C33.6,164.5,33.9,164.5,34.1,164.5z M35.4,168v-0.3c-0.1,0.1-0.3,0.1-0.5,0.2
			c-0.2,0.1-0.4,0.2-0.6,0.2c-0.2,0.1-0.4,0.2-0.6,0.2c-0.2,0.1-0.3,0.1-0.4,0.1c-0.2,0.1-0.4,0.2-0.5,0.3s-0.3,0.3-0.3,0.5v0.4
			c0,0.2,0,0.4,0.1,0.6c0.1,0.2,0.2,0.3,0.3,0.4s0.3,0.2,0.4,0.3c0.2,0.1,0.4,0.1,0.6,0.1s0.4,0,0.6-0.1c0.2-0.1,0.3-0.2,0.4-0.3
			s0.2-0.3,0.3-0.4c0.1-0.2,0.1-0.4,0.1-0.6V168z"/>
		<path id="XMLID_41_" class="st0" d="M36.9,171.4v-10h0.5v10H36.9z"/>
		<path id="XMLID_43_" class="st0" d="M38.4,171.4v-10h0.5v10H38.4z"/>
		<path id="XMLID_45_" class="st0" d="M42.7,167.6c-0.1,0-0.2,0.1-0.4,0.2c-0.2,0.1-0.4,0.2-0.6,0.2s-0.5,0.2-0.7,0.3
			s-0.4,0.1-0.5,0.2v1.2c0,0.2,0,0.4,0.1,0.6c0.1,0.2,0.2,0.3,0.3,0.4s0.3,0.2,0.4,0.3c0.2,0.1,0.4,0.1,0.6,0.1s0.4,0,0.6-0.1
			c0.2-0.1,0.3-0.2,0.4-0.3s0.2-0.3,0.3-0.4c0.1-0.2,0.1-0.4,0.1-0.6h0.5c0,0.3,0,0.5-0.1,0.7s-0.2,0.4-0.4,0.6s-0.4,0.3-0.6,0.4
			c-0.2,0.1-0.5,0.1-0.7,0.1s-0.5,0-0.7-0.1c-0.2-0.1-0.4-0.2-0.6-0.4s-0.3-0.4-0.4-0.6s-0.1-0.5-0.1-0.7v-3.3c0-0.3,0-0.5,0.1-0.7
			c0.1-0.2,0.2-0.4,0.4-0.6s0.4-0.3,0.6-0.4c0.2-0.1,0.5-0.1,0.7-0.1s0.5,0,0.7,0.1c0.2,0.1,0.4,0.2,0.6,0.4s0.3,0.4,0.4,0.6
			c0.1,0.2,0.1,0.5,0.1,0.7v0C43.8,166.9,43.4,167.3,42.7,167.6z M41.9,164.9c-0.2,0-0.4,0-0.6,0.1c-0.2,0.1-0.3,0.2-0.4,0.3
			s-0.2,0.3-0.3,0.4c-0.1,0.2-0.1,0.4-0.1,0.6v1.6c0.1-0.1,0.3-0.1,0.5-0.2c0.2-0.1,0.4-0.2,0.6-0.2c0.2-0.1,0.4-0.1,0.6-0.2
			c0.2-0.1,0.3-0.1,0.4-0.1c0.2-0.1,0.3-0.2,0.5-0.3s0.3-0.3,0.3-0.5c0-0.2,0-0.4-0.1-0.5c-0.1-0.2-0.2-0.3-0.3-0.4
			s-0.3-0.2-0.4-0.3C42.3,165,42.1,164.9,41.9,164.9z"/>
		<path id="XMLID_48_" class="st0" d="M47.3,164.5v0.5h-0.5c-0.2,0-0.4,0-0.5,0.1c-0.2,0.1-0.3,0.2-0.4,0.3
			c-0.1,0.1-0.2,0.3-0.3,0.4c-0.1,0.2-0.1,0.4-0.1,0.6v1.6v3.5h-0.5V168v-1.6V165h-0.5v-0.5h0.5h0.5v0.5v0.1
			c0.4-0.4,0.8-0.6,1.4-0.6H47.3z"/>
		<path id="XMLID_50_" class="st0" d="M54.1,161.4v4.9v3.3v1.8h-0.5v-0.6c-0.2,0.2-0.4,0.4-0.6,0.5c-0.2,0.1-0.5,0.2-0.8,0.2
			c-0.3,0-0.5,0-0.7-0.1c-0.2-0.1-0.4-0.2-0.6-0.4s-0.3-0.4-0.4-0.6s-0.1-0.5-0.1-0.7v-3.3c0-0.3,0-0.5,0.1-0.7
			c0.1-0.2,0.2-0.4,0.4-0.6s0.4-0.3,0.6-0.4c0.2-0.1,0.5-0.1,0.7-0.1c0.3,0,0.5,0.1,0.8,0.2c0.2,0.1,0.5,0.3,0.6,0.5v-3.7H54.1z
			 M52.2,171c0.2,0,0.4,0,0.6-0.1c0.2-0.1,0.3-0.2,0.4-0.3s0.2-0.3,0.3-0.4c0.1-0.2,0.1-0.4,0.1-0.6v-3.3c0-0.2,0-0.4-0.1-0.6
			c-0.1-0.2-0.2-0.3-0.3-0.4s-0.3-0.2-0.4-0.3c-0.2-0.1-0.4-0.1-0.6-0.1s-0.4,0-0.6,0.1c-0.2,0.1-0.3,0.2-0.4,0.3s-0.2,0.3-0.3,0.4
			c-0.1,0.2-0.1,0.4-0.1,0.6v3.3c0,0.2,0,0.4,0.1,0.6c0.1,0.2,0.2,0.3,0.3,0.4s0.3,0.2,0.4,0.3C51.8,171,52,171,52.2,171z"/>
		<path id="XMLID_53_" class="st0" d="M57.8,167.6c-0.1,0-0.2,0.1-0.4,0.2c-0.2,0.1-0.4,0.2-0.6,0.2s-0.5,0.2-0.7,0.3
			s-0.4,0.1-0.5,0.2v1.2c0,0.2,0,0.4,0.1,0.6c0.1,0.2,0.2,0.3,0.3,0.4s0.3,0.2,0.4,0.3c0.2,0.1,0.4,0.1,0.6,0.1s0.4,0,0.6-0.1
			c0.2-0.1,0.3-0.2,0.4-0.3s0.2-0.3,0.3-0.4c0.1-0.2,0.1-0.4,0.1-0.6h0.5c0,0.3,0,0.5-0.1,0.7s-0.2,0.4-0.4,0.6s-0.4,0.3-0.6,0.4
			c-0.2,0.1-0.5,0.1-0.7,0.1s-0.5,0-0.7-0.1c-0.2-0.1-0.4-0.2-0.6-0.4s-0.3-0.4-0.4-0.6s-0.1-0.5-0.1-0.7v-3.3c0-0.3,0-0.5,0.1-0.7
			c0.1-0.2,0.2-0.4,0.4-0.6s0.4-0.3,0.6-0.4c0.2-0.1,0.5-0.1,0.7-0.1s0.5,0,0.7,0.1c0.2,0.1,0.4,0.2,0.6,0.4s0.3,0.4,0.4,0.6
			c0.1,0.2,0.1,0.5,0.1,0.7v0C58.9,166.9,58.5,167.3,57.8,167.6z M57,164.9c-0.2,0-0.4,0-0.6,0.1c-0.2,0.1-0.3,0.2-0.4,0.3
			s-0.2,0.3-0.3,0.4c-0.1,0.2-0.1,0.4-0.1,0.6v1.6c0.1-0.1,0.3-0.1,0.5-0.2c0.2-0.1,0.4-0.2,0.6-0.2c0.2-0.1,0.4-0.1,0.6-0.2
			c0.2-0.1,0.3-0.1,0.4-0.1c0.2-0.1,0.3-0.2,0.5-0.3s0.3-0.3,0.3-0.5c0-0.2,0-0.4-0.1-0.5c-0.1-0.2-0.2-0.3-0.3-0.4
			s-0.3-0.2-0.4-0.3C57.4,165,57.2,164.9,57,164.9z"/>
		<path id="XMLID_56_" class="st0" d="M66.2,171.4l-0.7-3h-2.7l-0.7,3h-0.5l2.1-9.5h0.8l2.1,9.5H66.2z M63,168h2.5l-1.3-5.7L63,168z
			"/>
		<path id="XMLID_59_" class="st0" d="M70.2,164.5v0.5h-0.5c-0.2,0-0.4,0-0.5,0.1c-0.2,0.1-0.3,0.2-0.4,0.3
			c-0.1,0.1-0.2,0.3-0.3,0.4c-0.1,0.2-0.1,0.4-0.1,0.6v1.6v3.5h-0.5V168v-1.6V165h-0.5v-0.5h0.5h0.5v0.5v0.1
			c0.4-0.4,0.8-0.6,1.4-0.6H70.2z"/>
		<path id="XMLID_61_" class="st0" d="M74.5,164.5v1.8v3.3v4.9h-0.5v-3.7c-0.2,0.2-0.4,0.4-0.6,0.5c-0.2,0.1-0.5,0.2-0.8,0.2
			c-0.3,0-0.5,0-0.7-0.1c-0.2-0.1-0.4-0.2-0.6-0.4s-0.3-0.4-0.4-0.6s-0.1-0.5-0.1-0.7v-3.3c0-0.3,0-0.5,0.1-0.7
			c0.1-0.2,0.2-0.4,0.4-0.6s0.4-0.3,0.6-0.4c0.2-0.1,0.5-0.1,0.7-0.1c0.3,0,0.5,0.1,0.8,0.2c0.2,0.1,0.5,0.3,0.6,0.5v-0.6H74.5z
			 M72.7,171c0.2,0,0.4,0,0.6-0.1c0.2-0.1,0.3-0.2,0.4-0.3s0.2-0.3,0.3-0.4c0.1-0.2,0.1-0.4,0.1-0.6v-3.3c0-0.2,0-0.4-0.1-0.6
			c-0.1-0.2-0.2-0.3-0.3-0.4s-0.3-0.2-0.4-0.3c-0.2-0.1-0.4-0.1-0.6-0.1s-0.4,0-0.6,0.1c-0.2,0.1-0.3,0.2-0.4,0.3s-0.2,0.3-0.3,0.4
			c-0.1,0.2-0.1,0.4-0.1,0.6v3.3c0,0.2,0,0.4,0.1,0.6c0.1,0.2,0.2,0.3,0.3,0.4s0.3,0.2,0.4,0.3C72.3,171,72.5,171,72.7,171z"/>
		<path id="XMLID_64_" class="st0" d="M79.3,164.5v3.4v1.7v1.8h-0.5v-0.6c-0.2,0.2-0.4,0.4-0.6,0.5c-0.2,0.1-0.5,0.2-0.8,0.2
			c-0.3,0-0.5,0-0.7-0.1c-0.2-0.1-0.4-0.2-0.6-0.4s-0.3-0.4-0.4-0.6s-0.1-0.5-0.1-0.7V168v-3.4H76v3.4v1.7c0,0.2,0,0.4,0.1,0.6
			c0.1,0.2,0.2,0.3,0.3,0.4s0.3,0.2,0.4,0.3c0.2,0.1,0.4,0.1,0.6,0.1s0.4,0,0.6-0.1c0.2-0.1,0.3-0.2,0.4-0.3s0.2-0.3,0.3-0.4
			c0.1-0.2,0.1-0.4,0.1-0.6V168v-3.4H79.3z"/>
		<path id="XMLID_66_" class="st0" d="M80.7,164.4h0.5v0.5v6.4h-0.5v-6.4h-0.5v-0.5H80.7z M80.8,162.8c-0.1,0-0.2,0-0.3-0.1
			c-0.1-0.1-0.1-0.1-0.1-0.3c0-0.1,0-0.2,0.1-0.3s0.1-0.1,0.3-0.1c0.1,0,0.2,0,0.2,0.1s0.1,0.1,0.1,0.3c0,0.1,0,0.2-0.1,0.3
			C81,162.8,80.9,162.8,80.8,162.8z"/>
		<path id="XMLID_69_" class="st0" d="M83,168v1.7c0,0.2,0,0.4,0.1,0.6c0.1,0.2,0.2,0.3,0.3,0.4c0.1,0.1,0.2,0.2,0.4,0.3
			c0.1,0.1,0.3,0.1,0.5,0.1v0.5c-0.2,0-0.5,0-0.7-0.1c-0.2-0.1-0.4-0.2-0.5-0.4c-0.2-0.2-0.3-0.4-0.4-0.6s-0.1-0.5-0.1-0.7V168v-3
			v-0.5v-2H83v2h1.5v0.5H83V168z"/>
		<path id="XMLID_71_" class="st0" d="M87.7,167.6c-0.1,0-0.2,0.1-0.4,0.2c-0.2,0.1-0.4,0.2-0.6,0.2s-0.5,0.2-0.7,0.3
			s-0.4,0.1-0.5,0.2v1.2c0,0.2,0,0.4,0.1,0.6c0.1,0.2,0.2,0.3,0.3,0.4s0.3,0.2,0.4,0.3c0.2,0.1,0.4,0.1,0.6,0.1s0.4,0,0.6-0.1
			c0.2-0.1,0.3-0.2,0.4-0.3s0.2-0.3,0.3-0.4c0.1-0.2,0.1-0.4,0.1-0.6h0.5c0,0.3,0,0.5-0.1,0.7s-0.2,0.4-0.4,0.6s-0.4,0.3-0.6,0.4
			c-0.2,0.1-0.5,0.1-0.7,0.1s-0.5,0-0.7-0.1c-0.2-0.1-0.4-0.2-0.6-0.4s-0.3-0.4-0.4-0.6s-0.1-0.5-0.1-0.7v-3.3c0-0.3,0-0.5,0.1-0.7
			c0.1-0.2,0.2-0.4,0.4-0.6s0.4-0.3,0.6-0.4c0.2-0.1,0.5-0.1,0.7-0.1s0.5,0,0.7,0.1c0.2,0.1,0.4,0.2,0.6,0.4s0.3,0.4,0.4,0.6
			c0.1,0.2,0.1,0.5,0.1,0.7v0C88.8,166.9,88.4,167.3,87.7,167.6z M86.9,164.9c-0.2,0-0.4,0-0.6,0.1c-0.2,0.1-0.3,0.2-0.4,0.3
			s-0.2,0.3-0.3,0.4c-0.1,0.2-0.1,0.4-0.1,0.6v1.6c0.1-0.1,0.3-0.1,0.5-0.2c0.2-0.1,0.4-0.2,0.6-0.2c0.2-0.1,0.4-0.1,0.6-0.2
			c0.2-0.1,0.3-0.1,0.4-0.1c0.2-0.1,0.3-0.2,0.5-0.3s0.3-0.3,0.3-0.5c0-0.2,0-0.4-0.1-0.5c-0.1-0.2-0.2-0.3-0.3-0.4
			s-0.3-0.2-0.4-0.3C87.3,165,87.1,164.9,86.9,164.9z"/>
		<path id="XMLID_74_" class="st0" d="M91.7,171c0.2,0,0.4,0,0.6-0.1c0.2-0.1,0.3-0.2,0.4-0.3s0.2-0.3,0.3-0.4
			c0.1-0.2,0.1-0.4,0.1-0.6h0.5c0,0.3,0,0.5-0.1,0.7s-0.2,0.4-0.4,0.6s-0.4,0.3-0.6,0.4c-0.2,0.1-0.5,0.1-0.7,0.1s-0.5,0-0.7-0.1
			c-0.2-0.1-0.4-0.2-0.6-0.4s-0.3-0.4-0.4-0.6s-0.1-0.5-0.1-0.7v-3.3c0-0.3,0-0.5,0.1-0.7c0.1-0.2,0.2-0.4,0.4-0.6s0.4-0.3,0.6-0.4
			c0.2-0.1,0.5-0.1,0.7-0.1s0.5,0,0.7,0.1c0.2,0.1,0.4,0.2,0.6,0.4s0.3,0.4,0.4,0.6c0.1,0.2,0.1,0.5,0.1,0.7h-0.5
			c0-0.2,0-0.4-0.1-0.6c-0.1-0.2-0.2-0.3-0.3-0.4s-0.3-0.2-0.4-0.3c-0.2-0.1-0.4-0.1-0.6-0.1s-0.4,0-0.6,0.1
			c-0.2,0.1-0.3,0.2-0.4,0.3s-0.2,0.3-0.3,0.4c-0.1,0.2-0.1,0.4-0.1,0.6v3.3c0,0.2,0,0.4,0.1,0.6c0.1,0.2,0.2,0.3,0.3,0.4
			s0.3,0.2,0.4,0.3C91.3,171,91.5,171,91.7,171z"/>
		<path id="XMLID_76_" class="st0" d="M95,168v1.7c0,0.2,0,0.4,0.1,0.6c0.1,0.2,0.2,0.3,0.3,0.4c0.1,0.1,0.2,0.2,0.4,0.3
			c0.1,0.1,0.3,0.1,0.5,0.1v0.5c-0.2,0-0.5,0-0.7-0.1c-0.2-0.1-0.4-0.2-0.5-0.4c-0.2-0.2-0.3-0.4-0.4-0.6s-0.1-0.5-0.1-0.7V168v-3
			v-0.5v-2H95v2h1.5v0.5H95V168z"/>
		<path id="XMLID_78_" class="st0" d="M100.9,164.5v3.4v1.7v1.8h-0.5v-0.6c-0.2,0.2-0.4,0.4-0.6,0.5c-0.2,0.1-0.5,0.2-0.8,0.2
			c-0.3,0-0.5,0-0.7-0.1c-0.2-0.1-0.4-0.2-0.6-0.4s-0.3-0.4-0.4-0.6s-0.1-0.5-0.1-0.7V168v-3.4h0.5v3.4v1.7c0,0.2,0,0.4,0.1,0.6
			c0.1,0.2,0.2,0.3,0.3,0.4s0.3,0.2,0.4,0.3c0.2,0.1,0.4,0.1,0.6,0.1s0.4,0,0.6-0.1c0.2-0.1,0.3-0.2,0.4-0.3s0.2-0.3,0.3-0.4
			c0.1-0.2,0.1-0.4,0.1-0.6V168v-3.4H100.9z"/>
		<path id="XMLID_80_" class="st0" d="M104.7,164.5v0.5h-0.5c-0.2,0-0.4,0-0.5,0.1c-0.2,0.1-0.3,0.2-0.4,0.3
			c-0.1,0.1-0.2,0.3-0.3,0.4s-0.1,0.4-0.1,0.6v1.6v3.5h-0.5V168v-1.6V165h-0.5v-0.5h0.5h0.5v0.5v0.1c0.4-0.4,0.8-0.6,1.4-0.6H104.7z
			"/>
		<path id="XMLID_82_" class="st0" d="M107,164.5c0.3,0,0.5,0,0.7,0.1c0.2,0.1,0.4,0.2,0.6,0.4c0.2,0.2,0.3,0.4,0.4,0.6
			c0.1,0.2,0.1,0.5,0.1,0.7v1.6v1.7v1.8h-0.5v-0.6c-0.2,0.2-0.4,0.4-0.6,0.5c-0.2,0.1-0.5,0.2-0.8,0.2c-0.3,0-0.5,0-0.7-0.1
			c-0.2-0.1-0.4-0.2-0.6-0.4s-0.3-0.4-0.4-0.6c-0.1-0.2-0.1-0.5-0.1-0.7v-0.4c0-0.6,0.4-1,1.1-1.3c0.1,0,0.2-0.1,0.4-0.2
			c0.2-0.1,0.4-0.2,0.6-0.2c0.2-0.1,0.5-0.2,0.7-0.3c0.2-0.1,0.4-0.1,0.5-0.2v-0.8c0-0.4-0.1-0.7-0.4-1c-0.2-0.3-0.6-0.4-0.9-0.4
			c-0.2,0-0.4,0-0.5,0.1c-0.2,0.1-0.3,0.2-0.4,0.3s-0.2,0.3-0.3,0.4c-0.1,0.2-0.1,0.4-0.1,0.6h-0.5c0-0.3,0-0.5,0.1-0.7
			c0.1-0.2,0.2-0.4,0.4-0.6s0.4-0.3,0.6-0.4C106.5,164.5,106.7,164.5,107,164.5z M108.3,168v-0.3c-0.1,0.1-0.3,0.1-0.5,0.2
			c-0.2,0.1-0.4,0.2-0.6,0.2c-0.2,0.1-0.4,0.2-0.6,0.2c-0.2,0.1-0.3,0.1-0.4,0.1c-0.2,0.1-0.4,0.2-0.5,0.3s-0.3,0.3-0.3,0.5v0.4
			c0,0.2,0,0.4,0.1,0.6c0.1,0.2,0.2,0.3,0.3,0.4s0.3,0.2,0.4,0.3c0.2,0.1,0.4,0.1,0.6,0.1c0.2,0,0.4,0,0.6-0.1
			c0.2-0.1,0.3-0.2,0.4-0.3s0.2-0.3,0.3-0.4c0.1-0.2,0.1-0.4,0.1-0.6V168z"/>
		<path id="XMLID_85_" class="st0" d="M115.8,164.5l-2.5,10h-0.5l0.7-3l-2-7h0.5l1.7,6.1l1.5-6.1H115.8z"/>
		<path id="XMLID_87_" class="st0" d="M120.6,171c0.2,0,0.4,0,0.6-0.1s0.3-0.2,0.5-0.3c0.1-0.1,0.3-0.3,0.3-0.5s0.1-0.4,0.1-0.6h0.5
			c0,0.3-0.1,0.5-0.2,0.8c-0.1,0.2-0.3,0.5-0.4,0.6c-0.2,0.2-0.4,0.3-0.6,0.4c-0.2,0.1-0.5,0.2-0.8,0.2c-0.3,0-0.5-0.1-0.8-0.2
			c-0.2-0.1-0.5-0.3-0.6-0.4c-0.2-0.2-0.3-0.4-0.4-0.6c-0.1-0.2-0.2-0.5-0.2-0.8v-5.5c0-0.3,0.1-0.5,0.2-0.8
			c0.1-0.2,0.3-0.5,0.4-0.6c0.2-0.2,0.4-0.3,0.6-0.4c0.2-0.1,0.5-0.2,0.8-0.2c0.3,0,0.5,0.1,0.8,0.2c0.2,0.1,0.5,0.2,0.6,0.4
			c0.2,0.2,0.3,0.4,0.4,0.6c0.1,0.2,0.2,0.5,0.2,0.8h-0.5c0-0.2,0-0.4-0.1-0.6s-0.2-0.4-0.3-0.5c-0.1-0.1-0.3-0.3-0.5-0.3
			s-0.4-0.1-0.6-0.1c-0.2,0-0.4,0-0.6,0.1s-0.4,0.2-0.5,0.3s-0.3,0.3-0.3,0.5c-0.1,0.2-0.1,0.4-0.1,0.6v5.5c0,0.2,0,0.4,0.1,0.6
			c0.1,0.2,0.2,0.4,0.3,0.5c0.1,0.1,0.3,0.3,0.5,0.3S120.4,171,120.6,171z"/>
		<path id="XMLID_89_" class="st0" d="M125.4,171.5c-0.3,0-0.5,0-0.7-0.1c-0.2-0.1-0.4-0.2-0.6-0.4s-0.3-0.4-0.4-0.6
			c-0.1-0.2-0.1-0.5-0.1-0.7v-3.3c0-0.3,0-0.5,0.1-0.7c0.1-0.2,0.2-0.4,0.4-0.6s0.4-0.3,0.6-0.4c0.2-0.1,0.5-0.1,0.7-0.1
			c0.3,0,0.5,0,0.7,0.1c0.2,0.1,0.4,0.2,0.6,0.4s0.3,0.4,0.4,0.6c0.1,0.2,0.1,0.5,0.1,0.7v3.3c0,0.3,0,0.5-0.1,0.7
			c-0.1,0.2-0.2,0.4-0.4,0.6s-0.4,0.3-0.6,0.4C125.9,171.5,125.7,171.5,125.4,171.5z M125.4,164.9c-0.2,0-0.4,0-0.6,0.1
			c-0.2,0.1-0.3,0.2-0.4,0.3s-0.2,0.3-0.3,0.4c-0.1,0.2-0.1,0.4-0.1,0.6v3.3c0,0.2,0,0.4,0.1,0.6c0.1,0.2,0.2,0.3,0.3,0.4
			s0.3,0.2,0.4,0.3c0.2,0.1,0.4,0.1,0.6,0.1c0.2,0,0.4,0,0.6-0.1c0.2-0.1,0.3-0.2,0.4-0.3s0.2-0.3,0.3-0.4c0.1-0.2,0.1-0.4,0.1-0.6
			v-3.3c0-0.2,0-0.4-0.1-0.6c-0.1-0.2-0.2-0.3-0.3-0.4s-0.3-0.2-0.4-0.3C125.8,165,125.6,164.9,125.4,164.9z"/>
		<path id="XMLID_92_" class="st0" d="M130.2,164.5c0.3,0,0.5,0,0.7,0.1c0.2,0.1,0.4,0.2,0.6,0.4s0.3,0.4,0.4,0.6
			c0.1,0.2,0.1,0.5,0.1,0.7v1.6v3.5h-0.5V168v-1.6c0-0.2,0-0.4-0.1-0.6c-0.1-0.2-0.2-0.3-0.3-0.4s-0.3-0.2-0.4-0.3
			c-0.2-0.1-0.4-0.1-0.6-0.1c-0.2,0-0.4,0-0.6,0.1c-0.2,0.1-0.3,0.2-0.4,0.3s-0.2,0.3-0.3,0.4c-0.1,0.2-0.1,0.4-0.1,0.6v1.6v3.5
			h-0.5V168v-1.6v-1.8h0.5v0.6c0.2-0.2,0.4-0.4,0.6-0.5C129.6,164.5,129.9,164.5,130.2,164.5z"/>
		<path id="XMLID_94_" class="st0" d="M135,167.8c0.2,0.1,0.4,0.2,0.6,0.3c0.2,0.1,0.4,0.3,0.6,0.4c0.2,0.1,0.3,0.3,0.4,0.5
			c0.1,0.2,0.2,0.4,0.2,0.6c0,0.3,0,0.5-0.1,0.7c-0.1,0.2-0.2,0.4-0.4,0.6s-0.4,0.3-0.6,0.4c-0.2,0.1-0.5,0.1-0.7,0.1
			c-0.3,0-0.5,0-0.7-0.1c-0.2-0.1-0.4-0.2-0.6-0.4s-0.3-0.4-0.4-0.6c-0.1-0.2-0.1-0.5-0.1-0.7h0.5c0,0.2,0,0.4,0.1,0.6
			c0.1,0.2,0.2,0.3,0.3,0.4s0.3,0.2,0.4,0.3c0.2,0.1,0.4,0.1,0.6,0.1c0.2,0,0.4,0,0.6-0.1c0.2-0.1,0.3-0.2,0.4-0.3s0.2-0.3,0.3-0.4
			c0.1-0.2,0.1-0.4,0.1-0.6c0-0.2,0-0.3-0.1-0.5c-0.1-0.1-0.2-0.3-0.3-0.4s-0.3-0.2-0.5-0.3c-0.2-0.1-0.4-0.2-0.6-0.3
			c-0.2-0.1-0.4-0.2-0.6-0.3c-0.2-0.1-0.4-0.2-0.6-0.4s-0.3-0.3-0.4-0.5c-0.1-0.2-0.2-0.4-0.2-0.6c0-0.3,0-0.5,0.1-0.7
			c0.1-0.2,0.2-0.4,0.4-0.6s0.4-0.3,0.6-0.4c0.2-0.1,0.5-0.1,0.7-0.1c0.3,0,0.5,0,0.7,0.1c0.2,0.1,0.4,0.2,0.6,0.4s0.3,0.4,0.4,0.6
			c0.1,0.2,0.1,0.5,0.1,0.7h-0.5c0-0.2,0-0.4-0.1-0.6c-0.1-0.2-0.2-0.3-0.3-0.4s-0.3-0.2-0.4-0.3c-0.2-0.1-0.4-0.1-0.6-0.1
			c-0.2,0-0.4,0-0.6,0.1c-0.2,0.1-0.3,0.2-0.4,0.3s-0.2,0.3-0.3,0.4c-0.1,0.2-0.1,0.4-0.1,0.6c0,0.2,0,0.3,0.1,0.5
			c0.1,0.1,0.2,0.3,0.3,0.4c0.1,0.1,0.3,0.2,0.5,0.3C134.6,167.6,134.8,167.7,135,167.8z"/>
		<path id="XMLID_96_" class="st0" d="M138.1,168v1.7c0,0.2,0,0.4,0.1,0.6c0.1,0.2,0.2,0.3,0.3,0.4s0.2,0.2,0.4,0.3
			c0.1,0.1,0.3,0.1,0.5,0.1v0.5c-0.2,0-0.5,0-0.7-0.1c-0.2-0.1-0.4-0.2-0.5-0.4s-0.3-0.4-0.4-0.6s-0.1-0.5-0.1-0.7V168v-3v-0.5v-2
			h0.5v2h1.5v0.5h-1.5V168z"/>
		<path id="XMLID_98_" class="st0" d="M143.1,164.5v0.5h-0.5c-0.2,0-0.4,0-0.5,0.1c-0.2,0.1-0.3,0.2-0.4,0.3
			c-0.1,0.1-0.2,0.3-0.3,0.4s-0.1,0.4-0.1,0.6v1.6v3.5h-0.5V168v-1.6V165h-0.5v-0.5h0.5h0.5v0.5v0.1c0.4-0.4,0.8-0.6,1.4-0.6H143.1z
			"/>
		<path id="XMLID_100_" class="st0" d="M147.6,164.5v3.4v1.7v1.8h-0.5v-0.6c-0.2,0.2-0.4,0.4-0.6,0.5c-0.2,0.1-0.5,0.2-0.8,0.2
			c-0.3,0-0.5,0-0.7-0.1c-0.2-0.1-0.4-0.2-0.6-0.4s-0.3-0.4-0.4-0.6c-0.1-0.2-0.1-0.5-0.1-0.7V168v-3.4h0.5v3.4v1.7
			c0,0.2,0,0.4,0.1,0.6c0.1,0.2,0.2,0.3,0.3,0.4s0.3,0.2,0.4,0.3c0.2,0.1,0.4,0.1,0.6,0.1c0.2,0,0.4,0,0.6-0.1
			c0.2-0.1,0.3-0.2,0.4-0.3s0.2-0.3,0.3-0.4c0.1-0.2,0.1-0.4,0.1-0.6V168v-3.4H147.6z"/>
		<path id="XMLID_102_" class="st0" d="M150.4,171c0.2,0,0.4,0,0.6-0.1c0.2-0.1,0.3-0.2,0.4-0.3s0.2-0.3,0.3-0.4
			c0.1-0.2,0.1-0.4,0.1-0.6h0.5c0,0.3,0,0.5-0.1,0.7c-0.1,0.2-0.2,0.4-0.4,0.6s-0.4,0.3-0.6,0.4c-0.2,0.1-0.5,0.1-0.7,0.1
			c-0.3,0-0.5,0-0.7-0.1c-0.2-0.1-0.4-0.2-0.6-0.4s-0.3-0.4-0.4-0.6c-0.1-0.2-0.1-0.5-0.1-0.7v-3.3c0-0.3,0-0.5,0.1-0.7
			c0.1-0.2,0.2-0.4,0.4-0.6s0.4-0.3,0.6-0.4c0.2-0.1,0.5-0.1,0.7-0.1c0.3,0,0.5,0,0.7,0.1c0.2,0.1,0.4,0.2,0.6,0.4s0.3,0.4,0.4,0.6
			c0.1,0.2,0.1,0.5,0.1,0.7h-0.5c0-0.2,0-0.4-0.1-0.6c-0.1-0.2-0.2-0.3-0.3-0.4s-0.3-0.2-0.4-0.3c-0.2-0.1-0.4-0.1-0.6-0.1
			c-0.2,0-0.4,0-0.6,0.1c-0.2,0.1-0.3,0.2-0.4,0.3s-0.2,0.3-0.3,0.4c-0.1,0.2-0.1,0.4-0.1,0.6v3.3c0,0.2,0,0.4,0.1,0.6
			c0.1,0.2,0.2,0.3,0.3,0.4s0.3,0.2,0.4,0.3C150,171,150.2,171,150.4,171z"/>
		<path id="XMLID_104_" class="st0" d="M155.1,171c0.2,0,0.4,0,0.6-0.1c0.2-0.1,0.3-0.2,0.4-0.3s0.2-0.3,0.3-0.4
			c0.1-0.2,0.1-0.4,0.1-0.6h0.5c0,0.3,0,0.5-0.1,0.7c-0.1,0.2-0.2,0.4-0.4,0.6s-0.4,0.3-0.6,0.4c-0.2,0.1-0.5,0.1-0.7,0.1
			c-0.3,0-0.5,0-0.7-0.1c-0.2-0.1-0.4-0.2-0.6-0.4s-0.3-0.4-0.4-0.6c-0.1-0.2-0.1-0.5-0.1-0.7v-3.3c0-0.3,0-0.5,0.1-0.7
			c0.1-0.2,0.2-0.4,0.4-0.6s0.4-0.3,0.6-0.4c0.2-0.1,0.5-0.1,0.7-0.1c0.3,0,0.5,0,0.7,0.1c0.2,0.1,0.4,0.2,0.6,0.4s0.3,0.4,0.4,0.6
			c0.1,0.2,0.1,0.5,0.1,0.7h-0.5c0-0.2,0-0.4-0.1-0.6c-0.1-0.2-0.2-0.3-0.3-0.4s-0.3-0.2-0.4-0.3c-0.2-0.1-0.4-0.1-0.6-0.1
			c-0.2,0-0.4,0-0.6,0.1c-0.2,0.1-0.3,0.2-0.4,0.3s-0.2,0.3-0.3,0.4c-0.1,0.2-0.1,0.4-0.1,0.6v3.3c0,0.2,0,0.4,0.1,0.6
			c0.1,0.2,0.2,0.3,0.3,0.4s0.3,0.2,0.4,0.3C154.8,171,155,171,155.1,171z"/>
		<path id="XMLID_106_" class="st0" d="M158.5,164.4h0.5v0.5v6.4h-0.5v-6.4H158v-0.5H158.5z M158.6,162.8c-0.1,0-0.2,0-0.3-0.1
			c-0.1-0.1-0.1-0.1-0.1-0.3c0-0.1,0-0.2,0.1-0.3s0.1-0.1,0.3-0.1c0.1,0,0.2,0,0.2,0.1c0.1,0.1,0.1,0.1,0.1,0.3c0,0.1,0,0.2-0.1,0.3
			C158.8,162.8,158.7,162.8,158.6,162.8z"/>
		<path id="XMLID_109_" class="st0" d="M161.8,171.5c-0.3,0-0.5,0-0.7-0.1c-0.2-0.1-0.4-0.2-0.6-0.4s-0.3-0.4-0.4-0.6
			c-0.1-0.2-0.1-0.5-0.1-0.7v-3.3c0-0.3,0-0.5,0.1-0.7c0.1-0.2,0.2-0.4,0.4-0.6s0.4-0.3,0.6-0.4c0.2-0.1,0.5-0.1,0.7-0.1
			c0.3,0,0.5,0,0.7,0.1c0.2,0.1,0.4,0.2,0.6,0.4s0.3,0.4,0.4,0.6c0.1,0.2,0.1,0.5,0.1,0.7v3.3c0,0.3,0,0.5-0.1,0.7
			c-0.1,0.2-0.2,0.4-0.4,0.6s-0.4,0.3-0.6,0.4C162.3,171.5,162.1,171.5,161.8,171.5z M163,162.1l0.1,0.4l-2.7,0.8l-0.1-0.4
			L163,162.1z M161.8,164.9c-0.2,0-0.4,0-0.6,0.1c-0.2,0.1-0.3,0.2-0.4,0.3s-0.2,0.3-0.3,0.4c-0.1,0.2-0.1,0.4-0.1,0.6v3.3
			c0,0.2,0,0.4,0.1,0.6c0.1,0.2,0.2,0.3,0.3,0.4s0.3,0.2,0.4,0.3c0.2,0.1,0.4,0.1,0.6,0.1c0.2,0,0.4,0,0.6-0.1
			c0.2-0.1,0.3-0.2,0.4-0.3s0.2-0.3,0.3-0.4c0.1-0.2,0.1-0.4,0.1-0.6v-3.3c0-0.2,0-0.4-0.1-0.6c-0.1-0.2-0.2-0.3-0.3-0.4
			s-0.3-0.2-0.4-0.3C162.2,165,162,164.9,161.8,164.9z"/>
		<path id="XMLID_113_" class="st0" d="M166.5,164.5c0.3,0,0.5,0,0.7,0.1c0.2,0.1,0.4,0.2,0.6,0.4s0.3,0.4,0.4,0.6
			c0.1,0.2,0.1,0.5,0.1,0.7v1.6v3.5h-0.5V168v-1.6c0-0.2,0-0.4-0.1-0.6c-0.1-0.2-0.2-0.3-0.3-0.4s-0.3-0.2-0.4-0.3
			c-0.2-0.1-0.4-0.1-0.6-0.1c-0.2,0-0.4,0-0.6,0.1c-0.2,0.1-0.3,0.2-0.4,0.3s-0.2,0.3-0.3,0.4c-0.1,0.2-0.1,0.4-0.1,0.6v1.6v3.5
			h-0.5V168v-1.6v-1.8h0.5v0.6c0.2-0.2,0.4-0.4,0.6-0.5C166,164.5,166.2,164.5,166.5,164.5z"/>
	</g>
</g>
</svg>
