<?xml version="1.0" encoding="utf-8"?>
<!-- Generator: Adobe Illustrator 24.0.3, SVG Export Plug-In . SVG Version: 6.00 Build 0)  -->
<svg version="1.1" id="Livello_1" xmlns="http://www.w3.org/2000/svg" xmlns:xlink="http://www.w3.org/1999/xlink" x="0px" y="0px"
	 viewBox="0 0 609.52 351.03" style="enable-background:new 0 0 609.52 351.03;" xml:space="preserve">
<style type="text/css">
	.st0{fill:#FFFFFF;}
</style>
<path class="st0" d="M207.91,305.64L96.49,59.92C82.1,27.83,94.89,8.27,134.87,7.27V0.25H0v7.02c22.39,1,34.65,16.05,44.25,34.6
	l143.41,308.91h13.33L329.99,46.89c9.62-19.53,21.82-36.62,47.67-39.16c0,0,26.04-2.45,44.94,0.18
	c43.62,2.88,86.69,37.73,86.69,98.91c0,34.1-29.86,65.69-63.98,67.2c-32.93,1.53-50.36-1.62-67.66-6.97v22.02h25.01
	c30.39,0,34.12,17.55,76.24,89.76c21.86,37.61,47.98,72.21,73.04,72.21h38.38h18.13l1.07-7.02h-13.86
	c-34.65,0-60.24-42.13-86.89-89.76c-28.26-50.65-38.92-66.2-55.44-69.21c66.1-11.53,94.36-49.14,94.36-101.79
	C547.68,37.61,499.17,0,430.4,0L266.55,0.25v7.02c39.98,1,54.91,15.04,38.92,52.66"/>
</svg>
