<?xml version="1.0" standalone="no"?>
<!DOCTYPE svg PUBLIC "-//W3C//DTD SVG 1.1//EN" "http://www.w3.org/Graphics/SVG/1.1/DTD/svg11.dtd" >
<svg xmlns="http://www.w3.org/2000/svg" xmlns:xlink="http://www.w3.org/1999/xlink" version="1.1">
<metadata>
Created by FontForge 20170731 at Tue Apr  7 00:53:00 2020
 By Aleksey,,,
Quakiez Display DEMO (c) Almarkhatype 2019. All Rights Reserved
</metadata>
<defs>
<font id="Quakiez-Display" horiz-adv-x="80" >
  <font-face 
    font-family="Quakiez"
    font-weight="400"
    font-stretch="normal"
    units-per-em="2048"
    panose-1="2 0 5 0 0 0 0 0 0 0"
    ascent="1638"
    descent="-410"
    x-height="991"
    cap-height="1388"
    bbox="-96 -432 2047 1817"
    underline-thickness="150"
    underline-position="-442"
    unicode-range="U+001D-E036"
  />
<missing-glyph horiz-adv-x="1024" 
 />
    <glyph glyph-name=".notdef" horiz-adv-x="1024" 
 />
    <glyph glyph-name="uni0000" horiz-adv-x="0" 
 />
    <glyph glyph-name="uni0000" horiz-adv-x="0" 
 />
    <glyph glyph-name="nonmarkingreturn" horiz-adv-x="508" 
 />
    <glyph glyph-name="space" unicode=" " horiz-adv-x="502" 
 />
    <glyph glyph-name="space" unicode="&#xa0;" horiz-adv-x="502" 
 />
    <glyph glyph-name="exclam" unicode="!" horiz-adv-x="477" 
d="M229 279h-16l-163 1111h341zM221 -22q-54 0 -91 38q-38 37 -38 91t38 91q37 38 91 38q53 0 91 -38q38 -37 38 -91t-38 -91q-38 -38 -91 -38z" />
    <glyph glyph-name="quotedbl" unicode="&#x22;" horiz-adv-x="566" 
d="M0 1175q54 37 59 80q5 42 5 63q0 47 -13 98q-19 71 -46 125l2 1h216v-3q2 -17 2 -35q0 -198 -194 -325zM260 1175q54 37 59 80q5 42 5 63q0 47 -13 98q-19 71 -46 125l2 1h217v-3q2 -15 2 -32q0 -201 -195 -328z" />
    <glyph glyph-name="numbersign" unicode="#" horiz-adv-x="1230" 
d="M641 0l-155 4l127 470h-242l-129 -474l-155 4l127 470h-224l30 116h229l75 298h-285l30 116h289l104 384l155 -4l-103 -380h243l103 384l156 -4l-103 -380h227l-30 -116h-231l-75 -298h208l-30 -116h-213zM647 590l75 298h-242l-75 -298h242z" />
    <glyph glyph-name="dollar" unicode="$" horiz-adv-x="1138" 
d="M464 -12q-133 6 -231 34q-118 35 -233 108l211 211l17 -49q17 -49 55 -114q37 -64 97 -130q36 -42 84 -60zM539 -108h-16v657l-59 25q-77 33 -152 71q-76 38 -137 87t-99 116q-37 68 -37 159q0 188 130 290q96 74 241 98q-17 -9 -31 -22q-55 -49 -80 -104
q-26 -56 -26 -122q0 -70 34 -121q33 -51 90 -90q56 -39 126 -72v615h16v-623l92 -42q79 -34 155 -72q75 -37 137 -87q61 -49 98 -117t37 -160q0 -103 -56 -190q-57 -88 -172 -141q-76 -35 -176 -50q45 21 80 63q73 87 73 204q0 69 -36 119q-37 50 -97 87q-61 38 -135 71
v-649zM590 1406q238 -9 421 -158l-210 -211l-12 51q-10 52 -39 119q-29 66 -80 135q-35 45 -80 64z" />
    <glyph glyph-name="uni0025" unicode="%" horiz-adv-x="1168" 
d="M327 1395q122 -2 201 -101q80 -102 80 -246t-80 -245q-59 -74 -143 -95q2 3 3 7q12 32 15 87t3 124q0 90 -12 203t-37 199q-13 46 -30 67zM773 669h2q128 0 207 -101q80 -102 80 -246t-80 -245q-63 -79 -153 -97q8 7 14 22q12 31 15 85q3 53 3 119q0 89 -12 197
q-13 109 -37 193q-16 54 -39 73zM782 -25h-7q-126 0 -206 102q-81 101 -81 245t81 246q63 80 156 97q-31 -47 -34 -242q0 -163 22 -289q23 -135 69 -159zM13 -22l-13 10l1075 1412l13 -9zM311 701q-120 5 -197 102q-80 101 -80 245t80 246q62 78 151 96q-27 -57 -29 -241
q0 -166 22 -297q18 -113 53 -151z" />
    <glyph glyph-name="ampersand" unicode="&#x26;" horiz-adv-x="1498" 
d="M712 884l-2 11q43 65 43 183q0 197 -63 292q-35 51 -68 68l23 1q80 0 161 -51q109 -68 109 -238q0 -52 -23 -106q-22 -54 -75 -95q-52 -42 -105 -65zM515 -5q-397 0 -463 342q-9 46 -9 89q0 59 23 130t87 134q65 62 155 91q-55 164 -55 284q0 186 140 287q62 45 139 68
q-83 -59 -83 -193q0 -175 123 -423q84 -171 207 -320q123 -150 267 -227q9 36 9 75q0 32 -6 63q-27 138 -105 217l193 191q51 -107 51 -229q0 -40 -7 -120q-7 -81 -105 -211q75 -33 148 -33q32 0 65 6q74 14 95 57q13 27 13 61q0 18 -4 39l15 3q6 -31 6 -60
q0 -169 -216 -211q-57 -11 -132 -11q-58 0 -122 19q-411 138 -603 582q-50 -73 -50 -183q0 -55 13 -122q26 -133 91 -219q65 -85 147 -121q103 -45 118 -45q-68 -10 -145 -10z" />
    <glyph glyph-name="quotesingle" unicode="'" horiz-adv-x="305" 
d="M0 1175q54 37 59 80q5 42 5 63q0 47 -13 98q-19 71 -46 125l2 1h216v-3q2 -17 2 -35q0 -198 -194 -325z" />
    <glyph glyph-name="parenleft" unicode="(" horiz-adv-x="675" 
d="M595 -138q-165 0 -299 112q-135 113 -216 302q-80 190 -80 419q0 230 80 419q81 189 216 302q134 112 299 112v-15q-85 0 -156 -110q-70 -110 -112 -296q-41 -185 -41 -412q0 -226 41 -412q43 -185 112 -296q71 -110 156 -110v-15z" />
    <glyph glyph-name="parenright" unicode=")" horiz-adv-x="675" 
d="M0 -138v15q86 0 156 110q69 111 111 295q42 190 42 413q0 224 -42 413q-42 184 -111 295q-70 110 -156 110v15q164 0 299 -112q135 -113 216 -302q80 -189 80 -419q0 -229 -80 -419q-81 -189 -216 -302q-135 -112 -299 -112z" />
    <glyph glyph-name="asterisk" unicode="*" horiz-adv-x="623" 
d="M406 1009l-148 2l-2 1q26 52 36 122v3q2 13 2 25q0 51 -29 85q-45 -165 -195 -203l-43 143q24 -3 48 -3q38 0 93 9q55 10 86 59l-27 -1q-75 0 -133 33q-58 32 -94 90l121 85h1q11 -57 44 -119q32 -62 88 -76q-24 62 -24 114q0 23 9 67q9 45 53 98l119 -89v-1
q-51 -28 -100 -78q-45 -46 -45 -99v-9q85 69 179 69q51 0 98 -19l-48 -140l-1 -1q-42 40 -105 71q-37 18 -72 18q-22 0 -44 -8q134 -85 134 -229z" />
    <glyph glyph-name="plus" unicode="+" horiz-adv-x="1072" 
d="M584 196h-176v408h-408v176h408v408h176v-408h408v-176h-408v-408z" />
    <glyph glyph-name="comma" unicode="," horiz-adv-x="338" 
d="M76 -148l-4 15q114 33 159 163q-42 -51 -102 -51q-54 0 -91 38q-38 39 -38 91q0 54 38 91q37 38 91 38q53 0 91 -38q38 -37 38 -91q0 -100 -54 -168q-53 -67 -128 -88z" />
    <glyph glyph-name="hyphen" unicode="-" horiz-adv-x="1072" 
d="M992 611h-992v176h992v-176z" />
    <glyph glyph-name="hyphen" unicode="&#xad;" horiz-adv-x="1072" 
d="M992 611h-992v176h992v-176z" />
    <glyph glyph-name="period" unicode="." horiz-adv-x="338" 
d="M129 -22q-54 0 -91 38q-38 37 -38 91t38 91q37 38 91 38q53 0 91 -38q38 -37 38 -91t-38 -91q-38 -38 -91 -38z" />
    <glyph glyph-name="slash" unicode="/" horiz-adv-x="1046" 
d="M174 -154l-174 8l952 1658l174 -8z" />
    <glyph glyph-name="zero" unicode="0" horiz-adv-x="1191" 
d="M571 -20h-16q-172 0 -296 96t-192 257q-67 161 -67 357q0 197 67 357q68 161 192 257q63 49 140 73q-54 -33 -84 -107q-55 -134 -55 -382q0 -100 11 -222q10 -121 34 -243q24 -121 65 -222q40 -101 100 -163q45 -46 101 -58zM539 1400h16q173 0 298 -96q124 -96 191 -257
q67 -160 67 -357q0 -196 -67 -357t-191 -257q-63 -48 -139 -73q23 15 41 37q98 120 98 402q0 113 -10 238q-24 287 -100 486q-79 207 -204 234z" />
    <glyph glyph-name="one" unicode="1" horiz-adv-x="691" 
d="M611 0h-528v16q56 0 96 70q39 70 39 172v808q0 60 -39 111q-39 50 -90 81t-89 31v16q71 0 168 18q99 18 181 44q83 27 111 53h16v-1162q0 -102 39 -172q41 -70 96 -70v-16z" />
    <glyph glyph-name="two" unicode="2" horiz-adv-x="1062" 
d="M460 1403q-50 -12 -85 -45q-53 -51 -83 -109q-31 -58 -45 -117q-14 -58 -17 -99l-4 -41l-210 210q62 52 140 98q77 45 164 75q69 23 140 28zM554 1402q169 -11 275 -88q122 -90 122 -255q0 -103 -67 -186t-170 -155q-104 -72 -220 -140q-126 -74 -234 -151
q-109 -78 -165 -169q107 84 213 84q8 0 68 -3q61 -3 173 -41q107 -34 207 -40q84 0 141 37q57 36 71 86l14 -5q0 -24 -22 -136q-13 -67 -40 -124q-62 -132 -203 -132q-61 0 -122 17q-62 17 -124 36q-118 44 -233 52l-19 1q-103 0 -203 -90h-16q0 128 58 239q57 111 145 213
q87 101 182 195q83 84 155 165q71 81 117 164q45 83 45 168q0 98 -52 181q-37 61 -96 77z" />
    <glyph glyph-name="three" unicode="3" horiz-adv-x="1082" 
d="M402 1393q-18 -12 -32 -30q-45 -55 -72 -114t-41 -118q-13 -58 -18 -99l-5 -40l-210 210q178 156 378 191zM406 -13q-120 9 -207 59q-111 62 -199 183l219 211h2q16 -153 61 -270q46 -142 124 -183zM543 1404q110 -3 204 -40q102 -40 164 -114q61 -73 61 -169
q0 -115 -63 -191q-63 -75 -166 -106v-9q55 -8 115 -47q59 -40 102 -116q42 -75 42 -194q0 -130 -75 -228q-76 -98 -197 -152q-82 -36 -171 -48q56 26 96 87q66 103 66 226q0 164 -49 294q-59 156 -169 156q-73 0 -150 -50l-1 21q60 31 123 52q57 19 106 44q49 24 80 68
q30 43 30 121q0 137 -42 242q-38 119 -106 153z" />
    <glyph glyph-name="four" unicode="4" horiz-adv-x="1173" 
d="M1043 0h-527v16q56 0 95 70q40 70 40 172v123h-651v16l703 1023l206 -164l-893 -859h635v526l258 239v-765h184v-16h-184v-123q0 -102 39 -172q40 -70 95 -70v-16z" />
    <glyph glyph-name="five" unicode="5" horiz-adv-x="1046" 
d="M549 -14q48 26 80 90q56 109 56 251q0 186 -64 349q-77 194 -220 194q-79 0 -153 -33q-73 -33 -157 -117h-16l94 668h16q151 -37 332 -37q41 0 176 6t246 63h15q-11 -114 -62 -190q-74 -114 -259 -114q-76 0 -151 15t-152 58q-76 42 -156 121l-80 -568q94 95 184 132
q89 38 195 38q81 0 168 -24q87 -25 160 -80t119 -147q46 -90 46 -224q0 -144 -67 -246q-67 -103 -182 -157q-78 -36 -168 -48zM407 -19q-129 9 -222 64q-109 65 -185 190l219 142h3q12 -140 66 -245q47 -116 119 -151z" />
    <glyph glyph-name="six" unicode="6" horiz-adv-x="1128" 
d="M571 1400q90 -3 166 -33q81 -34 142 -89q62 -55 99 -123l-218 -128h-3q-9 78 -36 161t-75 152q-33 44 -75 60zM505 847q56 16 119 16q108 0 205 -46q97 -47 158 -139q61 -93 61 -231q0 -115 -62 -223q-62 -106 -172 -174q-57 -35 -124 -53q26 27 45 74q45 110 45 273
q0 182 -61 327q-73 176 -214 176zM524 -19q-139 8 -253 86q-126 87 -198 247q-73 159 -73 376q0 197 69 357q69 161 194 257q81 63 182 85q-62 -33 -109 -123q-76 -142 -76 -384q0 -100 11 -223l5 -27q27 -265 102 -451q62 -153 146 -200z" />
    <glyph glyph-name="seven" unicode="7" horiz-adv-x="1063" 
d="M484 0h-258q0 153 60 290q59 137 151 263q91 126 190 246q118 140 211 277q-46 -33 -121 -33q-61 0 -122 16t-123 37q-118 44 -233 52l-17 1q-106 0 -206 -91h-16q0 167 77 255q76 87 242 87q116 -5 230 -43q107 -35 207 -41q84 0 141 28q57 27 71 76l15 -6
q0 -88 -29 -176q-30 -89 -77 -181q-46 -93 -102 -191q-70 -122 -136 -256q-67 -135 -111 -286t-44 -324z" />
    <glyph glyph-name="eight" unicode="8" horiz-adv-x="1111" 
d="M430 -16q-51 6 -104 23q-87 26 -160 78q-73 51 -120 126q-46 74 -46 170q0 107 49 185q50 77 129 123q30 16 61 29q-20 14 -38 30q-57 49 -91 116q-35 68 -35 159q0 107 55 193q54 86 154 135q63 31 140 42q-18 -9 -35 -25q-43 -43 -64 -109q-21 -67 -21 -139
q0 -94 50 -157t129 -110q55 -33 116 -63q38 38 63 76q70 106 70 247q0 123 -68 210q-43 54 -99 75q83 -7 160 -39q99 -40 163 -117q63 -76 63 -183q0 -91 -45 -162q-46 -70 -117 -111q-50 -28 -103 -36q77 -36 147 -77q86 -50 142 -121t56 -181q0 -106 -58 -195t-176 -142
q-72 -33 -166 -46q40 22 77 61q79 86 79 210q0 84 -45 143t-117 102t-156 83q-66 32 -130 68q-29 -37 -50 -93q-36 -95 -36 -205q0 -145 64 -260q45 -80 113 -113z" />
    <glyph glyph-name="nine" unicode="9" horiz-adv-x="1128" 
d="M492 1400q159 0 285 -87t199 -246q72 -159 72 -377q0 -196 -69 -357t-193 -257q-73 -56 -162 -80q49 38 88 114q76 147 76 388q0 101 -11 223l-5 26q-27 261 -102 443q-73 179 -178 210zM458 -19q-80 5 -146 33q-82 33 -143 88q-61 56 -99 123l218 128h3q16 -136 68 -237
q42 -100 99 -135zM554 536q-60 -19 -129 -19q-109 0 -206 47q-97 46 -158 139q-61 92 -61 230q0 116 62 223t173 176q67 41 146 57q-41 -26 -68 -90q-45 -108 -45 -269q0 -178 61 -321q73 -173 215 -173h10z" />
    <glyph glyph-name="colon" unicode=":" horiz-adv-x="338" 
d="M129 230q-54 0 -91 38q-38 37 -38 91t38 91q37 38 91 38q53 0 91 -38q38 -37 38 -91t-38 -91q-38 -38 -91 -38zM129 828q-54 0 -91 38q-38 37 -38 91q0 53 38 91q37 38 91 38q53 0 91 -38t38 -91q0 -54 -38 -91q-38 -38 -91 -38z" />
    <glyph glyph-name="semicolon" unicode=";" horiz-adv-x="338" 
d="M129 832q-54 0 -91 38q-38 37 -38 91t38 91q37 38 91 38t91 -38q38 -37 38 -91t-38 -91q-37 -38 -91 -38zM76 110l-4 15q114 33 159 163q-42 -51 -102 -51q-54 0 -91 38q-38 39 -38 91q0 54 38 91q37 38 91 38t91 -38q38 -37 38 -91v-2q0 -99 -53 -166q-54 -67 -129 -88z
" />
    <glyph glyph-name="semicolon" unicode="&#x37e;" horiz-adv-x="338" 
d="M129 832q-54 0 -91 38q-38 37 -38 91t38 91q37 38 91 38t91 -38q38 -37 38 -91t-38 -91q-37 -38 -91 -38zM76 110l-4 15q114 33 159 163q-42 -51 -102 -51q-54 0 -91 38q-38 39 -38 91q0 54 38 91q37 38 91 38t91 -38q38 -37 38 -91v-2q0 -99 -53 -166q-54 -67 -129 -88z
" />
    <glyph glyph-name="less" unicode="&#x3c;" horiz-adv-x="1021" 
d="M935 1094l6 -14l-917 -382l917 -382l-6 -15l-935 389v15z" />
    <glyph glyph-name="equal" unicode="=" horiz-adv-x="1072" 
d="M992 813h-992v176h992v-176zM992 421h-992v176h992v-176z" />
    <glyph glyph-name="greater" unicode="&#x3e;" horiz-adv-x="1021" 
d="M6 301l-6 14l917 382l-917 382l6 15l935 -389v-15z" />
    <glyph glyph-name="question" unicode="?" horiz-adv-x="1015" 
d="M407 1391q-27 -13 -48 -36q-53 -55 -83 -114q-31 -58 -45 -117t-17 -100l-4 -40l-210 210q62 52 140 98q77 45 164 75q52 17 103 24zM355 -16q-54 0 -91 38q-38 39 -38 91q0 53 38 91q37 38 91 38q53 0 91 -38t38 -91q0 -52 -38 -91q-38 -38 -91 -38zM567 1392
q149 -15 246 -86q122 -90 122 -255q0 -94 -45 -170q-46 -76 -116 -139q-70 -64 -146 -122q-102 -76 -178 -156q-77 -80 -88 -179h-20q8 88 51 172q43 83 100 169q47 72 91 151q44 80 73 168t29 191q0 98 -52 186q-28 48 -67 70z" />
    <glyph glyph-name="at" unicode="@" horiz-adv-x="1500" 
d="M840 1018q10 -6 22 -10q31 -13 80 -13q48 0 81 21q33 22 33 65h22v-698q0 -49 16 -76q15 -28 35 -39q20 -12 32 -12q111 0 178 120q65 122 65 284q0 192 -93 350q-94 157 -251 251q-158 93 -350 93t-349 -93q-158 -94 -251 -251q-94 -158 -94 -350t94 -349
q93 -158 251 -251q157 -94 349 -94q144 0 270 54l7 -14q-130 -56 -277 -56q-196 0 -357 96t-257 257t-96 357q0 197 96 357q96 161 257 257t357 96q197 0 357 -96q161 -96 257 -257q96 -160 96 -357q0 -165 -67 -292q-33 -58 -81 -93q-49 -35 -111 -35q-105 0 -181 20
t-114 81l-15 -15q-3 -3 -6 -5l-6 -6l1 1q26 38 26 99v523q0 44 -26 80zM708 243q-22 -5 -48 -5q-124 0 -210 57q-85 57 -129 153q-44 97 -44 212q0 182 108 302q90 102 221 117q-37 -18 -64 -54q-54 -71 -54 -190q0 -240 49 -403q57 -187 171 -189z" />
    <glyph glyph-name="A" unicode="A" horiz-adv-x="1468" 
d="M574 1074l128 314h16l462 -1131q44 -103 104 -172q59 -69 104 -69v-16h-564v16q56 0 82 82q11 34 11 71q0 54 -23 117l-58 142l-7 16h1l-249 609zM242 168q7 -72 70 -119q42 -33 79 -33v-16h-391v16q56 0 126 69q65 64 107 157z" />
    <glyph glyph-name="B" unicode="B" horiz-adv-x="1365" 
d="M757 783q70 6 115 55q49 54 49 175q0 132 -50 248q-45 103 -118 127h65q171 0 278 -88q106 -88 106 -219q0 -130 -63 -199t-167 -98v-7q42 -1 95 -27t102 -73q50 -48 83 -118q33 -71 33 -164q0 -168 -117 -281q-118 -114 -306 -114h-30q172 36 172 294q0 179 -57 318
q-64 157 -190 171zM393 247q0 -106 39 -180q28 -52 64 -67h-496v16q56 0 96 70q39 70 39 172v873q0 102 -39 172q-40 69 -96 69v16h494q-35 -15 -62 -66q-39 -73 -39 -180v-895z" />
    <glyph glyph-name="C" unicode="C" horiz-adv-x="1406" 
d="M771 1403q116 -7 210 -43q120 -45 207 -121t138 -174l-206 -211h-4q-43 226 -142 368q-83 141 -203 181zM532 1387q-30 -15 -59 -36q-91 -68 -146 -182t-55 -299q0 -349 112 -578q131 -266 401 -266q134 0 282 72q149 71 222 198l14 -10q-51 -83 -133 -151t-198 -109
q-114 -41 -260 -41h-21q-208 5 -360 96q-159 96 -245 257t-86 357q0 197 86 357q86 161 245 257q92 56 201 78z" />
    <glyph glyph-name="D" unicode="D" horiz-adv-x="1468" 
d="M669 1388h9q221 0 380 -91t245 -249q85 -157 85 -354q0 -196 -85 -353q-86 -157 -245 -249q-102 -59 -228 -80q284 72 284 517q0 99 -13 216t-45 231q-32 113 -86 206q-55 93 -136 150q-70 50 -165 56zM514 0h-514v16q56 0 96 70q39 70 39 172v873q0 102 -39 172
q-40 69 -96 69v16h514q-46 -7 -81 -70q-40 -71 -40 -176v-895q0 -103 40 -176q35 -63 81 -71z" />
    <glyph glyph-name="E" unicode="E" horiz-adv-x="1250" 
d="M812 1388h266l38 -265h-16q-18 93 -111 171q-85 71 -177 94zM864 0q90 22 177 98q94 82 113 188h16l-40 -286h-266zM393 258q0 -102 39 -172q36 -65 90 -86h-522v16q56 0 96 70q39 70 39 172v873q0 102 -39 172q-40 69 -96 69v16h516q-48 -22 -84 -85q-39 -70 -39 -172
v-873zM735 694q69 18 120 48q70 40 70 95h16v-285h-16q0 56 -70 95q-51 29 -120 47z" />
    <glyph glyph-name="F" unicode="F" horiz-adv-x="1196" 
d="M813 1388h265l38 -265h-16q-18 93 -111 171q-85 71 -176 94zM393 258q0 -102 39 -172q40 -70 95 -70v-16h-527v16q56 0 96 70q39 70 39 172v873q0 102 -39 172q-40 69 -96 69v16h517q-49 -22 -85 -85q-39 -70 -39 -172v-873zM829 627q69 18 120 48q70 40 70 95h16v-286
h-16q0 56 -70 96q-51 29 -120 47z" />
    <glyph glyph-name="G" unicode="G" horiz-adv-x="1518" 
d="M725 1407q141 -1 257 -45q120 -45 207 -121q86 -76 138 -174l-207 -211h-4q-42 226 -142 368q-100 159 -249 183zM802 -9q46 12 88 40q70 47 113 117q42 71 42 168q0 102 -39 172q-40 70 -96 70v16h528v-16q-55 0 -95 -70t-40 -172v-313h-16l-6 13q-6 12 -20 29
q-15 16 -39 29q-24 12 -59 12q-37 0 -72 -10q-34 -11 -71 -26q-53 -23 -125 -43q-40 -11 -93 -16zM573 1397q-52 -16 -100 -49q-91 -63 -146 -177t-55 -299q0 -160 28 -315q28 -154 86 -279q57 -124 144 -210q68 -66 153 -81q-203 6 -352 96q-159 96 -245 257t-86 357
q0 197 86 357q86 161 245 257q107 65 242 86z" />
    <glyph glyph-name="H" unicode="H" horiz-adv-x="1500" 
d="M1420 0h-527v16q56 0 95 70q40 70 40 172v428h-635v-428q0 -102 39 -172t96 -70v-16h-528v16q56 0 95 70q40 70 40 172v873q0 102 -40 172q-39 69 -95 69v16h528v-16q-57 0 -96 -69q-39 -70 -39 -172v-429h635v429q0 102 -40 172q-39 69 -95 69v16h527v-16q-55 0 -95 -69
q-40 -70 -40 -172v-873q0 -102 40 -172t95 -70v-16z" />
    <glyph glyph-name="I" unicode="I" horiz-adv-x="607" 
d="M527 0h-527v16q56 0 95 70q40 70 40 172v873q0 102 -40 172q-39 69 -95 69v16h527v-16q-55 0 -95 -69q-39 -70 -39 -172v-873q0 -102 39 -172q40 -70 95 -70v-16z" />
    <glyph glyph-name="J" unicode="J" horiz-adv-x="609" 
d="M-38 -258v16q65 0 102 48q39 48 56 127t17 173v1025q0 102 -40 172q-39 69 -95 69v16h527v-16q-55 0 -95 -69q-40 -70 -40 -172v-962q0 -142 -59 -237t-158 -142q-98 -48 -215 -48z" />
    <glyph glyph-name="K" unicode="K" horiz-adv-x="1445" 
d="M855 1112q69 99 69 166q0 38 -24 66t-65 28v16h418v-16q-70 0 -173 -66q-102 -66 -207 -175zM393 258q0 -102 40 -172t95 -70v-16h-528v16q56 0 96 70q39 70 39 172v873q0 102 -39 172q-40 69 -96 69v16h528v-16q-55 0 -95 -69q-40 -70 -40 -172v-873zM465 702l182 192
l415 -636q69 -106 153 -174t150 -68v-16h-578v16q47 0 47 48q0 9 -6 49q-6 39 -74 145z" />
    <glyph glyph-name="L" unicode="L" horiz-adv-x="1250" 
d="M517 0h-517v16q56 0 96 70q39 70 39 172v873q0 102 -39 172q-40 69 -96 69v16h527v-16q-55 0 -94 -69q-40 -70 -40 -172v-874q1 -104 40 -172q36 -63 84 -85zM865 0q92 23 177 98q93 82 112 188h16l-40 -286h-265z" />
    <glyph glyph-name="M" unicode="M" horiz-adv-x="1754" 
d="M145 232q11 -85 46 -146q40 -70 95 -70v-16h-286v16q56 0 96 70q39 70 49 136v10zM1281 1228l75 160h318v-16q-55 0 -95 -70t-40 -172v-872q0 -102 40 -172t95 -70v-16h-528v16q56 0 96 70q39 70 39 172v970zM861 294l-137 -294h-16l-607 1292q-41 80 -101 80v16h347
l506 -1076z" />
    <glyph glyph-name="N" unicode="N" horiz-adv-x="1405" 
d="M143 240q11 -90 48 -154q40 -70 95 -70v-16h-286v16q56 0 96 70q36 64 47 154zM88 1318q-38 54 -88 54v16h379l795 -982l13 -17l3 -389h-32zM1182 1149q-11 90 -47 154q-40 69 -96 69v16h286v-16q-55 0 -95 -69q-37 -64 -48 -154z" />
    <glyph glyph-name="O" unicode="O" horiz-adv-x="1500" 
d="M749 1403q196 -8 340 -95q159 -96 245 -257q86 -160 86 -357q0 -196 -86 -357t-245 -257q-89 -54 -197 -77q254 92 254 525q0 101 -13 220t-45 236q-32 116 -86 213q-55 96 -136 155q-51 38 -117 51zM671 -15q-195 8 -340 95q-159 96 -245 257t-86 357q0 197 86 357
q86 161 245 257q93 56 206 79q-33 -12 -64 -30q-91 -55 -146 -173q-55 -119 -55 -308q0 -108 14 -231t47 -240q32 -118 86 -214q54 -97 134 -155q53 -38 118 -51z" />
    <glyph glyph-name="P" unicode="P" horiz-adv-x="1250" 
d="M393 258q0 -102 40 -172t95 -70v-16h-528v16q56 0 96 70q39 70 39 172v873q0 102 -39 172q-40 69 -96 69v16h500q-39 -14 -67 -68q-40 -73 -40 -180v-882zM682 1388h44q200 0 322 -117t122 -327t-121 -327q-115 -111 -302 -117q147 27 147 261q0 227 -48 402
q-54 197 -164 225z" />
    <glyph glyph-name="Q" unicode="Q" horiz-adv-x="1719" 
d="M739 -20q-122 -30 -252 -105q119 43 222 43q132 0 222 -17q89 -17 163 -38q65 -18 132 -31q67 -14 154 -14q65 0 111 18q46 17 76 40q29 23 43 39l14 17l15 -6l-3 -31q-2 -31 -14 -78q-12 -46 -39 -92q-28 -46 -77 -77q-49 -32 -126 -32q-85 3 -172 30t-176 62
q-94 38 -192 68q-97 30 -201 35q-132 0 -207 -12t-106 -24l-31 -12h-1v-1l-6 15l73 46q70 47 149 90q78 44 165 71q-318 19 -496 221q-179 202 -179 488q0 197 86 358t245 257q87 51 191 75q-27 -11 -53 -26q-91 -55 -146 -172t-55 -308q0 -109 14 -232q14 -122 47 -239
q32 -118 86 -214t134 -154q81 -58 190 -58zM750 1402q195 -8 340 -94q159 -96 245 -257q85 -161 85 -358q0 -283 -175 -484q-143 -163 -374 -209q271 83 271 528q0 101 -13 220t-45 236q-32 116 -86 213q-55 96 -136 155q-49 36 -112 50z" />
    <glyph glyph-name="R" unicode="R" horiz-adv-x="1394" 
d="M720 1388h77q107 0 203 -45q98 -46 159 -132q61 -85 61 -207q0 -168 -99 -275t-264 -127q125 -27 191 -91t95 -145t44 -158q11 -54 25 -97q13 -43 37 -69q23 -26 65 -26v-16h-208q-84 0 -132 31q-49 31 -73 82q-25 51 -34 113q-10 62 -15 123q-4 67 -15 124
q-10 56 -37 91q-21 27 -58 33q89 11 138 72q59 73 59 229q0 182 -57 322t-162 168zM393 258q0 -102 39 -172q40 -70 95 -70v-16h-527v16q56 0 96 70q39 70 39 172v873q0 102 -39 172q-40 69 -96 69v16h494q-35 -16 -62 -66q-39 -74 -39 -182v-882z" />
    <glyph glyph-name="S" unicode="S" horiz-adv-x="1137" 
d="M558 1404q258 0 453 -159l-211 -211l-7 36q-7 37 -25 89q-19 53 -51 105t-80 98q-34 33 -79 42zM499 -16q-152 1 -266 35q-118 35 -233 108l210 211l12 -35q11 -34 36 -84t64 -100q38 -50 93 -94q38 -32 84 -41zM441 1397q-35 -11 -62 -32q-55 -43 -80 -99
q-26 -56 -26 -122q0 -87 51 -146t132 -103q81 -43 175 -84q78 -33 154 -71q75 -39 137 -88q61 -49 98 -117q37 -67 37 -160q0 -106 -59 -195q-60 -89 -181 -142q-86 -39 -203 -49q70 18 120 73q73 82 73 199q0 80 -49 135t-126 97q-78 41 -168 79q-78 33 -153 71
q-75 37 -136 86t-99 116q-37 67 -37 160q0 194 141 297q104 75 261 95z" />
    <glyph glyph-name="T" unicode="T" horiz-adv-x="1338" 
d="M305 1388q-92 -23 -176 -98q-94 -82 -113 -187h-16l40 285h265zM883 1388q-50 -22 -85 -85q-40 -70 -40 -172v-873q0 -102 40 -172t95 -70v-16h-528v16q56 0 96 70q39 69 39 171v874q0 102 -39 172q-36 63 -86 85h508zM952 1388h266l40 -285h-16q-19 105 -113 187
q-85 75 -177 98z" />
    <glyph glyph-name="U" unicode="U" horiz-adv-x="1385" 
d="M1162 1149q-11 90 -47 154q-39 69 -95 69v16h285v-16q-55 0 -95 -69q-37 -64 -48 -154zM978 68q-111 -84 -281 -84q-184 0 -310 57q-125 57 -188 183q-64 125 -64 330v577q0 102 -39 172q-40 69 -96 69v16h528v-16q-55 0 -95 -69q-40 -70 -40 -172v-577q0 -169 38 -289
q37 -120 119 -193q83 -74 216 -74q113 0 212 70z" />
    <glyph glyph-name="V" unicode="V" horiz-adv-x="1468" 
d="M1143 1141q5 40 5 74q0 50 -36 103q-36 54 -92 54v16h368v-16q-55 0 -125 -69q-67 -66 -120 -162zM816 317q-29 -72 -61 -148q-34 -82 -69 -169h-15l-463 1131q-43 103 -103 172t-105 69v16h565v-16q-55 0 -83 -81q-11 -33 -11 -71q0 -54 23 -116z" />
    <glyph glyph-name="W" unicode="W" horiz-adv-x="2127" 
d="M1821 1137q6 31 6 61q0 11 -3 37q-1 26 -27 82q-26 55 -82 55v16h332v-16q-58 0 -118 -66q-60 -67 -108 -169zM634 0h-17l-398 1131q-38 107 -98 174q-61 67 -121 67v16h588v-16q-55 0 -90 -75q-16 -35 -16 -82q0 -49 19 -112l261 -741zM1430 0h-20q-414 1177 -444 1234
q-30 56 -73 97t-100 41v16h591v-16q-55 0 -90 -75q-16 -34 -16 -81q0 -49 20 -113l252 -716z" />
    <glyph glyph-name="X" unicode="X" horiz-adv-x="1468" 
d="M310 255q-21 -54 -21 -104q0 -30 21 -82q21 -53 81 -53v-16h-391v16q62 0 144 67q82 65 166 172zM1122 257q59 -100 135 -171q76 -70 131 -70v-16h-645v16q56 0 89 75q14 31 14 65q0 48 -28 102l-500 873q-58 101 -135 171q-76 70 -132 70v16h646v-16q-55 0 -89 -75
q-14 -30 -14 -65q0 -48 28 -101zM1030 1137q18 54 18 100q0 30 -21 83q-20 52 -82 52v16h392v-16q-61 0 -144 -66q-81 -65 -163 -169z" />
    <glyph glyph-name="Y" unicode="Y" horiz-adv-x="1468" 
d="M1098 1152q11 39 11 76q0 35 -25 90q-25 54 -87 54v16h391v-16q-60 0 -139 -66q-71 -61 -151 -154zM823 685v-427q0 -102 40 -172t95 -70v-16h-528v16q56 0 96 70q39 70 39 172v348l-311 546q-59 94 -130 157t-124 63v16h645v-16q-55 0 -89 -75q-14 -31 -14 -66
q0 -46 27 -101z" />
    <glyph glyph-name="Z" unicode="Z" horiz-adv-x="1230" 
d="M313 1388q-93 -32 -168 -98q-94 -82 -113 -187h-16l40 285h257zM845 0q92 23 177 98q94 82 112 188h16l-40 -286h-265zM825 1388h309v-16l-831 -1372h-303v16z" />
    <glyph glyph-name="bracketleft" unicode="[" horiz-adv-x="596" 
d="M516 -138h-516v1666h516v-16h-258v-1634h258v-16z" />
    <glyph glyph-name="backslash" unicode="\" horiz-adv-x="1046" 
d="M952 -154l-952 1658l174 8l952 -1658z" />
    <glyph glyph-name="bracketright" unicode="]" horiz-adv-x="595" 
d="M516 -138h-516v16h258v1634h-258v16h516v-1666z" />
    <glyph glyph-name="asciicircum" unicode="^" horiz-adv-x="799" 
d="M533 1237h-2l-171 261l-172 -261h-2l-186 109l333 193h53l333 -193z" />
    <glyph glyph-name="underscore" unicode="_" horiz-adv-x="1072" 
d="M992 -173h-992v176h992v-176z" />
    <glyph glyph-name="grave" unicode="`" horiz-adv-x="467" 
d="M360 1233l-360 209l186 108h2l199 -303z" />
    <glyph glyph-name="a" unicode="a" horiz-adv-x="1083" 
d="M242 629h-2l-205 189q88 97 191 143q83 37 189 44q-66 -23 -112 -142q-47 -103 -61 -234zM879 -17q-178 0 -225 121q-3 31 -4 385l-1 1q-2 173 -44 321q-44 171 -128 196q143 -2 237 -65q98 -65 146 -175t48 -244v-266q0 -109 21 -175q20 -66 74 -66v-16
q-65 -17 -124 -17zM337 -16q-109 0 -184 39t-114 105q-39 67 -39 146q0 108 47 178t126 104q81 33 181 33q99 0 164 -23l12 -5q-32 8 -76 8q-172 -30 -180 -279q0 -106 53 -177q53 -70 126 -106q14 -5 27 -5q14 0 19 1q-57 -19 -162 -19z" />
    <glyph glyph-name="b" unicode="b" horiz-adv-x="1187" 
d="M511 977q66 30 153 30q188 0 315 -146q128 -145 128 -363q0 -145 -65 -261q-65 -117 -170 -185q-80 -51 -170 -64q20 6 38 17q50 27 80 91t30 172q0 263 -57 459q-75 257 -243 257q-19 0 -39 -7zM421 75q-14 8 -29 15q-41 18 -94 18q-48 0 -97 -30q-50 -30 -50 -78h-16
v1130q0 104 -39 173q-40 69 -96 69v16l377 32h16v-1235q0 -66 28 -110z" />
    <glyph glyph-name="c" unicode="c" horiz-adv-x="1014" 
d="M516 1007q107 0 186 -32q81 -33 139 -88q57 -55 93 -125l-218 -127h-3q-13 125 -65 228q-52 122 -132 144zM411 999q-59 -24 -95 -94q-56 -107 -56 -283q0 -163 38 -297q37 -135 113 -215t193 -80q92 0 174 52q82 51 125 129l14 -10q-36 -60 -87 -109t-128 -78
q-77 -30 -190 -30q-159 0 -273 69q-115 69 -177 185t-62 258q0 141 62 257t177 185q76 46 172 61z" />
    <glyph glyph-name="d" unicode="d" horiz-adv-x="1052" 
d="M526 -9q-29 -7 -62 -7q-151 0 -254 69q-104 69 -157 185t-53 258q0 219 130 365q131 146 327 146h5q-87 -11 -142 -82q-65 -83 -65 -226q0 -288 60 -482q71 -226 210 -226h1zM714 1130q0 104 -39 173q-40 69 -96 69v16l377 32h16v-1420h-16q0 42 -37 76q-38 33 -98 33
q-49 0 -90 -18q-33 -15 -64 -33q8 9 15 19q32 46 32 119v934z" />
    <glyph glyph-name="e" unicode="e" horiz-adv-x="1043" 
d="M515 1007q124 -1 218 -58q95 -58 154 -150q59 -91 76 -195l-690 -160q17 -121 59 -214t110 -146q68 -54 162 -54q92 0 185 52q92 51 136 129l14 -10q-128 -217 -427 -217q-159 0 -273 69q-115 69 -177 185t-62 258q0 141 62 257t177 185q74 45 169 61q-57 -24 -92 -87
q-56 -101 -56 -284q0 -85 10 -165l445 107q-19 173 -71 294q-51 121 -129 143z" />
    <glyph glyph-name="f" unicode="f" horiz-adv-x="968" 
d="M549 1403q79 -3 139 -31q67 -33 115 -88t85 -125l-219 -128h-2l-6 57q-5 66 -16 135q-11 68 -38 126q-21 44 -58 54zM498 1403q-74 -23 -95 -193q-10 -80 -10 -218h291v-16h-291v-719q0 -102 40 -171q40 -70 95 -70v-16h-528v16q56 0 96 70q39 70 39 172v718h-135v16h135
v-14q4 213 115 320q102 98 248 105z" />
    <glyph glyph-name="g" unicode="g" horiz-adv-x="1050" 
d="M457 -396q-120 3 -216 27q-116 27 -241 100l156 142h3q23 -60 75 -118q51 -58 122 -107q48 -33 101 -44zM498 1008q52 -1 100 -11l-1 18q0 114 70 200t176 142l127 -219v-3q-139 -14 -225 -38q-128 -36 -128 -104q155 -37 246 -147q92 -108 92 -257q0 -118 -64 -217
q-64 -100 -173 -159q-62 -34 -133 -49q37 15 68 47q58 62 58 198q0 224 -47 386q-53 185 -166 213zM585 -394q58 12 97 42q63 49 63 89q0 32 -35 48q-35 15 -92 21t-124 9l-77 5q-84 5 -158 24q-75 20 -123 70q-48 49 -48 146q0 42 18 78q17 35 39 62q21 26 37 40
q-83 57 -131 143t-48 189q0 119 67 217q68 99 177 159q56 31 118 46q-39 -20 -65 -58q-52 -78 -52 -195q0 -235 54 -395q59 -172 174 -193h-4q-156 0 -273 75q-22 -19 -22 -49q0 -28 43 -43q64 -21 265 -29l88 -5q182 -8 274 -46q123 -50 123 -179q0 -136 -151 -210
q-102 -49 -234 -61z" />
    <glyph glyph-name="h" unicode="h" horiz-adv-x="1306" 
d="M528 0h-528v16q56 0 96 70q39 70 39 172v872q0 104 -39 173q-40 69 -96 69v16q15 1 30 3q347 29 363 29v-1162q0 -102 40 -172t95 -70v-16zM1226 0h-527v16q56 0 95 70q40 70 40 172v116q-9 228 -58 380q-61 223 -192 223q41 12 108 12q113 0 202 -59q92 -59 144 -173
q53 -115 53 -255v-244q0 -102 40 -172t95 -70v-16z" />
    <glyph glyph-name="i" unicode="i" horiz-adv-x="607" 
d="M250 1154q-58 0 -101 42q-42 43 -42 101q0 59 42 101q43 42 101 42q59 0 101 -42t42 -101q0 -58 -42 -101q-42 -42 -101 -42zM527 0h-527v16q56 0 96 70q39 70 39 172v476q0 102 -39 172q-40 70 -96 70v16q377 51 393 51v-785q0 -102 40 -172q39 -70 94 -70v-16z" />
    <glyph glyph-name="j" unicode="j" horiz-adv-x="825" 
d="M372 -396q116 41 116 363v766q0 104 -39 173q-40 69 -96 69v16q17 1 33 3q345 29 359 29v-993q0 -142 -59 -237t-149 -142q-81 -43 -165 -47zM603 1154q-58 0 -101 42q-42 43 -42 101q0 59 42 101q43 41 101 41q59 0 101 -41q41 -42 41 -101q0 -58 -41 -101
q-42 -42 -101 -42zM326 -396q-203 13 -326 244l219 128h2l6 -57q5 -67 16 -135q10 -69 35 -127q18 -41 48 -53z" />
    <glyph glyph-name="k" unicode="k" horiz-adv-x="1306" 
d="M393 258q0 -102 40 -172t95 -70v-16h-528v16q56 0 96 70q39 70 39 172v872q0 104 -39 173q-40 69 -96 69v16l377 32h16v-1162zM640 694l302 -436q72 -98 155 -170t129 -72v-16h-624v16q62 0 61 92q0 81 -62 178l-162 231zM701 758q46 61 46 146q0 72 -58 72v16h422v-16
q-58 0 -197 -85q-135 -82 -213 -133z" />
    <glyph glyph-name="l" unicode="l" horiz-adv-x="607" 
d="M527 0h-527v16q56 0 95 69q40 70 40 172v873q0 102 -40 172q-39 70 -95 70v16l377 32h16v-1163q0 -102 39 -172q40 -69 95 -69v-16z" />
    <glyph glyph-name="m" unicode="m" horiz-adv-x="1979" 
d="M393 258q0 -102 40 -172t95 -70v-16h-528v16q56 0 96 70q39 70 39 172v476q0 102 -39 172q-40 70 -96 70v16l377 31h16v-765zM1282 997q47 11 101 11q180 0 281 -133q100 -134 100 -401v-216q0 -102 40 -172t95 -70v-16h-528v16q56 0 95 69q38 68 40 172v179
q0 140 -17 255q-18 116 -64 211q-47 95 -133 95h-10zM610 996q47 12 101 12q116 0 199 -52t126 -135l14 -28q28 -66 28 -137v-398q0 -102 40 -172t95 -70v-16h-528v16q56 0 96 70q39 69 39 171v253q0 206 -58 346q-53 128 -152 140z" />
    <glyph glyph-name="n" unicode="n" horiz-adv-x="1306" 
d="M393 258q0 -102 40 -172q39 -70 94 -70v-16h-527v16q56 0 96 70q39 70 39 172v476q0 102 -39 172q-40 70 -96 70v16l377 31h16v-765zM537 979h1l0.5 0.5l0.5 0.5q55 28 127 28q128 0 223 -68q96 -69 149 -183q53 -115 53 -255v-244q0 -102 40 -172t95 -70v-16h-528v16
q56 0 96 70q39 70 39 172v116q-7 227 -57 380q-62 233 -188 233q-27 0 -51 -8z" />
    <glyph glyph-name="o" unicode="o" horiz-adv-x="1103" 
d="M528 1007q135 -4 245 -69q116 -69 183 -185t67 -257q0 -142 -67 -258t-183 -185q-63 -37 -133 -54q11 5 21 12q48 33 77 101q29 67 29 172q0 80 -7 177t-27 194q-20 96 -53 178q-33 81 -82 131q-31 31 -70 43zM506 -16q-141 2 -255 69q-115 69 -183 185t-68 258
q0 141 69 257t185 185q58 35 124 52q-15 -8 -27 -19q-49 -43 -72 -116t-23 -165q0 -270 66 -472t184 -234z" />
    <glyph glyph-name="p" unicode="p" horiz-adv-x="1187" 
d="M393 -139q0 -102 40 -172t95 -70v-16h-528v16q56 0 96 70q39 70 39 172v872q0 104 -39 173q-40 69 -96 69v16l377 32h16v-1162zM532 986q59 21 132 21q188 0 315 -146q128 -145 128 -363q0 -145 -65 -261q-65 -117 -170 -185q-93 -59 -196 -67q34 8 65 24q49 28 80 92
q30 63 30 171q0 263 -58 458q-75 257 -243 257q-9 0 -18 -1z" />
    <glyph glyph-name="q" unicode="q" horiz-adv-x="1187" 
d="M1107 -397h-528v16q56 0 96 70q39 70 39 172v1162q16 0 363 -29q15 -2 30 -3v-16q-55 0 -95 -69t-40 -173v-872q0 -102 40 -172t95 -70v-16zM464 -16q-151 0 -254 69q-104 69 -157 185t-53 257q0 221 130 366q131 146 327 146q20 0 38 -2q-109 0 -174 -84t-65 -225
q0 -286 59 -480q71 -224 210 -224h7q-32 -8 -68 -8z" />
    <glyph glyph-name="r" unicode="r" horiz-adv-x="1094" 
d="M517 950q21 15 45 28q59 30 129 30q50 0 104 -12q56 -13 111 -49q56 -36 108 -105l-218 -128h-3q-81 249 -209 249q-37 0 -67 -13zM393 258q0 -102 40 -172t95 -70v-16h-528v16q56 0 96 70q39 70 39 172v476q0 102 -39 172q-40 70 -96 70v16l377 31h16v-765z" />
    <glyph glyph-name="s" unicode="s" horiz-adv-x="939" 
d="M463 1006q113 -5 209 -56q108 -58 171 -160l-208 -128h-3q-12 67 -41 143q-29 75 -74 146q-25 38 -54 55zM395 -15q-124 8 -220 57q-112 59 -175 159l207 128h2q24 -120 78 -212q47 -100 108 -132zM345 1001q-17 -14 -32 -37q-36 -57 -36 -119q0 -63 38 -106
q37 -43 97 -76q59 -33 127 -64q79 -35 152 -77q72 -42 120 -103t48 -153q0 -88 -59 -151t-155 -97q-53 -19 -112 -27q21 14 38 36q42 56 42 123q0 57 -37 98t-95 72q-59 32 -127 62q-81 35 -156 78q-76 42 -125 104q-50 62 -50 156q0 89 56 154t150 99q55 19 116 28z" />
    <glyph glyph-name="t" unicode="t" horiz-adv-x="759" 
d="M511 -7q-38 -9 -80 -9q-73 0 -142 28q-67 27 -111 101q-43 74 -43 212v651h-135v16q107 0 179 39t116 90q44 50 63 89l19 39h16v-257h291v-16h-291v-718q0 -114 37 -189q33 -70 81 -76z" />
    <glyph glyph-name="u" unicode="u" horiz-adv-x="1239" 
d="M636 -5q-42 -11 -92 -11q-106 0 -199 55q-94 54 -152 174t-58 318v203q0 102 -39 172q-40 70 -96 70v16l377 31h16v-383q0 -190 23 -323q22 -133 76 -227q53 -94 144 -95zM805 734q0 102 -39 172t-95 70v16q377 31 392 31v-764q0 -111 21 -176q20 -66 75 -66v-16
q-67 -17 -126 -17q-187 0 -228 125v625z" />
    <glyph glyph-name="v" unicode="v" horiz-adv-x="1155" 
d="M842 718q11 55 11 104q0 38 -20 96q-19 58 -78 58v16h320v-16q-46 0 -109 -69q-63 -70 -118 -173zM683 322l-137 -322h-17l-312 734q-46 104 -108 173t-109 69v16h593v-16q-58 0 -86 -82q-12 -34 -12 -72q0 -54 24 -116z" />
    <glyph glyph-name="w" unicode="w" horiz-adv-x="1735" 
d="M630 323l-126 -323h-17l-287 733q-42 104 -99 173t-101 69v16h547v-16q-54 0 -80 -81q-10 -32 -10 -70q0 -55 22 -118l143 -364zM814 834q-86 141 -151 141v16h547v-16q-54 0 -79 -81q-11 -34 -11 -72q0 -54 22 -116l143 -364l6 -15l-124 -327h-16l-288 733
q-16 45 -39 83zM1439 718q11 57 11 105q0 38 -18 95q-19 57 -73 57v16h296v-16q-43 0 -101 -69t-109 -173z" />
    <glyph glyph-name="x" unicode="x" horiz-adv-x="1182" 
d="M848 258q59 -100 134 -171q74 -71 120 -71v-16h-597v16q59 0 72 83q3 17 3 35q0 71 -44 152l-241 420q-60 102 -142 186t-129 84v16h598v-16q-79 0 -79 -110q0 -73 48 -160zM310 222q-8 -26 -8 -83q0 -22 16 -73q15 -50 76 -50v-16h-394v16q62 0 156 73q94 72 154 133z
M794 751q29 61 29 134q0 8 -3 49q-3 42 -65 42v16h331v-16q-58 0 -150 -83q-91 -84 -142 -142z" />
    <glyph glyph-name="y" unicode="y" horiz-adv-x="1155" 
d="M839 711q13 60 13 112q0 38 -19 95t-78 57v16h320v-16q-46 0 -109 -69t-118 -173zM528 0l-312 734q-45 103 -107 172t-109 69v16h593v-16q-58 0 -86 -82q-12 -33 -12 -71q0 -54 24 -116l155 -364l9 -20l-147 -345zM290 -397h-12q-114 0 -199 70q-86 69 -142 175l218 128
h3l1 -10q13 -130 38 -220q32 -135 93 -143z" />
    <glyph glyph-name="z" unicode="z" horiz-adv-x="1036" 
d="M338 992q-108 -23 -193 -98q-94 -83 -113 -188h-16l40 286h282zM634 0q108 23 194 98q93 82 113 188h15l-40 -286h-282zM646 992h295v-16l-647 -976h-294v16z" />
    <glyph glyph-name="braceleft" unicode="{" horiz-adv-x="639" 
d="M559 -138h-169q-96 0 -149 24t-76 74t-28 128t-5 187l1 114q0 125 -9 212q-10 86 -67 86h-57v16h57q57 0 68 101q8 73 8 197l-1 114q0 110 5 187q5 78 28 128t76 74t149 24h169v-16h-84q-43 0 -60 -39q-18 -39 -21 -126q-4 -86 -4 -232q0 -126 -7 -214t-41 -139
q-35 -51 -116 -67q81 -16 116 -67q34 -51 41 -139t7 -214q0 -145 4 -232q3 -88 21 -126q17 -39 60 -39h84v-16z" />
    <glyph glyph-name="bar" unicode="|" horiz-adv-x="96" 
d="M16 0h-16v1388h16v-1388z" />
    <glyph glyph-name="braceright" unicode="}" horiz-adv-x="639" 
d="M0 -138v16h84q44 0 61 39q17 38 21 126q3 87 3 232q0 126 7 214q8 88 42 139t115 67q-81 16 -115 67t-42 139q-7 88 -7 214q0 146 -3 232q-4 87 -21 126t-61 39h-84v16h169q96 0 149 -24t76 -74t28 -128q5 -77 5 -187l-1 -114q0 -124 8 -197q11 -101 68 -101h57v-16h-57
q-57 0 -67 -86q-9 -87 -9 -212l1 -114q0 -109 -5 -187t-28 -128t-76 -74t-149 -24h-169z" />
    <glyph glyph-name="asciitilde" unicode="~" horiz-adv-x="1413" 
d="M934 458q-57 0 -103 23q-69 36 -163 136q-40 43 -81 80q-90 81 -186 81q-82 0 -154 -48q-70 -47 -123 -109q-52 -62 -81 -111l-29 -48l-14 7l29 50q67 111 163 190q103 85 209 85q60 0 108 -24t88 -61q42 -36 79 -77q38 -41 77 -77t83 -58q44 -23 98 -23q81 0 151 48
q69 47 122 109t83 111l29 48l14 -8l-30 -49q-30 -49 -84 -112q-53 -63 -126 -113t-159 -50z" />
    <glyph glyph-name="exclamdown" unicode="&#xa1;" horiz-adv-x="421" 
d="M179 1089l162 -1111h-341l163 1111h16zM171 1390q53 0 91 -38q38 -37 38 -91q0 -52 -38 -91q-38 -38 -91 -38q-54 0 -91 38q-38 39 -38 91q0 54 38 91q37 38 91 38z" />
    <glyph glyph-name="cent" unicode="&#xa2;" horiz-adv-x="1014" 
d="M507 1223h5q110 0 190 -32q81 -33 139 -88q57 -56 93 -125l-218 -128h-3q-4 52 -21 112q-37 142 -114 209q-30 40 -71 52zM459 1405h16v-1127q57 -32 129 -32q92 0 175 51q82 51 125 129l13 -9q-35 -61 -86 -110q-52 -49 -129 -78q-77 -30 -190 -30q-19 0 -37 2v-184h-16
v185q-216 22 -337 166q-122 144 -122 343q0 200 122 344q114 135 312 162q-79 -33 -123 -116q-50 -96 -50 -264q0 -186 49 -333q49 -148 149 -216v1117z" />
    <glyph glyph-name="sterling" unicode="&#xa3;" horiz-adv-x="1148" 
d="M586 1400q125 -2 220 -56q99 -56 177 -146l-211 -211l-3 41q-3 41 -14 99q-12 59 -36 118q-24 58 -64 109q-30 36 -69 46zM508 1397q-32 -10 -53 -37q-38 -43 -55 -99q-18 -56 -18 -121q0 -94 14 -160q13 -66 29 -121q21 -68 31 -142h337v-16h-335q1 -21 1 -45
q0 -73 -43 -141q-43 -69 -101 -140q-37 -46 -73 -96q94 63 182 63q93 0 215 -43q101 -34 203 -42q84 0 141 37q57 36 71 87l14 -6q0 -22 -22 -135q-13 -67 -40 -125q-60 -131 -203 -131q-61 0 -122 17q-60 16 -119 37q-109 44 -215 51h-14q-97 0 -198 -90v-4h-16v4
q0 135 28 222q25 80 55 135q24 44 41 91q16 47 16 114q0 68 -31 140h-228v16h222q-7 23 -18 47q-25 64 -48 136q-23 73 -23 155q0 153 124 249q101 80 251 93z" />
    <glyph glyph-name="currency" unicode="&#xa4;" 
 />
    <glyph glyph-name="yen" unicode="&#xa5;" horiz-adv-x="1468" 
d="M1093 1133q16 50 16 95q0 35 -25 90q-25 54 -87 54v16h391v-16q-60 0 -139 -66q-78 -66 -156 -173zM823 686v-175h377v-16h-377v-81h376v-16h-376v-140q0 -102 40 -172t95 -70v-16h-528v16q56 0 96 70q39 70 39 172v140h-358v16h358v81h-357v16h357v95l-311 546
q-59 94 -130 157t-124 63v16h645v-16q-55 0 -89 -75q-14 -31 -14 -66q0 -46 27 -101l245 -428z" />
    <glyph glyph-name="brokenbar" unicode="&#xa6;" 
 />
    <glyph glyph-name="section" unicode="&#xa7;" horiz-adv-x="939" 
d="M435 -150q-148 0 -260 58q-112 59 -175 159l207 128h2q24 -120 78 -212q69 -117 169 -117q74 0 115 41q41 42 41 109q0 57 -36 98q-37 41 -95 72q-59 32 -127 62q-81 35 -157 77q-74 44 -125 105q-49 62 -49 156q0 84 50 145q49 63 133 98q84 36 189 43l-41 19
q-81 35 -157 78q-74 42 -125 104q-49 62 -49 155q0 90 56 154q56 65 150 99q95 35 207 35q128 0 236 -58q108 -57 171 -159l-208 -128h-3q-12 67 -41 142q-29 77 -75 132q-45 55 -108 55q-58 0 -95 -42q-36 -44 -36 -104q0 -63 37 -106t97 -76q59 -33 128 -64
q79 -35 151 -77q73 -42 121 -103q48 -60 48 -153q0 -82 -52 -143t-138 -96q-86 -36 -192 -42l62 -29q79 -35 152 -77q72 -42 120 -103t48 -153q0 -88 -59 -151t-155 -97t-210 -34zM456 509q74 0 115 41q41 42 41 109q0 71 -53 116q-54 46 -133 83h-18q-58 0 -95 -43
q-36 -42 -36 -104q0 -72 49 -119q48 -47 122 -83h8z" />
    <glyph glyph-name="dieresis" unicode="&#xa8;" horiz-adv-x="574" 
d="M119 1303q-49 0 -84 35t-35 84q0 50 35 84q35 35 84 35q50 0 84 -35q35 -34 35 -84q0 -49 -35 -84q-34 -35 -84 -35zM375 1303q-49 0 -84 35t-35 84q0 50 35 84q35 35 84 35q50 0 84 -35q35 -34 35 -84q0 -49 -35 -84q-34 -35 -84 -35z" />
    <glyph glyph-name="copyright" unicode="&#xa9;" horiz-adv-x="1500" 
d="M710 1q-196 0 -357 96t-257 257t-96 357q0 197 96 357q96 162 257 257q161 96 357 96q197 0 357 -96q162 -95 257 -257q96 -160 96 -357q0 -196 -96 -357q-95 -161 -257 -257q-160 -96 -357 -96zM710 17q192 0 349 94q158 93 252 251q93 157 93 349t-93 349
q-94 158 -252 252q-157 93 -349 93t-349 -93q-158 -94 -251 -252q-94 -157 -94 -349t94 -349q93 -158 251 -251q157 -94 349 -94zM751 239q-147 0 -252 64q-106 63 -163 171q-57 107 -57 237q0 131 57 238t163 170q105 64 252 64q101 0 175 -30q75 -30 128 -81t87 -115
l-202 -118h-2q-12 117 -60 211q-60 118 -156 118q-100 0 -151 -89t-51 -251q0 -151 35 -275q34 -123 104 -197t178 -74q86 0 161 47q75 48 116 119l12 -8q-33 -56 -80 -102q-48 -45 -118 -72q-71 -27 -176 -27z" />
    <glyph glyph-name="ordfeminine" unicode="&#xaa;" 
 />
    <glyph glyph-name="guillemotleft" unicode="&#xab;" horiz-adv-x="836" 
d="M476 270l-476 298v197l476 298v-16l-335 -381l335 -380v-16zM756 270l-476 298v197l476 298v-16l-335 -381l335 -380v-16z" />
    <glyph glyph-name="logicalnot" unicode="&#xac;" 
 />
    <glyph glyph-name="registered" unicode="&#xae;" horiz-adv-x="826" 
d="M373 675q-154 0 -264 110q-109 109 -109 263q0 155 109 264q110 109 264 109q155 0 264 -109t109 -264q0 -154 -109 -263q-109 -110 -264 -110zM373 691q149 0 252 105q105 105 105 252q0 149 -105 253q-103 104 -252 104q-148 0 -253 -104q-104 -104 -104 -253
q0 -147 104 -252q105 -105 253 -105zM598 810h-83q-40 0 -58 19q-17 20 -22 48q-5 29 -5 60q-1 31 -6 55t-31 24h-86v-117q0 -36 14 -59q14 -24 33 -24v-6h-206v6q18 0 32 24q14 23 14 59v299q0 35 -14 59t-32 24v5h273q54 0 100 -35q45 -34 45 -97q0 -112 -122 -137
q74 -15 96 -58q21 -42 24 -84q3 -25 9 -42q7 -17 25 -17v-6zM373 1021q30 0 51 24t21 75q0 35 -5 72q-6 38 -21 63q-16 26 -48 26h-17q-46 0 -47 -83v-177h66z" />
    <glyph glyph-name="macron" unicode="&#xaf;" horiz-adv-x="579" 
d="M499 1378h-499v16h499v-16z" />
    <glyph glyph-name="degree" unicode="&#xb0;" horiz-adv-x="334" 
d="M127 1288q-52 0 -90 37q-37 38 -37 90q0 53 37 90q38 37 90 37q53 0 90 -37t37 -90q0 -52 -37 -90q-37 -37 -90 -37zM127 1304q47 0 78 32q33 33 33 79q0 47 -33 78q-31 33 -78 33q-46 0 -79 -33q-32 -31 -32 -78q0 -46 32 -79q33 -32 79 -32z" />
    <glyph glyph-name="plusminus" unicode="&#xb1;" horiz-adv-x="1075" 
d="M581 377h-176v408h-408v176h408v408h176v-408h408v-176h-408v-408zM992 83h-992v176h992v-176z" />
    <glyph glyph-name="twosuperior" unicode="&#xb2;" horiz-adv-x="549" 
d="M351 960q-49 0 -113 19q-79 21 -135 21q-52 0 -90 -33h-13q0 71 26 124t65 95q38 41 80 76q50 42 87 85q36 44 36 99q0 47 -16 74q-17 28 -49 28q-31 0 -49 -20q-33 -36 -41 -111l-4 -72l-125 114q96 96 213 96q95 0 163 -34q68 -35 68 -110q0 -51 -34 -88t-86 -66
q-52 -30 -109 -57q-61 -28 -111 -58q-51 -30 -74 -67q79 75 157 75q59 0 110 -17q40 -12 74 -14q66 0 75 31h13q-20 -190 -118 -190z" />
    <glyph glyph-name="threesuperior" unicode="&#xb3;" horiz-adv-x="609" 
d="M495 960h-282v7q24 0 40 28q16 30 16 70v50h-269v14l297 426l142 -75l-422 -351h252v176l170 130v-306h90v-14h-90v-50q0 -40 16 -70q16 -28 40 -28v-7z" />
    <glyph glyph-name="acute" unicode="&#xb4;" horiz-adv-x="467" 
d="M28 1226l-28 14l199 303h3l185 -108z" />
    <glyph glyph-name="mu" unicode="&#xb5;" 
 />
    <glyph glyph-name="paragraph" unicode="&#xb6;" 
 />
    <glyph glyph-name="periodcentered" unicode="&#xb7;" horiz-adv-x="316" 
d="M107 510q-54 0 -91 38q-38 37 -38 91t38 91q37 38 91 38q53 0 91 -38q38 -37 38 -91t-38 -91q-38 -38 -91 -38z" />
    <glyph glyph-name="periodcentered" unicode="&#x2219;" horiz-adv-x="316" 
d="M107 510q-54 0 -91 38q-38 37 -38 91t38 91q37 38 91 38q53 0 91 -38q38 -37 38 -91t-38 -91q-38 -38 -91 -38z" />
    <glyph glyph-name="cedilla" unicode="&#xb8;" horiz-adv-x="484" 
d="M173 -192q-49 0 -88 14t-62 28l-23 14l16 17l17 -8q18 -8 46 -16t59 -8q57 2 87 32q29 32 29 69q0 93 -67 93q-36 0 -81 -24l-40 -25v23l128 188h21l-107 -162q60 34 142 34q36 0 72 -12t59 -39t23 -72q0 -73 -68 -110q-68 -36 -163 -36z" />
    <glyph glyph-name="onesuperior" unicode="&#xb9;" horiz-adv-x="449" 
d="M368 726h-328v8q27 0 46 33q19 34 19 83v390q0 44 -39 75q-39 32 -66 32v8q33 0 100 11q66 12 123 26q58 15 73 28h7v-570q0 -49 19 -83q19 -33 46 -33v-8z" />
    <glyph glyph-name="ordmasculine" unicode="&#xba;" horiz-adv-x="572" 
d="M252 960h-6q-108 0 -177 87t-69 211q0 123 69 210q54 68 132 83q-25 -43 -27 -206q0 -70 8 -162q7 -91 28 -159q17 -51 42 -64zM247 1555q107 0 176 -87t69 -210q0 -124 -69 -211q-53 -68 -131 -83q16 14 20 51q7 59 7 144q0 77 -10 170q-11 94 -32 166q-13 43 -30 60z
" />
    <glyph glyph-name="guillemotright" unicode="&#xbb;" horiz-adv-x="836" 
d="M280 270v16l334 380l-334 381v16l476 -298v-197zM0 270v16l335 380l-335 381v16l476 -298v-197z" />
    <glyph glyph-name="onequarter" unicode="&#xbc;" horiz-adv-x="1068" 
d="M948 0h-329v8q27 0 46 33q19 35 19 83v60h-313v16l346 503l166 -89l-493 -414h294v207l199 153v-360h105v-16h-105v-60q0 -48 19 -83q19 -33 46 -33v-8zM29 4l-13 8l926 1413l13 -9zM368 726h-328v8q27 0 46 33q19 34 19 83v390q0 44 -39 75q-39 32 -66 32v8q33 0 100 11
q66 12 123 26q58 15 73 28h7v-570q0 -49 19 -83q19 -33 46 -33v-8z" />
    <glyph glyph-name="onehalf" unicode="&#xbd;" horiz-adv-x="1108" 
d="M720 693q-42 -25 -62 -90q-19 -59 -19 -130v-24l-146 133q104 104 227 111zM13 4l-13 8l926 1413l14 -9zM380 726h-328v8q27 0 46 34q19 33 19 82v390q0 44 -39 75q-39 32 -66 32v8q35 0 100 11q66 11 124 26q57 15 72 28h7v-570q0 -49 20 -82q20 -34 45 -34v-8zM785 692
q50 -3 92 -15q61 -18 98 -55q36 -37 36 -96q0 -58 -39 -102q-40 -43 -100 -78q-61 -34 -128 -66q-71 -33 -130 -68q-59 -34 -86 -78q92 88 180 88q71 0 131 -20q47 -14 87 -16q77 0 87 36h15q-5 -42 -17 -93q-13 -51 -40 -90t-80 -39q-58 0 -131 22q-96 25 -158 25
q-61 0 -106 -39h-15q0 83 30 145t76 110q45 48 93 90q59 50 102 99q42 51 42 115q0 54 -19 97q-8 18 -20 28z" />
    <glyph glyph-name="threequarters" unicode="&#xbe;" horiz-adv-x="1072" 
d="M222 1395q-6 -5 -11 -10q-9 -7 -17 -15q-19 -20 -30 -49q-12 -28 -17 -57q-6 -29 -8 -49l-2 -19l-126 102q103 84 211 97zM952 0h-328v8q27 0 46 34q19 33 19 82v60h-314v16l346 503l166 -89l-492 -414h294v207l198 153v-360h105v-16h-105v-60q0 -49 19 -82
q19 -34 46 -34v-8zM13 -20l-13 9l926 1412l14 -9zM230 703q-138 5 -230 120l129 103h1q4 -35 17 -85q13 -49 38 -90q18 -29 45 -48zM280 1397q50 -2 99 -17q57 -17 95 -52q37 -35 37 -89q0 -103 -148 -145v-4q27 -4 65 -21q98 -43 98 -154q0 -70 -44 -118q-44 -47 -110 -70
q-39 -14 -78 -20q18 14 31 39q27 53 27 113q0 45 -10 97q-11 51 -34 87t-62 36q-36 0 -74 -25v11q29 15 59 25q29 9 53 22q24 12 39 33q15 22 15 59q0 35 -7 79q-8 43 -28 85q-10 18 -23 29z" />
    <glyph glyph-name="questiondown" unicode="&#xbf;" horiz-adv-x="1015" 
d="M491 1q49 12 85 46q53 50 84 109q30 59 44 117q14 59 17 99l3 41l211 -211q-62 -52 -139 -97q-78 -46 -165 -75q-69 -24 -140 -29zM588 1162q-52 0 -91 38q-38 39 -38 91q0 54 38 92q39 37 91 37q54 0 92 -37q37 -38 37 -92q0 -52 -37 -91q-38 -38 -92 -38zM397 2
q-169 10 -274 88q-123 90 -123 255q0 95 46 171q45 75 115 139q70 63 146 122q102 75 179 155q76 80 86 179h21q-7 -88 -51 -171q-43 -84 -100 -170q-47 -72 -91 -151t-73 -167t-29 -192q0 -97 52 -181q39 -61 96 -77z" />
    <glyph glyph-name="Agrave" unicode="&#xc0;" horiz-adv-x="1468" 
d="M574 1074l128 314h16l462 -1131q44 -103 104 -172q59 -69 104 -69v-16h-564v16q56 0 82 82q11 34 11 71q0 54 -23 117l-58 142l-7 16h1l-249 609zM242 168q7 -72 70 -119q42 -33 79 -33v-16h-391v16q56 0 126 69q65 64 107 157zM819 1500l-360 209l186 108h2l199 -303z
" />
    <glyph glyph-name="Aacute" unicode="&#xc1;" horiz-adv-x="1468" 
d="M574 1074l128 314h16l462 -1131q44 -103 104 -172q59 -69 104 -69v-16h-564v16q56 0 82 82q11 34 11 71q0 54 -23 117l-58 142l-7 16h1l-249 609zM242 168q7 -72 70 -119q42 -33 79 -33v-16h-391v16q56 0 126 69q65 64 107 157zM593 1500l-28 14l200 303h2l186 -108z" />
    <glyph glyph-name="Acircumflex" unicode="&#xc2;" horiz-adv-x="1468" 
d="M574 1074l128 314h16l462 -1131q44 -103 104 -172q59 -69 104 -69v-16h-564v16q56 0 82 82q11 34 11 71q0 54 -23 117l-58 142l-7 16h1l-249 609zM242 168q7 -72 70 -119q42 -33 79 -33v-16h-391v16q56 0 126 69q65 64 107 157zM867 1500h-2l-171 261l-172 -261h-2
l-186 109l333 193h53l333 -193z" />
    <glyph glyph-name="Atilde" unicode="&#xc3;" horiz-adv-x="1468" 
d="M574 1074l128 314h16l462 -1131q44 -103 104 -172q59 -69 104 -69v-16h-564v16q56 0 82 82q11 34 11 71q0 54 -23 117l-58 142l-7 16h1l-249 609zM242 168q7 -72 70 -119q42 -33 79 -33v-16h-391v16q56 0 126 69q65 64 107 157zM818 1500q-51 0 -164 27q-114 27 -155 27
q-19 0 -43 -5q-23 -5 -23 -40h-9q0 53 14 101t49 78q34 30 95 30q65 0 156 -22q100 -21 151 -21q20 0 44 5q23 7 23 38h8q0 -217 -146 -218z" />
    <glyph glyph-name="Adieresis" unicode="&#xc4;" horiz-adv-x="1468" 
d="M574 1074l128 314h16l462 -1131q44 -103 104 -172q59 -69 104 -69v-16h-564v16q56 0 82 82q11 34 11 71q0 54 -23 117l-58 142l-7 16h1l-249 609zM242 168q7 -72 70 -119q42 -33 79 -33v-16h-391v16q56 0 126 69q65 64 107 157zM566 1500q-49 0 -84 35t-35 84q0 50 35 84
q35 35 84 35q50 0 84 -35q35 -34 35 -84q0 -49 -35 -84q-34 -35 -84 -35zM822 1500q-49 0 -84 35t-35 84q0 50 35 84q35 35 84 35q50 0 84 -35q35 -34 35 -84q0 -49 -35 -84q-34 -35 -84 -35z" />
    <glyph glyph-name="Aring" unicode="&#xc5;" horiz-adv-x="1468" 
d="M574 1074l128 314h16l462 -1131q44 -103 104 -172q59 -69 104 -69v-16h-564v16q56 0 82 82q11 34 11 71q0 54 -23 117l-58 142l-7 16h1l-249 609zM242 168q7 -72 70 -119q42 -33 79 -33v-16h-391v16q56 0 126 69q65 64 107 157zM701 1500q-52 0 -90 37q-37 38 -37 90
q0 53 37 90q38 37 90 37q53 0 90 -37t37 -90q0 -52 -37 -90q-37 -37 -90 -37zM701 1525q42 0 72 30q29 30 29 72t-29 72q-30 29 -72 29t-72 -29q-30 -30 -30 -72t30 -72t72 -30z" />
    <glyph glyph-name="AE" unicode="&#xc6;" horiz-adv-x="2047" 
d="M1498 694q90 11 154 48q70 40 70 95h16v-285h-16q0 56 -70 95q-64 36 -154 47zM1684 0q79 32 154 98q94 82 113 188h16l-40 -286h-243zM286 253q-14 -49 -14 -91q0 -40 33 -93q34 -53 89 -53v-16h-394v16q56 0 139 71q81 69 147 166zM1610 1388h265l38 -265h-16
q-18 93 -111 171q-85 71 -176 94zM1189 258q0 -102 40 -172q31 -56 73 -86h-505v16q56 0 96 70q39 70 39 172v873q0 108 -44 179l-10 15q-36 47 -81 47v16h517q-50 -22 -85 -85q-40 -70 -40 -172v-873z" />
    <glyph glyph-name="Ccedilla" unicode="&#xc7;" horiz-adv-x="1406" 
d="M771 1403q116 -7 210 -43q120 -45 207 -121t138 -174l-206 -211h-4q-43 226 -142 368q-83 141 -203 181zM532 1387q-30 -15 -59 -36q-91 -68 -146 -182t-55 -299q0 -349 112 -578q131 -266 401 -266q134 0 282 72q149 71 222 198l14 -10q-51 -83 -133 -151t-198 -109
q-114 -41 -260 -41l-105 -160q59 34 141 34q38 0 73 -12t59 -39q23 -27 23 -72q0 -73 -68 -110q-69 -36 -164 -36q-48 0 -87 14t-62 28l-23 14l15 17l18 -8q17 -8 45 -16t59 -8q58 2 88 33q29 31 29 68q0 93 -68 93q-34 0 -80 -24l-40 -25v23l126 186q-208 5 -360 96
q-159 96 -245 257t-86 357q0 197 86 357q86 161 245 257q92 56 201 78z" />
    <glyph glyph-name="Egrave" unicode="&#xc8;" horiz-adv-x="1250" 
d="M812 1388h266l38 -265h-16q-18 93 -111 171q-85 71 -177 94zM864 0q90 22 177 98q94 82 113 188h16l-40 -286h-266zM393 258q0 -102 39 -172q36 -65 90 -86h-522v16q56 0 96 70q39 70 39 172v873q0 102 -39 172q-40 69 -96 69v16h516q-48 -22 -84 -85q-39 -70 -39 -172
v-873zM735 694q69 18 120 48q70 40 70 95h16v-285h-16q0 56 -70 95q-51 29 -120 47zM687 1500l-360 209l186 108h2l199 -303z" />
    <glyph glyph-name="Eacute" unicode="&#xc9;" horiz-adv-x="1250" 
d="M812 1388h266l38 -265h-16q-18 93 -111 171q-85 71 -177 94zM864 0q90 22 177 98q94 82 113 188h16l-40 -286h-266zM393 258q0 -102 39 -172q36 -65 90 -86h-522v16q56 0 96 70q39 70 39 172v873q0 102 -39 172q-40 69 -96 69v16h516q-48 -22 -84 -85q-39 -70 -39 -172
v-873zM735 694q69 18 120 48q70 40 70 95h16v-285h-16q0 56 -70 95q-51 29 -120 47zM484 1500l-28 14l200 303h2l186 -108z" />
    <glyph glyph-name="Ecircumflex" unicode="&#xca;" horiz-adv-x="1250" 
d="M812 1388h266l38 -265h-16q-18 93 -111 171q-85 71 -177 94zM864 0q90 22 177 98q94 82 113 188h16l-40 -286h-266zM393 258q0 -102 39 -172q36 -65 90 -86h-522v16q56 0 96 70q39 70 39 172v873q0 102 -39 172q-40 69 -96 69v16h516q-48 -22 -84 -85q-39 -70 -39 -172
v-873zM735 694q69 18 120 48q70 40 70 95h16v-285h-16q0 56 -70 95q-51 29 -120 47zM758 1500h-2l-171 261l-172 -261h-2l-186 109l333 193h53l333 -193z" />
    <glyph glyph-name="Edieresis" unicode="&#xcb;" horiz-adv-x="1250" 
d="M812 1388h266l38 -265h-16q-18 93 -111 171q-85 71 -177 94zM864 0q90 22 177 98q94 82 113 188h16l-40 -286h-266zM393 258q0 -102 39 -172q36 -65 90 -86h-522v16q56 0 96 70q39 70 39 172v873q0 102 -39 172q-40 69 -96 69v16h516q-48 -22 -84 -85q-39 -70 -39 -172
v-873zM735 694q69 18 120 48q70 40 70 95h16v-285h-16q0 56 -70 95q-51 29 -120 47zM457 1500q-49 0 -84 35t-35 84q0 50 35 84q35 35 84 35q50 0 84 -35q35 -34 35 -84q0 -49 -35 -84q-34 -35 -84 -35zM713 1500q-49 0 -84 35t-35 84q0 50 35 84q35 35 84 35q50 0 84 -35
q35 -34 35 -84q0 -49 -35 -84q-34 -35 -84 -35z" />
    <glyph glyph-name="Igrave" unicode="&#xcc;" horiz-adv-x="607" 
d="M527 0h-527v16q56 0 95 70q40 70 40 172v873q0 102 -40 172q-39 69 -95 69v16h527v-16q-55 0 -95 -69q-39 -70 -39 -172v-873q0 -102 39 -172q40 -70 95 -70v-16zM365 1500l-360 209l186 108h2l199 -303z" />
    <glyph glyph-name="Iacute" unicode="&#xcd;" horiz-adv-x="607" 
d="M527 0h-527v16q56 0 95 70q40 70 40 172v873q0 102 -40 172q-39 69 -95 69v16h527v-16q-55 0 -95 -69q-39 -70 -39 -172v-873q0 -102 39 -172q40 -70 95 -70v-16zM163 1500l-28 14l200 303h2l186 -108z" />
    <glyph glyph-name="Icircumflex" unicode="&#xce;" horiz-adv-x="607" 
d="M527 0h-527v16q56 0 95 70q40 70 40 172v873q0 102 -40 172q-39 69 -95 69v16h527v-16q-55 0 -95 -69q-39 -70 -39 -172v-873q0 -102 39 -172q40 -70 95 -70v-16zM437 1500h-2l-171 261l-172 -261h-2l-186 109l333 193h53l333 -193z" />
    <glyph glyph-name="Idieresis" unicode="&#xcf;" horiz-adv-x="607" 
d="M527 0h-527v16q56 0 95 70q40 70 40 172v873q0 102 -40 172q-39 69 -95 69v16h527v-16q-55 0 -95 -69q-39 -70 -39 -172v-873q0 -102 39 -172q40 -70 95 -70v-16zM136 1500q-49 0 -84 35t-35 84q0 50 35 84q35 35 84 35q50 0 84 -35q35 -34 35 -84q0 -49 -35 -84
q-34 -35 -84 -35zM392 1500q-49 0 -84 35t-35 84q0 50 35 84q35 35 84 35q50 0 84 -35q35 -34 35 -84q0 -49 -35 -84q-34 -35 -84 -35z" />
    <glyph glyph-name="Eth" unicode="&#xd0;" horiz-adv-x="1468" 
d="M491 0h-491v16q56 0 95 70t39 172v428h-134v16h134v429q0 102 -39 172q-39 69 -95 69v16h505q-42 -12 -73 -68q-40 -71 -40 -178v-442h401v-17h-401v-441q0 -106 40 -178q26 -48 59 -64zM689 1388q213 -3 368 -91q159 -91 245 -249q86 -157 86 -354q0 -196 -86 -353
t-245 -249q-79 -46 -174 -69q230 97 230 502q0 101 -13 218q-13 118 -44 232q-32 114 -86 208q-55 93 -136 151q-63 44 -145 54z" />
    <glyph glyph-name="Ntilde" unicode="&#xd1;" horiz-adv-x="1405" 
d="M834 1494q-51 0 -164 27q-114 27 -155 27q-19 0 -43 -5q-23 -5 -23 -40h-9q0 53 14 101t49 78q34 30 95 30q65 0 156 -22q100 -21 151 -21q20 0 44 5q23 7 23 38h8q0 -217 -146 -218zM143 240q11 -90 48 -154q40 -70 95 -70v-16h-286v16q56 0 96 70q36 64 47 154z
M88 1318q-38 54 -88 54v16h379l795 -982l13 -17l3 -389h-32zM1182 1149q-11 90 -47 154q-40 69 -96 69v16h286v-16q-55 0 -95 -69q-37 -64 -48 -154z" />
    <glyph glyph-name="Ograve" unicode="&#xd2;" horiz-adv-x="1500" 
d="M749 1403q196 -8 340 -95q159 -96 245 -257q86 -160 86 -357q0 -196 -86 -357t-245 -257q-89 -54 -197 -77q254 92 254 525q0 101 -13 220t-45 236q-32 116 -86 213q-55 96 -136 155q-51 38 -117 51zM671 -15q-195 8 -340 95q-159 96 -245 257t-86 357q0 197 86 357
q86 161 245 257q93 56 206 79q-33 -12 -64 -30q-91 -55 -146 -173q-55 -119 -55 -308q0 -108 14 -231t47 -240q32 -118 86 -214q54 -97 134 -155q53 -38 118 -51zM812 1500l-360 209l186 108h2l199 -303z" />
    <glyph glyph-name="Oacute" unicode="&#xd3;" horiz-adv-x="1500" 
d="M749 1403q196 -8 340 -95q159 -96 245 -257q86 -160 86 -357q0 -196 -86 -357t-245 -257q-89 -54 -197 -77q254 92 254 525q0 101 -13 220t-45 236q-32 116 -86 213q-55 96 -136 155q-51 38 -117 51zM671 -15q-195 8 -340 95q-159 96 -245 257t-86 357q0 197 86 357
q86 161 245 257q93 56 206 79q-33 -12 -64 -30q-91 -55 -146 -173q-55 -119 -55 -308q0 -108 14 -231t47 -240q32 -118 86 -214q54 -97 134 -155q53 -38 118 -51zM609 1500l-28 14l200 303h2l186 -108z" />
    <glyph glyph-name="Ocircumflex" unicode="&#xd4;" horiz-adv-x="1500" 
d="M749 1403q196 -8 340 -95q159 -96 245 -257q86 -160 86 -357q0 -196 -86 -357t-245 -257q-89 -54 -197 -77q254 92 254 525q0 101 -13 220t-45 236q-32 116 -86 213q-55 96 -136 155q-51 38 -117 51zM671 -15q-195 8 -340 95q-159 96 -245 257t-86 357q0 197 86 357
q86 161 245 257q93 56 206 79q-33 -12 -64 -30q-91 -55 -146 -173q-55 -119 -55 -308q0 -108 14 -231t47 -240q32 -118 86 -214q54 -97 134 -155q53 -38 118 -51zM883 1500h-2l-171 261l-172 -261h-2l-186 109l333 193h53l333 -193z" />
    <glyph glyph-name="Otilde" unicode="&#xd5;" horiz-adv-x="1500" 
d="M749 1403q196 -8 340 -95q159 -96 245 -257q86 -160 86 -357q0 -196 -86 -357t-245 -257q-89 -54 -197 -77q254 92 254 525q0 101 -13 220t-45 236q-32 116 -86 213q-55 96 -136 155q-51 38 -117 51zM671 -15q-195 8 -340 95q-159 96 -245 257t-86 357q0 197 86 357
q86 161 245 257q93 56 206 79q-33 -12 -64 -30q-91 -55 -146 -173q-55 -119 -55 -308q0 -108 14 -231t47 -240q32 -118 86 -214q54 -97 134 -155q53 -38 118 -51zM834 1500q-51 0 -164 27q-114 27 -155 27q-19 0 -43 -5q-23 -5 -23 -40h-9q0 53 14 101t49 78q34 30 95 30
q65 0 156 -22q100 -21 151 -21q20 0 44 5q23 7 23 38h8q0 -217 -146 -218z" />
    <glyph glyph-name="Odieresis" unicode="&#xd6;" horiz-adv-x="1500" 
d="M749 1403q196 -8 340 -95q159 -96 245 -257q86 -160 86 -357q0 -196 -86 -357t-245 -257q-89 -54 -197 -77q254 92 254 525q0 101 -13 220t-45 236q-32 116 -86 213q-55 96 -136 155q-51 38 -117 51zM671 -15q-195 8 -340 95q-159 96 -245 257t-86 357q0 197 86 357
q86 161 245 257q93 56 206 79q-33 -12 -64 -30q-91 -55 -146 -173q-55 -119 -55 -308q0 -108 14 -231t47 -240q32 -118 86 -214q54 -97 134 -155q53 -38 118 -51zM559 1500q-49 0 -84 35t-35 84q0 50 35 84q35 35 84 35q50 0 84 -35q35 -34 35 -84q0 -49 -35 -84
q-34 -35 -84 -35zM815 1500q-49 0 -84 35t-35 84q0 50 35 84q35 35 84 35q50 0 84 -35q35 -34 35 -84q0 -49 -35 -84q-34 -35 -84 -35z" />
    <glyph glyph-name="multiply" unicode="&#xd7;" horiz-adv-x="794" 
d="M13 335l-11 11l344 346l-346 344l11 11l346 -344l344 346l12 -11l-345 -346l346 -344l-11 -12l-346 345z" />
    <glyph glyph-name="Oslash" unicode="&#xd8;" horiz-adv-x="1500" 
d="M645 -14q-167 12 -296 84l-125 -218l-14 8l125 218l-4 2q-159 96 -245 257t-86 357q0 197 86 357q86 161 245 257q85 51 188 75q-24 -9 -46 -23q-91 -54 -146 -171t-55 -306q0 -106 14 -227q14 -122 47 -239q30 -111 81 -202l570 1015q-49 77 -118 126q-45 32 -99 46
q160 -9 286 -74l109 190l14 -8l-109 -189l16 -10q3 -1 6 -3q159 -96 245 -257q86 -160 86 -357q0 -196 -86 -357t-245 -257q-76 -46 -167 -70q224 105 224 508q0 99 -13 217q-13 119 -45 234q-32 116 -86 211l-8 13l-571 -1017q53 -90 130 -145q42 -30 92 -45z" />
    <glyph glyph-name="Ugrave" unicode="&#xd9;" horiz-adv-x="1385" 
d="M1162 1149q-11 90 -47 154q-39 69 -95 69v16h285v-16q-55 0 -95 -69q-37 -64 -48 -154zM978 68q-111 -84 -281 -84q-184 0 -310 57q-125 57 -188 183q-64 125 -64 330v577q0 102 -39 172q-40 69 -96 69v16h528v-16q-55 0 -95 -69q-40 -70 -40 -172v-577q0 -169 38 -289
q37 -120 119 -193q83 -74 216 -74q113 0 212 70zM754 1500l-360 209l186 108h2l199 -303z" />
    <glyph glyph-name="Uacute" unicode="&#xda;" horiz-adv-x="1385" 
d="M1162 1149q-11 90 -47 154q-39 69 -95 69v16h285v-16q-55 0 -95 -69q-37 -64 -48 -154zM978 68q-111 -84 -281 -84q-184 0 -310 57q-125 57 -188 183q-64 125 -64 330v577q0 102 -39 172q-40 69 -96 69v16h528v-16q-55 0 -95 -69q-40 -70 -40 -172v-577q0 -169 38 -289
q37 -120 119 -193q83 -74 216 -74q113 0 212 70zM551 1500l-28 14l200 303h2l186 -108z" />
    <glyph glyph-name="Ucircumflex" unicode="&#xdb;" horiz-adv-x="1385" 
d="M1162 1149q-11 90 -47 154q-39 69 -95 69v16h285v-16q-55 0 -95 -69q-37 -64 -48 -154zM978 68q-111 -84 -281 -84q-184 0 -310 57q-125 57 -188 183q-64 125 -64 330v577q0 102 -39 172q-40 69 -96 69v16h528v-16q-55 0 -95 -69q-40 -70 -40 -172v-577q0 -169 38 -289
q37 -120 119 -193q83 -74 216 -74q113 0 212 70zM833 1500h-2l-171 261l-172 -261h-2l-186 109l333 193h53l333 -193z" />
    <glyph glyph-name="Udieresis" unicode="&#xdc;" horiz-adv-x="1385" 
d="M1162 1149q-11 90 -47 154q-39 69 -95 69v16h285v-16q-55 0 -95 -69q-37 -64 -48 -154zM978 68q-111 -84 -281 -84q-184 0 -310 57q-125 57 -188 183q-64 125 -64 330v577q0 102 -39 172q-40 69 -96 69v16h528v-16q-55 0 -95 -69q-40 -70 -40 -172v-577q0 -169 38 -289
q37 -120 119 -193q83 -74 216 -74q113 0 212 70zM549 1500q-49 0 -84 35t-35 84q0 50 35 84q35 35 84 35q50 0 84 -35q35 -34 35 -84q0 -49 -35 -84q-34 -35 -84 -35zM805 1500q-49 0 -84 35t-35 84q0 50 35 84q35 35 84 35q50 0 84 -35q35 -34 35 -84q0 -49 -35 -84
q-34 -35 -84 -35z" />
    <glyph glyph-name="Yacute" unicode="&#xdd;" horiz-adv-x="1468" 
d="M1098 1152q11 39 11 76q0 35 -25 90q-25 54 -87 54v16h391v-16q-60 0 -139 -66q-71 -61 -151 -154zM823 685v-427q0 -102 40 -172t95 -70v-16h-528v16q56 0 96 70q39 70 39 172v348l-311 546q-59 94 -130 157t-124 63v16h645v-16q-55 0 -89 -75q-14 -31 -14 -66
q0 -46 27 -101zM593 1500l-28 14l200 303h2l186 -108z" />
    <glyph glyph-name="Thorn" unicode="&#xde;" horiz-adv-x="1250" 
d="M393 246q4 -99 42 -163q38 -67 93 -67v-16h-528v16q56 0 96 70q39 69 39 171v874q0 102 -39 172q-40 69 -96 69v16h528v-16q-55 0 -93 -66q-35 -58 -41 -144h-1v-916zM721 1139h5q200 0 322 -117q122 -118 122 -328q0 -208 -121 -326q-112 -111 -297 -117q142 30 142 265
q0 233 -48 410q-44 164 -125 213z" />
    <glyph glyph-name="germandbls" unicode="&#xdf;" horiz-adv-x="1261" 
d="M567 1401q-45 -12 -78 -53q-49 -60 -72 -146q-24 -86 -24 -194v-734q0 -102 40 -172q39 -70 94 -70v-16h-527v16q56 0 96 70q39 70 39 172v627q0 144 56 258t166 180q87 53 210 62zM789 1q-234 15 -355 244l218 128h3q14 -130 45 -225q35 -124 89 -147zM648 1404
q90 -3 170 -34q88 -34 142 -95t54 -141q0 -63 -27 -105q-27 -43 -66 -72q-40 -29 -80 -52q-40 -22 -69 -45q-29 -22 -29 -54q0 -43 49 -86t119 -90q63 -43 125 -93q61 -51 103 -111q41 -60 41 -134q0 -73 -35 -127q-36 -55 -91 -91q-56 -37 -118 -55q-51 -16 -96 -18
q38 13 66 67q37 72 37 190q0 65 -21 120q-21 54 -52 101q-32 46 -65 88q-37 48 -66 93q-28 45 -28 91q0 33 14 63q13 30 32 62q24 39 45 89q21 49 21 118q0 72 -25 143q-26 71 -73 126q-34 40 -77 52z" />
    <glyph glyph-name="agrave" unicode="&#xe0;" horiz-adv-x="1083" 
d="M242 629h-2l-205 189q88 97 191 143q83 37 189 44q-66 -23 -112 -142q-47 -103 -61 -234zM879 -17q-178 0 -225 121q-3 31 -4 385l-1 1q-2 173 -44 321q-44 171 -128 196q143 -2 237 -65q98 -65 146 -175t48 -244v-266q0 -109 21 -175q20 -66 74 -66v-16
q-65 -17 -124 -17zM337 -16q-109 0 -184 39t-114 105q-39 67 -39 146q0 108 47 178t126 104q81 33 181 33q99 0 164 -23l12 -5q-32 8 -76 8q-172 -30 -180 -279q0 -106 53 -177q53 -70 126 -106q14 -5 27 -5q14 0 19 1q-57 -19 -162 -19zM603 1100l-360 209l186 108h2
l199 -303z" />
    <glyph glyph-name="aacute" unicode="&#xe1;" horiz-adv-x="1083" 
d="M242 629h-2l-205 189q88 97 191 143q83 37 189 44q-66 -23 -112 -142q-47 -103 -61 -234zM879 -17q-178 0 -225 121q-3 31 -4 385l-1 1q-2 173 -44 321q-44 171 -128 196q143 -2 237 -65q98 -65 146 -175t48 -244v-266q0 -109 21 -175q20 -66 74 -66v-16
q-65 -17 -124 -17zM337 -16q-109 0 -184 39t-114 105q-39 67 -39 146q0 108 47 178t126 104q81 33 181 33q99 0 164 -23l12 -5q-32 8 -76 8q-172 -30 -180 -279q0 -106 53 -177q53 -70 126 -106q14 -5 27 -5q14 0 19 1q-57 -19 -162 -19zM400 1100l-28 14l200 303h2
l186 -108z" />
    <glyph glyph-name="acircumflex" unicode="&#xe2;" horiz-adv-x="1083" 
d="M242 629h-2l-205 189q88 97 191 143q83 37 189 44q-66 -23 -112 -142q-47 -103 -61 -234zM879 -17q-178 0 -225 121q-3 31 -4 385l-1 1q-2 173 -44 321q-44 171 -128 196q143 -2 237 -65q98 -65 146 -175t48 -244v-266q0 -109 21 -175q20 -66 74 -66v-16
q-65 -17 -124 -17zM337 -16q-109 0 -184 39t-114 105q-39 67 -39 146q0 108 47 178t126 104q81 33 181 33q99 0 164 -23l12 -5q-32 8 -76 8q-172 -30 -180 -279q0 -106 53 -177q53 -70 126 -106q14 -5 27 -5q14 0 19 1q-57 -19 -162 -19zM675 1100h-2l-171 261l-172 -261h-2
l-186 109l333 193h53l333 -193z" />
    <glyph glyph-name="atilde" unicode="&#xe3;" horiz-adv-x="1083" 
d="M242 629h-2l-205 189q88 97 191 143q83 37 189 44q-66 -23 -112 -142q-47 -103 -61 -234zM879 -17q-178 0 -225 121q-3 31 -4 385l-1 1q-2 173 -44 321q-44 171 -128 196q143 -2 237 -65q98 -65 146 -175t48 -244v-266q0 -109 21 -175q20 -66 74 -66v-16
q-65 -17 -124 -17zM337 -16q-109 0 -184 39t-114 105q-39 67 -39 146q0 108 47 178t126 104q81 33 181 33q99 0 164 -23l12 -5q-32 8 -76 8q-172 -30 -180 -279q0 -106 53 -177q53 -70 126 -106q14 -5 27 -5q14 0 19 1q-57 -19 -162 -19zM626 1100q-51 0 -164 27
q-114 27 -155 27q-19 0 -43 -5q-23 -5 -23 -40h-9q0 53 14 101t49 78q34 30 95 30q65 0 156 -22q100 -21 151 -21q20 0 44 5q23 7 23 38h8q0 -217 -146 -218z" />
    <glyph glyph-name="adieresis" unicode="&#xe4;" horiz-adv-x="1083" 
d="M242 629h-2l-205 189q88 97 191 143q83 37 189 44q-66 -23 -112 -142q-47 -103 -61 -234zM879 -17q-178 0 -225 121q-3 31 -4 385l-1 1q-2 173 -44 321q-44 171 -128 196q143 -2 237 -65q98 -65 146 -175t48 -244v-266q0 -109 21 -175q20 -66 74 -66v-16
q-65 -17 -124 -17zM337 -16q-109 0 -184 39t-114 105q-39 67 -39 146q0 108 47 178t126 104q81 33 181 33q99 0 164 -23l12 -5q-32 8 -76 8q-172 -30 -180 -279q0 -106 53 -177q53 -70 126 -106q14 -5 27 -5q14 0 19 1q-57 -19 -162 -19zM374 1100q-49 0 -84 35t-35 84
q0 50 35 84q35 35 84 35q50 0 84 -35q35 -34 35 -84q0 -49 -35 -84q-34 -35 -84 -35zM630 1100q-49 0 -84 35t-35 84q0 50 35 84q35 35 84 35q50 0 84 -35q35 -34 35 -84q0 -49 -35 -84q-34 -35 -84 -35z" />
    <glyph glyph-name="aring" unicode="&#xe5;" horiz-adv-x="1083" 
d="M242 629h-2l-205 189q88 97 191 143q83 37 189 44q-66 -23 -112 -142q-47 -103 -61 -234zM879 -17q-178 0 -225 121q-3 31 -4 385l-1 1q-2 173 -44 321q-44 171 -128 196q143 -2 237 -65q98 -65 146 -175t48 -244v-266q0 -109 21 -175q20 -66 74 -66v-16
q-65 -17 -124 -17zM337 -16q-109 0 -184 39t-114 105q-39 67 -39 146q0 108 47 178t126 104q81 33 181 33q99 0 164 -23l12 -5q-32 8 -76 8q-172 -30 -180 -279q0 -106 53 -177q53 -70 126 -106q14 -5 27 -5q14 0 19 1q-57 -19 -162 -19zM501 1100q-52 0 -89 37
q-37 38 -37 90q0 53 37 90t89 37q53 0 90 -37t37 -90q0 -52 -37 -90q-37 -37 -90 -37zM501 1125q42 0 72 30t30 72t-30 72q-30 29 -72 29t-71 -29q-30 -30 -30 -72t30 -72q29 -30 71 -30z" />
    <glyph glyph-name="ae" unicode="&#xe6;" horiz-adv-x="1693" 
d="M248 630h-2l-205 189q88 97 191 143q83 37 189 44q-66 -23 -112 -142q-47 -103 -61 -234zM1009 1q-65 -17 -124 -17q-178 0 -225 121q-3 31 -4 385l-1 1q-2 173 -44 321q-44 171 -128 196q143 -2 237 -65q50 -33 87 -78q41 39 90 69q74 45 169 61q-57 -22 -92 -87
q-56 -101 -56 -284q0 -85 10 -165l445 107q-19 173 -71 294q-51 121 -129 143q124 -1 218 -58q95 -58 154 -150q59 -91 76 -195l-690 -160q17 -121 59 -214t110 -146q68 -54 162 -54q92 0 185 52q92 51 136 129l14 -10q-128 -217 -427 -217q-87 0 -161 21zM343 -15
q-109 0 -184 39t-114 105q-39 67 -39 146q0 108 47 178t126 104q81 33 181 33q99 0 164 -23l12 -5q-32 8 -76 8q-172 -30 -180 -279q0 -106 53 -177q53 -70 126 -106q14 -5 27 -5q14 0 19 1q-57 -19 -162 -19z" />
    <glyph glyph-name="ccedilla" unicode="&#xe7;" horiz-adv-x="1014" 
d="M540 1006q92 -3 162 -31q81 -33 139 -88q57 -55 93 -125l-218 -127h-3q-13 125 -65 228q-45 110 -108 143zM385 995q-42 -28 -69 -85q-56 -112 -56 -288q0 -163 38 -297q37 -135 113 -215t193 -80q92 0 174 52q82 51 125 129l14 -10q-36 -60 -87 -109t-128 -78
q-76 -30 -187 -30l-105 -159q60 34 142 34q36 0 72 -12q35 -12 59 -39q23 -27 23 -72q0 -73 -68 -110q-68 -36 -163 -36q-49 0 -88 14t-85 42l16 17q68 -32 122 -32q57 2 87 33q29 31 29 68q0 93 -67 93q-34 0 -81 -24l-40 -25v23l126 185q-147 5 -255 69q-115 69 -177 185
t-62 258q0 141 62 257t177 185q65 39 146 57z" />
    <glyph glyph-name="egrave" unicode="&#xe8;" horiz-adv-x="1043" 
d="M515 1007q124 -1 218 -58q95 -58 154 -150q59 -91 76 -195l-690 -160q17 -121 59 -214t110 -146q68 -54 162 -54q92 0 185 52q92 51 136 129l14 -10q-128 -217 -427 -217q-159 0 -273 69q-115 69 -177 185t-62 258q0 141 62 257t177 185q74 45 169 61q-57 -24 -92 -87
q-56 -101 -56 -284q0 -85 10 -165l445 107q-19 173 -71 294q-51 121 -129 143zM583 1100l-360 209l186 108h2l199 -303z" />
    <glyph glyph-name="eacute" unicode="&#xe9;" horiz-adv-x="1043" 
d="M515 1007q124 -1 218 -58q95 -58 154 -150q59 -91 76 -195l-690 -160q17 -121 59 -214t110 -146q68 -54 162 -54q92 0 185 52q92 51 136 129l14 -10q-128 -217 -427 -217q-159 0 -273 69q-115 69 -177 185t-62 258q0 141 62 257t177 185q74 45 169 61q-57 -24 -92 -87
q-56 -101 -56 -284q0 -85 10 -165l445 107q-19 173 -71 294q-51 121 -129 143zM380 1100l-28 14l200 303h2l186 -108z" />
    <glyph glyph-name="ecircumflex" unicode="&#xea;" horiz-adv-x="1043" 
d="M515 1007q124 -1 218 -58q95 -58 154 -150q59 -91 76 -195l-690 -160q17 -121 59 -214t110 -146q68 -54 162 -54q92 0 185 52q92 51 136 129l14 -10q-128 -217 -427 -217q-159 0 -273 69q-115 69 -177 185t-62 258q0 141 62 257t177 185q74 45 169 61q-57 -24 -92 -87
q-56 -101 -56 -284q0 -85 10 -165l445 107q-19 173 -71 294q-51 121 -129 143zM663 1100h-2l-171 261l-172 -261h-2l-186 109l333 193h53l333 -193z" />
    <glyph glyph-name="edieresis" unicode="&#xeb;" horiz-adv-x="1043" 
d="M515 1007q124 -1 218 -58q95 -58 154 -150q59 -91 76 -195l-690 -160q17 -121 59 -214t110 -146q68 -54 162 -54q92 0 185 52q92 51 136 129l14 -10q-128 -217 -427 -217q-159 0 -273 69q-115 69 -177 185t-62 258q0 141 62 257t177 185q74 45 169 61q-57 -24 -92 -87
q-56 -101 -56 -284q0 -85 10 -165l445 107q-19 173 -71 294q-51 121 -129 143zM360 1100q-49 0 -84 35t-35 84q0 50 35 84q35 35 84 35q50 0 84 -35q35 -34 35 -84q0 -49 -35 -84q-34 -35 -84 -35zM616 1100q-49 0 -84 35t-35 84q0 50 35 84q35 35 84 35q50 0 84 -35
q35 -34 35 -84q0 -49 -35 -84q-34 -35 -84 -35z" />
    <glyph glyph-name="igrave" unicode="&#xec;" horiz-adv-x="607" 
d="M527 0h-527v16q56 0 96 70q39 70 39 172v476q0 102 -39 172q-40 70 -96 70v16q377 51 393 51v-785q0 -102 40 -172q39 -70 94 -70v-16zM360 1100l-360 209l186 108h2l199 -303z" />
    <glyph glyph-name="iacute" unicode="&#xed;" horiz-adv-x="607" 
d="M527 0h-527v16q56 0 96 70q39 70 39 172v476q0 102 -39 172q-40 70 -96 70v16q377 51 393 51v-785q0 -102 40 -172q39 -70 94 -70v-16zM28 1100l-28 14l199 303h3l185 -108z" />
    <glyph glyph-name="icircumflex" unicode="&#xee;" horiz-adv-x="799" 
d="M657 0h-527v16q56 0 96 70q39 70 39 172v476q0 102 -39 172q-40 70 -96 70v16q377 51 393 51v-785q0 -102 40 -172q39 -70 94 -70v-16zM533 1100h-2l-171 261l-172 -261h-2l-186 109l333 193h53l333 -193z" />
    <glyph glyph-name="idieresis" unicode="&#xef;" horiz-adv-x="632" 
d="M552 0h-527v16q56 0 96 70q39 70 39 172v476q0 102 -39 172q-40 70 -96 70v16q377 51 393 51v-785q0 -102 40 -172q39 -70 94 -70v-16zM119 1100q-49 0 -84 35t-35 84q0 50 35 84q35 35 84 35q50 0 84 -35q35 -34 35 -84q0 -49 -35 -84q-34 -35 -84 -35zM375 1100
q-49 0 -84 35t-35 84q0 50 35 84q35 35 84 35q50 0 84 -35q35 -34 35 -84q0 -49 -35 -84q-34 -35 -84 -35z" />
    <glyph glyph-name="eth" unicode="&#xf0;" horiz-adv-x="1052" 
d="M714 1130q0 24 -2 46h-280v16h278q-9 63 -35 111q-40 69 -96 69v16q15 1 30 3q347 29 363 29v-228h203v-16h-203v-1176h-16q0 42 -37 76q-38 33 -98 33q-49 0 -90 -18q-28 -14 -57 -29q3 3 5 7q1 2 3 4q32 46 32 119v938zM506 -13q-19 -3 -42 -3q-151 0 -254 69
q-104 69 -157 185t-53 258q0 219 130 365t325 146q-82 -13 -135 -81q-65 -85 -65 -228q0 -289 60 -485q65 -211 191 -226z" />
    <glyph glyph-name="ntilde" unicode="&#xf1;" horiz-adv-x="1306" 
d="M393 258q0 -102 40 -172q39 -70 94 -70v-16h-527v16q56 0 96 70q39 70 39 172v476q0 102 -39 172q-40 70 -96 70v16l377 31h16v-765zM537 979h1l0.5 0.5l0.5 0.5q55 28 127 28q128 0 223 -68q96 -69 149 -183q53 -115 53 -255v-244q0 -102 40 -172t95 -70v-16h-528v16
q56 0 96 70q39 70 39 172v116q-7 227 -57 380q-62 233 -188 233q-27 0 -51 -8zM725 1100q-51 0 -164 27q-114 27 -155 27q-19 0 -43 -5q-23 -5 -23 -40h-9q0 53 14 101t49 78q34 30 95 30q65 0 156 -22q100 -21 151 -21q20 0 44 5q23 7 23 38h8q0 -217 -146 -218z" />
    <glyph glyph-name="ograve" unicode="&#xf2;" horiz-adv-x="1103" 
d="M528 1007q135 -4 245 -69q116 -69 183 -185t67 -257q0 -142 -67 -258t-183 -185q-63 -37 -133 -54q11 5 21 12q48 33 77 101q29 67 29 172q0 80 -7 177t-27 194q-20 96 -53 178q-33 81 -82 131q-31 31 -70 43zM506 -16q-141 2 -255 69q-115 69 -183 185t-68 258
q0 141 69 257t185 185q58 35 124 52q-15 -8 -27 -19q-49 -43 -72 -116t-23 -165q0 -270 66 -472t184 -234zM613 1100l-360 209l186 108h2l199 -303z" />
    <glyph glyph-name="oacute" unicode="&#xf3;" horiz-adv-x="1103" 
d="M528 1007q135 -4 245 -69q116 -69 183 -185t67 -257q0 -142 -67 -258t-183 -185q-63 -37 -133 -54q11 5 21 12q48 33 77 101q29 67 29 172q0 80 -7 177t-27 194q-20 96 -53 178q-33 81 -82 131q-31 31 -70 43zM506 -16q-141 2 -255 69q-115 69 -183 185t-68 258
q0 141 69 257t185 185q58 35 124 52q-15 -8 -27 -19q-49 -43 -72 -116t-23 -165q0 -270 66 -472t184 -234zM410 1100l-28 14l200 303h2l186 -108z" />
    <glyph glyph-name="ocircumflex" unicode="&#xf4;" horiz-adv-x="1103" 
d="M528 1007q135 -4 245 -69q116 -69 183 -185t67 -257q0 -142 -67 -258t-183 -185q-63 -37 -133 -54q11 5 21 12q48 33 77 101q29 67 29 172q0 80 -7 177t-27 194q-20 96 -53 178q-33 81 -82 131q-31 31 -70 43zM506 -16q-141 2 -255 69q-115 69 -183 185t-68 258
q0 141 69 257t185 185q58 35 124 52q-15 -8 -27 -19q-49 -43 -72 -116t-23 -165q0 -270 66 -472t184 -234zM685 1100h-2l-171 261l-172 -261h-2l-186 109l333 193h53l333 -193z" />
    <glyph glyph-name="otilde" unicode="&#xf5;" horiz-adv-x="1103" 
d="M528 1007q135 -4 245 -69q116 -69 183 -185t67 -257q0 -142 -67 -258t-183 -185q-63 -37 -133 -54q11 5 21 12q48 33 77 101q29 67 29 172q0 80 -7 177t-27 194q-20 96 -53 178q-33 81 -82 131q-31 31 -70 43zM506 -16q-141 2 -255 69q-115 69 -183 185t-68 258
q0 141 69 257t185 185q58 35 124 52q-15 -8 -27 -19q-49 -43 -72 -116t-23 -165q0 -270 66 -472t184 -234zM636 1100q-51 0 -164 27q-114 27 -155 27q-19 0 -43 -5q-23 -5 -23 -40h-9q0 53 14 101t49 78q34 30 95 30q65 0 156 -22q100 -21 151 -21q20 0 44 5q23 7 23 38h8
q0 -217 -146 -218z" />
    <glyph glyph-name="odieresis" unicode="&#xf6;" horiz-adv-x="1103" 
d="M528 1007q135 -4 245 -69q116 -69 183 -185t67 -257q0 -142 -67 -258t-183 -185q-63 -37 -133 -54q11 5 21 12q48 33 77 101q29 67 29 172q0 80 -7 177t-27 194q-20 96 -53 178q-33 81 -82 131q-31 31 -70 43zM506 -16q-141 2 -255 69q-115 69 -183 185t-68 258
q0 141 69 257t185 185q58 35 124 52q-15 -8 -27 -19q-49 -43 -72 -116t-23 -165q0 -270 66 -472t184 -234zM384 1100q-49 0 -84 35t-35 84q0 50 35 84q35 35 84 35q50 0 84 -35q35 -34 35 -84q0 -49 -35 -84q-34 -35 -84 -35zM640 1100q-49 0 -84 35t-35 84q0 50 35 84
q35 35 84 35q50 0 84 -35q35 -34 35 -84q0 -49 -35 -84q-34 -35 -84 -35z" />
    <glyph glyph-name="divide" unicode="&#xf7;" horiz-adv-x="1072" 
d="M476 211q-54 0 -91 38q-38 37 -38 91t38 91q37 38 91 38q53 0 91 -38q38 -37 38 -91t-38 -91q-38 -38 -91 -38zM476 809q-54 0 -91 38q-38 37 -38 91q0 53 38 91q37 38 91 38q53 0 91 -38t38 -91q0 -54 -38 -91q-38 -38 -91 -38zM992 546h-992v176h992v-176z" />
    <glyph glyph-name="oslash" unicode="&#xf8;" horiz-adv-x="1122" 
d="M798 934q113 -68 177 -181q67 -116 67 -257q0 -142 -67 -258t-183 -185q-115 -69 -261 -69q-135 0 -244 59l-273 -475l-14 8l273 475l-1 1q-1 0 -2 1q-115 69 -183 185t-68 258q0 141 69 257t185 185t258 69q141 0 254 -65l167 292l14 -8zM354 193l351 611l-6 14
q-74 174 -202 174q-78 0 -127 -41q-49 -40 -72 -111q-23 -69 -23 -158q0 -259 66 -452l8 -22q2 -7 5 -15zM712 784l-350 -609q77 -175 209 -175q60 0 109 32q48 32 77 96q29 65 29 165q0 294 -74 491z" />
    <glyph glyph-name="ugrave" unicode="&#xf9;" horiz-adv-x="1239" 
d="M636 -5q-42 -11 -92 -11q-106 0 -199 55q-94 54 -152 174t-58 318v203q0 102 -39 172q-40 70 -96 70v16l377 31h16v-383q0 -190 23 -323q22 -133 76 -227q53 -94 144 -95zM805 734q0 102 -39 172t-95 70v16q377 31 392 31v-764q0 -111 21 -176q20 -66 75 -66v-16
q-67 -17 -126 -17q-187 0 -228 125v625zM681 1100l-360 209l186 108h2l199 -303z" />
    <glyph glyph-name="uacute" unicode="&#xfa;" horiz-adv-x="1239" 
d="M636 -5q-42 -11 -92 -11q-106 0 -199 55q-94 54 -152 174t-58 318v203q0 102 -39 172q-40 70 -96 70v16l377 31h16v-383q0 -190 23 -323q22 -133 76 -227q53 -94 144 -95zM805 734q0 102 -39 172t-95 70v16q377 31 392 31v-764q0 -111 21 -176q20 -66 75 -66v-16
q-67 -17 -126 -17q-187 0 -228 125v625zM478 1100l-28 14l200 303h2l186 -108z" />
    <glyph glyph-name="ucircumflex" unicode="&#xfb;" horiz-adv-x="1239" 
d="M636 -5q-42 -11 -92 -11q-106 0 -199 55q-94 54 -152 174t-58 318v203q0 102 -39 172q-40 70 -96 70v16l377 31h16v-383q0 -190 23 -323q22 -133 76 -227q53 -94 144 -95zM805 734q0 102 -39 172t-95 70v16q377 31 392 31v-764q0 -111 21 -176q20 -66 75 -66v-16
q-67 -17 -126 -17q-187 0 -228 125v625zM753 1100h-2l-171 261l-172 -261h-2l-186 109l333 193h53l333 -193z" />
    <glyph glyph-name="udieresis" unicode="&#xfc;" horiz-adv-x="1239" 
d="M636 -5q-42 -11 -92 -11q-106 0 -199 55q-94 54 -152 174t-58 318v203q0 102 -39 172q-40 70 -96 70v16l377 31h16v-383q0 -190 23 -323q22 -133 76 -227q53 -94 144 -95zM805 734q0 102 -39 172t-95 70v16q377 31 392 31v-764q0 -111 21 -176q20 -66 75 -66v-16
q-67 -17 -126 -17q-187 0 -228 125v625zM452 1100q-49 0 -84 35t-35 84q0 50 35 84q35 35 84 35q50 0 84 -35q35 -34 35 -84q0 -49 -35 -84q-34 -35 -84 -35zM708 1100q-49 0 -84 35t-35 84q0 50 35 84q35 35 84 35q50 0 84 -35q35 -34 35 -84q0 -49 -35 -84
q-34 -35 -84 -35z" />
    <glyph glyph-name="yacute" unicode="&#xfd;" horiz-adv-x="1155" 
d="M839 711q13 60 13 112q0 38 -19 95t-78 57v16h320v-16q-46 0 -109 -69t-118 -173zM528 0l-312 734q-45 103 -107 172t-109 69v16h593v-16q-58 0 -86 -82q-12 -33 -12 -71q0 -54 24 -116l155 -364l9 -20l-147 -345zM290 -397h-12q-114 0 -199 70q-86 69 -142 175l218 128
h3l1 -10q13 -130 38 -220q32 -135 93 -143zM468 1100l-28 14l200 303h2l186 -108z" />
    <glyph glyph-name="thorn" unicode="&#xfe;" 
 />
    <glyph glyph-name="ydieresis" unicode="&#xff;" horiz-adv-x="1155" 
d="M839 711q13 60 13 112q0 38 -19 95t-78 57v16h320v-16q-46 0 -109 -69t-118 -173zM528 0l-312 734q-45 103 -107 172t-109 69v16h593v-16q-58 0 -86 -82q-12 -33 -12 -71q0 -54 24 -116l155 -364l9 -20l-147 -345zM290 -397h-12q-114 0 -199 70q-86 69 -142 175l218 128
h3l1 -10q13 -130 38 -220q32 -135 93 -143zM441 1100q-49 0 -84 35t-35 84q0 50 35 84q35 35 84 35q50 0 84 -35q35 -34 35 -84q0 -49 -35 -84q-34 -35 -84 -35zM697 1100q-49 0 -84 35t-35 84q0 50 35 84q35 35 84 35q50 0 84 -35q35 -34 35 -84q0 -49 -35 -84
q-34 -35 -84 -35z" />
    <glyph glyph-name="dotlessi" unicode="&#x131;" 
 />
    <glyph glyph-name="OE" unicode="&#x152;" horiz-adv-x="2059" 
d="M1644 1388h243l38 -265h-16q-18 93 -111 171q-75 63 -154 94zM660 -15q-188 10 -329 95q-159 96 -245 257t-86 357q0 197 86 358t245 257q86 51 190 75q-25 -10 -48 -24q-91 -55 -146 -173q-55 -119 -55 -310q0 -108 14 -231q14 -124 47 -242q32 -118 86 -214
q54 -97 134 -155q48 -36 107 -50zM1314 0h-370v1282q-78 93 -182 121q97 -6 182 -32v17h370q-41 -30 -73 -85q-40 -70 -40 -172v-873q0 -102 40 -172q32 -56 73 -86zM1696 0q79 33 154 98q94 82 113 187h16l-40 -285h-243zM1510 694q90 11 154 48q70 40 70 95h16v-286h-16
q0 56 -70 96q-64 36 -154 47z" />
    <glyph glyph-name="oe" unicode="&#x153;" horiz-adv-x="1802" 
d="M484 1q-128 6 -233 68q-115 69 -183 185t-68 258q0 141 69 257t185 185q55 32 115 50l-18 -14q-49 -43 -72 -116t-23 -168q0 -273 65 -477q60 -184 163 -228zM884 159q-68 -74 -163 -116q-29 -13 -59 -22q48 33 76 101q29 69 29 175q0 80 -7 177q-7 98 -27 196t-53 180
t-83 133q-27 27 -60 39q99 -4 184 -41q96 -43 168 -123l13 15q43 43 97 76q74 45 169 61q-57 -22 -92 -87q-56 -101 -56 -284q0 -85 10 -165l445 107q-19 173 -71 294q-51 121 -129 143q124 -1 218 -58q95 -58 154 -150q59 -91 76 -195l-690 -160q17 -121 59 -214t110 -146
q68 -54 162 -54q92 0 185 52q92 51 136 129l14 -10q-128 -217 -427 -217q-159 0 -273 69q-66 39 -115 95z" />
    <glyph glyph-name="Ydieresis" unicode="&#x178;" horiz-adv-x="1468" 
d="M1098 1152q11 39 11 76q0 35 -25 90q-25 54 -87 54v16h391v-16q-60 0 -139 -66q-71 -61 -151 -154zM823 685v-427q0 -102 40 -172t95 -70v-16h-528v16q56 0 96 70q39 70 39 172v348l-311 546q-59 94 -130 157t-124 63v16h645v-16q-55 0 -89 -75q-14 -31 -14 -66
q0 -46 27 -101zM583 1500q-49 0 -84 35t-35 84q0 50 35 84q35 35 84 35q50 0 84 -35q35 -34 35 -84q0 -49 -35 -84q-34 -35 -84 -35zM839 1500q-49 0 -84 35t-35 84q0 50 35 84q35 35 84 35q50 0 84 -35q35 -34 35 -84q0 -49 -35 -84q-34 -35 -84 -35z" />
    <glyph glyph-name="circumflex" unicode="&#x2c6;" horiz-adv-x="799" 
d="M533 1237h-2l-171 261l-172 -261h-2l-186 109l333 193h53l333 -193z" />
    <glyph glyph-name="caron" unicode="&#x2c7;" horiz-adv-x="799" 
d="M386 1239h-53l-333 193l186 109h2l172 -261l171 261h2l186 -109z" />
    <glyph glyph-name="uni02C9" unicode="&#x2c9;" horiz-adv-x="579" 
d="M499 1378h-499v16h499v-16z" />
    <glyph glyph-name="breve" unicode="&#x2d8;" 
 />
    <glyph glyph-name="dotaccent" unicode="&#x2d9;" horiz-adv-x="316" 
d="M107 1221q-54 0 -91 38q-38 37 -38 91t38 91q37 38 91 38q53 0 91 -38q38 -37 38 -91t-38 -91q-38 -38 -91 -38z" />
    <glyph glyph-name="ring" unicode="&#x2da;" horiz-adv-x="334" 
d="M127 1288q-52 0 -90 37q-37 38 -37 90q0 53 37 90q38 37 90 37q53 0 90 -37t37 -90q0 -52 -37 -90q-37 -37 -90 -37zM127 1313q42 0 72 30q29 30 29 72t-29 72q-30 29 -72 29t-72 -29q-30 -30 -30 -72t30 -72t72 -30z" />
    <glyph glyph-name="ogonek" unicode="&#x2db;" horiz-adv-x="470" 
d="M163 -173q-67 0 -115 35t-48 108q0 53 28 98q29 47 65 81t65 55l28 20h16l-12 -26q-12 -25 -24 -69q-12 -43 -12 -96q0 -93 81 -92q39 0 75 10q35 11 58 22l22 10v-15l-17 -22q-16 -21 -46 -49q-31 -27 -72 -49q-41 -21 -92 -21z" />
    <glyph glyph-name="tilde" unicode="&#x2dc;" horiz-adv-x="620" 
d="M394 1322q-51 0 -164 27q-114 27 -155 27q-19 0 -43 -5q-23 -5 -23 -40h-9q0 53 14 101t49 78q34 30 95 30q65 0 156 -22q100 -21 151 -21q20 0 44 5q23 7 23 38h8q0 -217 -146 -218z" />
    <glyph glyph-name="hungarumlaut" unicode="&#x2dd;" horiz-adv-x="765" 
d="M28 1224l-28 14l199 303h3l185 -108zM326 1224l-28 14l199 303h2l186 -108z" />
    <glyph glyph-name="endash" unicode="&#x2013;" horiz-adv-x="1151" 
d="M1071 691h-1071v16h1071v-16z" />
    <glyph glyph-name="emdash" unicode="&#x2014;" horiz-adv-x="1235" 
d="M1155 691h-1155v16h1155v-16z" />
    <glyph glyph-name="quoteleft" unicode="&#x2018;" horiz-adv-x="338" 
d="M129 1161q-52 0 -91 37q-38 37 -38 91q0 96 55 166q52 66 127 87l4 -15q-111 -31 -157 -156q42 48 100 48q53 0 91 -38t38 -91q0 -54 -38 -91q-38 -38 -91 -38z" />
    <glyph glyph-name="quoteright" unicode="&#x2019;" horiz-adv-x="338" 
d="M76 1152l-4 15q117 33 161 169q-42 -53 -104 -53q-54 0 -91 38q-38 37 -38 91q0 53 38 91q37 38 91 38q53 0 91 -38t38 -91l-1 -10q0 -94 -53 -163q-53 -67 -128 -87z" />
    <glyph glyph-name="quotesinglbase" unicode="&#x201a;" horiz-adv-x="338" 
d="M76 -148l-4 15q114 33 159 163q-42 -51 -102 -51q-54 0 -91 38q-38 39 -38 91q0 54 38 91q37 38 91 38q53 0 91 -38q38 -37 38 -91q0 -100 -54 -168q-53 -67 -128 -88z" />
    <glyph glyph-name="quotedblleft" unicode="&#x201c;" horiz-adv-x="667" 
d="M129 1160q-52 0 -90 36q-37 37 -39 91v3q4 99 55 164q52 66 127 87l4 -15q-111 -31 -157 -156q42 48 100 48q54 0 91 -38q38 -38 38 -91q0 -54 -38 -91q-37 -38 -91 -38zM459 1160q-54 0 -91 37q-38 39 -38 91q0 96 55 167q52 65 127 86l4 -15q-110 -31 -158 -156
q43 48 101 48q53 0 91 -38t38 -91q0 -54 -38 -91q-38 -38 -91 -38z" />
    <glyph glyph-name="quotedblright" unicode="&#x201d;" horiz-adv-x="668" 
d="M76 1166l-4 16q117 33 161 168q-42 -53 -104 -53q-54 0 -91 38q-38 39 -38 91q0 54 38 91q37 38 91 38t91 -38q38 -37 38 -91v-6q0 -97 -53 -166q-54 -67 -129 -88zM406 1166l-4 16q117 33 161 168q-42 -53 -104 -53q-54 0 -91 38q-38 39 -38 91q0 54 38 91q37 38 91 38
t91 -38q38 -37 38 -91q0 -103 -54 -172q-53 -67 -128 -88z" />
    <glyph glyph-name="quotedblbase" unicode="&#x201e;" horiz-adv-x="668" 
d="M76 -148l-4 15q114 33 159 163q-42 -51 -102 -51q-54 0 -91 38q-38 39 -38 91q0 54 38 91q37 38 91 38q53 0 91 -38q38 -37 38 -91q0 -100 -54 -168q-53 -67 -128 -88zM406 -148l-4 15q114 33 159 163q-39 -49 -102 -51q-54 0 -92 38q-37 39 -37 91q0 54 37 91
q38 38 92 38q53 0 91 -38q38 -37 38 -91q0 -100 -54 -168q-53 -67 -128 -88z" />
    <glyph glyph-name="dagger" unicode="&#x2020;" 
 />
    <glyph glyph-name="daggerdbl" unicode="&#x2021;" 
 />
    <glyph glyph-name="bullet" unicode="&#x2022;" 
 />
    <glyph glyph-name="ellipsis" unicode="&#x2026;" 
 />
    <glyph glyph-name="guilsinglleft" unicode="&#x2039;" horiz-adv-x="556" 
d="M476 270l-476 299v196l476 298v-16l-334 -380l334 -381v-16z" />
    <glyph glyph-name="guilsinglright" unicode="&#x203a;" horiz-adv-x="556" 
d="M0 270v16l335 381l-335 380v16l476 -298v-196z" />
    <glyph glyph-name="fraction" unicode="&#x2044;" horiz-adv-x="1046" 
d="M14 -154l-14 8l952 1658l14 -8z" />
    <glyph glyph-name="fraction" unicode="&#x2215;" horiz-adv-x="1046" 
d="M14 -154l-14 8l952 1658l14 -8z" />
    <glyph glyph-name="franc" unicode="&#x20a3;" 
 />
    <glyph glyph-name="lira" unicode="&#x20a4;" horiz-adv-x="1148" 
d="M803 -16q-61 0 -122 17q-60 16 -119 37q-108 44 -214 51h-14q-99 0 -199 -90v-4h-16v4q0 135 28 222q25 80 55 135q24 44 41 91q16 47 16 114l-1 18h-258v16h257q-14 81 -52 170q-6 12 -11 26h-155v16h149q-55 140 -55 248q0 153 124 249q123 96 318 96q132 0 231 -56
t177 -146l-211 -211l-3 41q-3 41 -14 99q-12 59 -36 118t-64 99q-41 40 -103 40q-60 0 -97 -34q-38 -34 -55 -89q-18 -56 -18 -121q0 -93 14 -159q13 -66 29 -121q8 -27 14 -53h393v-16h-389q17 -58 17 -135q0 -31 -9 -61h342v-16h-347q-43 -100 -131 -204q-37 -46 -72 -96
q93 63 181 63q93 0 215 -43q101 -34 203 -42q84 0 141 37q57 36 71 87l14 -6l-1 -8q-21 -166 -62 -252q-61 -131 -202 -131z" />
    <glyph glyph-name="peseta" unicode="&#x20a7;" 
 />
    <glyph glyph-name="Euro" unicode="&#x20ac;" horiz-adv-x="1476" 
d="M896 -16q-196 0 -332 78q-134 78 -210 211q-75 133 -94 302h-260v16h258q-4 51 -4 103q0 48 3 93h-257v16h259q17 172 92 307t211 215q136 79 334 79q137 0 235 -50q99 -49 164 -126q66 -77 101 -164l-186 -211h-3q-40 242 -105 369q-85 166 -244 166q-139 0 -227 -142
t-88 -376q0 -34 1 -67h385v-16h-385q4 -99 16 -196h369v-16h-367q21 -153 71 -276q50 -124 132 -199q83 -75 207 -75q134 0 239 72t168 198l12 -10q-43 -84 -103 -151q-59 -69 -152 -109q-91 -41 -240 -41z" />
    <glyph glyph-name="afii61352" unicode="&#x2116;" 
 />
    <glyph glyph-name="trademark" unicode="&#x2122;" 
 />
    <glyph glyph-name="partialdiff" unicode="&#x2202;" 
 />
    <glyph glyph-name="Delta" unicode="&#x2206;" 
 />
    <glyph glyph-name="product" unicode="&#x220f;" 
 />
    <glyph glyph-name="summation" unicode="&#x2211;" 
 />
    <glyph glyph-name="minus" unicode="&#x2212;" horiz-adv-x="1072" 
d="M992 691h-992v16h992v-16z" />
    <glyph glyph-name="radical" unicode="&#x221a;" 
 />
    <glyph glyph-name="infinity" unicode="&#x221e;" 
 />
    <glyph glyph-name="integral" unicode="&#x222b;" 
 />
    <glyph glyph-name="approxequal" unicode="&#x2248;" 
 />
    <glyph glyph-name="lessequal" unicode="&#x2264;" horiz-adv-x="1151" 
d="M985 353l-935 389v15l935 389l6 -14l-917 -382l917 -382zM1071 175h-1071v16h1071v-16z" />
    <glyph glyph-name="greaterequal" unicode="&#x2265;" horiz-adv-x="1151" 
d="M86 353l-6 15l917 382l-917 382l6 14l935 -389v-15zM1071 175h-1071v16h1071v-16z" />
    <glyph glyph-name="uniE000" unicode="&#xe000;" horiz-adv-x="1468" 
d="M244 246q-3 -32 -3 -61q0 -27 15 -66q14 -39 56 -71t79 -32v-16h-391v16q56 0 126 69q66 65 118 161zM573 1071v1l-92 226l221 90h16l462 -1130q43 -104 103 -173t105 -69v-16h-565v16q56 0 83 82q11 34 11 71q0 54 -23 117l-58 142h-1l-6 16l-248 609z" />
    <glyph glyph-name="uniE001" unicode="&#xe001;" horiz-adv-x="1365" 
d="M738 1388h81q182 0 282 -86q101 -85 101 -234q0 -112 -63 -183t-166 -101v-7q41 -1 94 -27t102 -73q50 -48 83 -118q33 -71 33 -164q0 -168 -117 -281q-118 -114 -306 -114h-35q177 33 177 291q0 170 -49 290q-61 148 -192 148q-48 0 -104 -22q-57 -22 -109 -48v17
l189 90q99 46 141 97q42 52 42 155q0 131 -51 242t-133 128zM500 0h-500v16q56 0 96 70q39 70 39 172v873q0 102 -39 172q-40 69 -96 69v16h506q-42 -12 -73 -68q-40 -72 -40 -177v-900q0 -105 40 -176q28 -54 67 -67z" />
    <glyph glyph-name="uniE036" unicode="&#xe036;" horiz-adv-x="1314" 
d="M708 762q39 63 39 142q0 72 -58 72v16h423v-16q-58 0 -198 -85q-123 -75 -206 -129zM393 258q0 -102 40 -172t95 -70v-16h-528v16q56 0 96 70q39 70 39 172v872q0 104 -39 173q-40 69 -96 69v16l377 32h16v-1162zM642 691l40 -69q155 -274 259 -419q153 -214 247 -214
q23 0 38 11l8 -13q-132 -74 -236 -74q-103 0 -185 67q-81 67 -155 181q-75 114 -154 257q-20 36 -41 72q-7 13 -15 26z" />
    </font>
</defs>
</svg>
