<?xml version="1.0" encoding="utf-8"?>
<!-- Generator: Adobe Illustrator 24.0.3, SVG Export Plug-In . SVG Version: 6.00 Build 0)  -->
<svg version="1.1" id="Livello_1" xmlns="http://www.w3.org/2000/svg" xmlns:xlink="http://www.w3.org/1999/xlink" x="0px" y="0px"
	 viewBox="0 0 375.53 289.11" style="enable-background:new 0 0 375.53 289.11;" xml:space="preserve">
<style type="text/css">
	.st0{fill:#010202;}
	.st1{fill:#FFFFFF;}
</style>
<g>
	<path class="st1" d="M128.01,188.18L59.41,36.89c-8.86-19.76-0.99-31.8,23.63-32.42V0.15H0v4.32c13.79,0.62,21.34,9.88,27.24,21.3
		l88.3,190.2h8.21l79.43-187.11c5.92-12.02,13.43-22.55,29.35-24.11c0,0,16.03-1.51,27.67,0.11c26.86,1.78,53.37,23.23,53.37,60.9
		c0,21-18.38,40.45-39.39,41.38c-20.27,0.94-31.01-1-41.66-4.29v13.56h15.4c18.71,0,21.01,10.8,46.94,55.27
		c13.46,23.16,29.54,44.46,44.97,44.46h23.63h11.16l0.66-4.32h-8.53c-21.34,0-37.09-25.94-53.5-55.27
		c-17.4-31.18-23.96-40.76-34.14-42.61c40.7-7.1,58.09-30.25,58.09-62.67C337.2,23.16,307.33,0,264.99,0L164.11,0.15v4.32
		c24.62,0.62,33.81,9.26,23.96,32.42"/>
	<g>
		<g>
			<path class="st1" d="M30.24,266.19v0.45c-1.72,0.06-2.48,1.21-3.08,2.51l-7.7,19.27h-0.79l-8.55-19.59
				c-0.57-1.18-1.3-2.13-2.64-2.19v-0.45h8.05v0.45c-2.39,0.06-3.15,1.3-2.29,3.34l6.65,15.58l5.88-15.58h-0.06
				c0.95-2.38,0.06-3.28-2.32-3.34v-0.45H30.24z"/>
			<path class="st1" d="M19.62,288.67H18.5l-8.62-19.74c-0.67-1.38-1.4-2-2.42-2.04l-0.24-0.01v-0.93h8.55v0.94l-0.24,0.01
				c-1.09,0.03-1.84,0.32-2.17,0.83c-0.32,0.49-0.28,1.24,0.1,2.16l6.4,15.01l5.54-14.66h-0.07l0.14-0.34
				c0.42-1.04,0.47-1.77,0.17-2.24c-0.31-0.48-1.05-0.73-2.26-0.76l-0.24-0.01v-0.94h7.37v0.94l-0.24,0.01
				c-1.5,0.06-2.23,0.99-2.87,2.37L19.62,288.67z M18.82,288.17h0.46l7.63-19.11c0.56-1.22,1.29-2.35,2.78-2.61h-5.56
				c0.95,0.12,1.57,0.42,1.9,0.93c0.36,0.55,0.37,1.32,0.01,2.36h0.06l-6.23,16.5l-6.89-16.16c-0.46-1.09-0.48-1.97-0.06-2.62
				c0.35-0.54,0.99-0.88,1.89-1.01h-6.9c1.27,0.26,1.95,1.34,2.41,2.28L18.82,288.17z"/>
		</g>
		<g>
			<path class="st1" d="M40.6,268.89v16.85c0,1.53,0.95,2.19,2.7,2.26v0.45h-7.85V288c1.75-0.06,2.77-0.73,2.77-2.26v-16.85
				c0-1.53-1.02-2.19-2.77-2.26v-0.45h7.85v0.45C41.55,266.7,40.6,267.36,40.6,268.89z"/>
			<path class="st1" d="M43.55,288.7H35.2v-0.94l0.24-0.01c1.72-0.06,2.53-0.7,2.53-2.01v-16.85c0-1.31-0.8-1.95-2.53-2.01
				l-0.24-0.01v-0.94h8.35v0.94l-0.24,0.01c-1.7,0.06-2.46,0.68-2.46,2.01v16.85c0,1.33,0.76,1.95,2.46,2.01l0.24,0.01V288.7z
				 M36.1,288.2h6.56c-1.54-0.22-2.31-1.04-2.31-2.45v-16.85c0-1.41,0.78-2.23,2.31-2.45H36.1c1.57,0.22,2.37,1.04,2.37,2.45v16.85
				C38.47,287.16,37.67,287.98,36.1,288.2z"/>
		</g>
		<g>
			<path class="st1" d="M68.81,283.3l-0.73,5.15H50.55v-0.48l1.69-0.32l1.05-0.64h0.03v-18.13c0-1.53-1.02-2.19-2.77-2.26v-0.45
				h7.85v0.45c-1.75,0.06-2.7,0.73-2.7,2.26v18.76l7.16-0.35c2.04-0.1,4.74-0.38,5.34-4.01H68.81z"/>
			<path class="st1" d="M68.29,288.7H50.3v-0.93l1.84-0.35l0.92-0.56v-17.97c0-1.31-0.8-1.95-2.53-2.01l-0.24-0.01v-0.94h8.35v0.94
				l-0.24,0.01c-1.7,0.06-2.46,0.68-2.46,2.01v18.5l6.89-0.34c2.28-0.11,4.56-0.49,5.11-3.8l0.03-0.21h1.1L68.29,288.7z M50.8,288.2
				h17.06l0.66-4.65h-0.11c-0.74,3.78-3.85,3.93-5.54,4.01l-7.42,0.36v-19.03c0-1.41,0.78-2.23,2.31-2.45H51.2
				c1.57,0.22,2.37,1.04,2.37,2.45v18.38h-0.21l-1.07,0.63L50.8,288.2z"/>
		</g>
		<g>
			<path class="st1" d="M93.16,283.3l-0.73,5.15H74.91v-0.48l1.69-0.32l1.05-0.64h0.03v-18.13c0-1.53-1.02-2.19-2.77-2.26v-0.45
				h7.85v0.45c-1.75,0.06-2.7,0.73-2.7,2.26v18.76l7.16-0.35c2.04-0.1,4.74-0.38,5.34-4.01H93.16z"/>
			<path class="st1" d="M92.65,288.7H74.66v-0.93l1.84-0.35l0.92-0.56v-17.97c0-1.31-0.8-1.95-2.53-2.01l-0.24-0.01v-0.94h8.35v0.94
				l-0.24,0.01c-1.7,0.06-2.46,0.68-2.46,2.01v18.5l6.89-0.34c2.28-0.11,4.56-0.49,5.11-3.8l0.03-0.21h1.1L92.65,288.7z
				 M75.16,288.2h17.06l0.66-4.65h-0.11c-0.74,3.78-3.85,3.93-5.54,4.01l-7.42,0.36v-19.03c0-1.41,0.78-2.23,2.31-2.45h-6.56
				c1.57,0.22,2.37,1.04,2.37,2.45v18.38h-0.21l-1.07,0.63L75.16,288.2z"/>
		</g>
		<g>
			<path class="st1" d="M121.75,288v0.45h-8.62V288c2.39-0.06,3.28-0.99,2.42-3.02l-2.32-5.44h-8.87l-2.04,5.69
				c-0.6,1.88,0.29,2.7,2.58,2.77v0.45h-7.41V288c2.07-0.06,2.93-1.4,3.59-3.02l6.3-17.17c0.35-1.24-0.83-1.08-3.15-1.18v-0.45h9.67
				v0.45c-2.23,0.1-3.5-0.03-3.18,1.08l7.66,17.9C119.05,286.95,119.97,287.94,121.75,288z M112.81,278.59l-4.42-10.27l-3.69,10.27
				H112.81z"/>
			<path class="st1" d="M122,288.7h-9.12v-0.94l0.24-0.01c1.22-0.03,2-0.3,2.32-0.79c0.27-0.42,0.23-1.05-0.12-1.89l-2.26-5.29
				h-8.53l-1.98,5.53c-0.24,0.75-0.23,1.3,0.04,1.68c0.34,0.47,1.09,0.72,2.31,0.75l0.24,0.01v0.94h-7.91v-0.94l0.24-0.01
				c1.84-0.06,2.68-1.19,3.37-2.87l6.29-17.16c0.1-0.35,0.02-0.46-0.01-0.5c-0.19-0.26-1.01-0.29-2.04-0.32
				c-0.27-0.01-0.56-0.02-0.87-0.03l-0.24-0.01v-0.94h10.17v0.94l-0.24,0.01c-0.29,0.01-0.56,0.02-0.82,0.03
				c-1.03,0.03-1.93,0.06-2.12,0.33c-0.02,0.03-0.09,0.12-0.01,0.4l7.65,17.87c0.76,1.51,1.7,2.18,3.15,2.23l0.24,0.01V288.7z
				 M113.9,288.2h7.27c-1.7-0.27-2.5-1.44-3.01-2.47l-7.67-17.92c-0.11-0.38-0.08-0.65,0.07-0.87c0.28-0.38,0.86-0.47,1.8-0.51
				h-6.49c0.85,0.04,1.4,0.13,1.67,0.49c0.17,0.23,0.2,0.54,0.08,0.95l-6.3,17.19c-0.6,1.47-1.42,2.84-3.23,3.13h6.05
				c-0.96-0.12-1.6-0.42-1.94-0.91c-0.37-0.52-0.4-1.21-0.11-2.13l2.1-5.87h9.21l2.39,5.59c0.43,1.01,0.45,1.78,0.08,2.35
				C115.53,287.76,114.88,288.08,113.9,288.2z M113.19,278.84h-8.84l4.02-11.2L113.19,278.84z M105.06,278.34h7.37l-4.02-9.34
				L105.06,278.34z"/>
		</g>
		<g>
			<path class="st1" d="M159.65,288l-0.06,0.45h-1.08h-2.29c-1.49,0-3.05-2.19-4.36-4.58c-2.51-4.58-2.73-5.69-4.55-5.69h-2.48v7.57
				c0,1.53,0.95,2.19,2.7,2.26v0.45h-7.85V288c1.75-0.06,2.77-0.73,2.77-2.26v-17.81c0-1.37-0.73-1.21-3.12-1.3v-0.45h9.64
				c4.1,0,7,2.39,7,5.28c0,3.34-1.69,5.72-5.63,6.46c0.99,0.19,1.62,1.18,3.31,4.39c1.59,3.02,3.12,5.69,5.18,5.69H159.65z
				 M149.86,277.22c2.04-0.1,3.82-2.1,3.82-4.26c0-3.88-2.54-6.11-5.15-6.17c-2.67-0.06-3.69-0.03-3.69,1.53v8.11
				C146.3,276.97,147.28,277.35,149.86,277.22z"/>
			<path class="st1" d="M159.81,288.7h-3.59c-1.35,0-2.84-1.54-4.58-4.71c-0.43-0.78-0.79-1.45-1.1-2.04
				c-1.58-2.96-1.91-3.52-3.23-3.52h-2.23v7.32c0,1.33,0.76,1.95,2.46,2.01l0.24,0.01v0.94h-8.35v-0.94l0.24-0.01
				c1.72-0.06,2.53-0.7,2.53-2.01v-17.81c0-0.93-0.24-0.97-2.1-1.03c-0.24-0.01-0.49-0.02-0.77-0.03l-0.24-0.01v-0.94h9.89
				c4.13,0,7.25,2.38,7.25,5.53c0,3.43-1.75,5.67-5.08,6.54c0.76,0.54,1.46,1.77,2.73,4.19c1.6,3.04,3.08,5.56,4.96,5.56h1.12
				L159.81,288.7z M144.58,277.93h2.73c1.66,0,2.12,0.88,3.67,3.78c0.31,0.59,0.67,1.26,1.1,2.04c1.61,2.95,3.01,4.45,4.14,4.45
				h2.06c-1.88-0.38-3.27-2.75-4.86-5.77c-1.65-3.15-2.27-4.09-3.13-4.26l-1.3-0.25l1.3-0.24c3.6-0.67,5.42-2.76,5.42-6.21
				c0-2.87-2.9-5.03-6.75-5.03h-8.09c1.24,0.07,1.82,0.28,1.82,1.5v17.81c0,1.41-0.79,2.23-2.37,2.45h6.56
				c-1.54-0.22-2.31-1.04-2.31-2.45V277.93z M148.93,277.5c-1.92,0-2.87-0.35-4.11-0.81l-0.23-0.09v-8.28
				c0-0.58,0.13-0.98,0.42-1.27c0.57-0.55,1.65-0.56,3.52-0.51c2.68,0.07,5.4,2.29,5.4,6.42c0,2.3-1.89,4.41-4.05,4.51
				C149.53,277.49,149.22,277.5,148.93,277.5z M145.08,276.25c1.38,0.51,2.33,0.84,4.76,0.72h0c1.91-0.09,3.58-1.96,3.58-4.01
				c0-3.81-2.47-5.86-4.91-5.92c-1.68-0.04-2.74-0.04-3.16,0.37c-0.19,0.18-0.27,0.47-0.27,0.91V276.25z"/>
		</g>
		<g>
			<path class="st1" d="M175.55,288.86c-2.89,0-5.28-0.92-7.06-2.48c-2.51-2.13-3.88-5.44-3.88-9.1c0-3.37,1.02-6.23,2.86-8.27
				c1.84-2.04,4.55-3.24,7.89-3.24c2.77,0,5.12,0.83,6.93,2.29c2.54,2.07,4.01,5.31,4.01,9.22c0,2.89-0.76,5.41-2.13,7.35
				C182.29,287.27,179.27,288.86,175.55,288.86z M173.55,266.73c-2.04,0.32-3.66,1.49-4.77,3.21c-1.43,2.26-2.04,5.44-1.59,8.78
				c0.35,2.45,1.43,4.67,2.99,6.3c1.84,1.91,4.32,2.99,7,2.73c2.45-0.22,4.26-1.78,5.41-4.01c1.18-2.32,1.59-5.34,1.11-8.3
				c-0.38-2.51-1.65-4.8-3.37-6.39C178.48,267.3,176.06,266.38,173.55,266.73z"/>
			<path class="st1" d="M175.55,289.11c-2.83,0-5.32-0.88-7.22-2.54c-2.52-2.14-3.96-5.52-3.96-9.28c0-3.41,1.01-6.32,2.93-8.44
				c1.97-2.18,4.76-3.33,8.07-3.33c2.74,0,5.19,0.81,7.09,2.35c2.64,2.15,4.1,5.49,4.1,9.42c0,2.88-0.75,5.47-2.18,7.49
				C182.39,287.57,179.25,289.11,175.55,289.11z M175.36,266.02c-3.16,0-5.83,1.09-7.7,3.16c-1.83,2.02-2.8,4.82-2.8,8.1
				c0,3.62,1.38,6.86,3.79,8.9c1.81,1.58,4.2,2.42,6.9,2.42c3.54,0,6.52-1.46,8.41-4.12c1.36-1.93,2.08-4.42,2.08-7.2
				c0-3.77-1.39-6.98-3.91-9.03C180.33,266.8,177.98,266.02,175.36,266.02z M176.39,288.04c-2.36,0-4.6-0.99-6.4-2.85
				c-1.62-1.69-2.7-3.97-3.06-6.44c-0.45-3.35,0.15-6.61,1.63-8.95c1.2-1.86,2.91-3.01,4.94-3.33l0,0c2.51-0.35,4.99,0.5,6.98,2.39
				c1.81,1.68,3.07,4.06,3.45,6.54c0.48,2.99,0.07,6.07-1.14,8.45c-1.28,2.49-3.22,3.93-5.61,4.14
				C176.93,288.02,176.66,288.04,176.39,288.04z M173.58,266.98c-1.88,0.3-3.47,1.37-4.6,3.1c-1.42,2.24-1.98,5.37-1.55,8.61
				c0.34,2.36,1.38,4.55,2.92,6.16c1.89,1.95,4.3,2.9,6.79,2.66c2.79-0.25,4.37-2.25,5.21-3.87c1.16-2.29,1.55-5.25,1.09-8.15
				c-0.36-2.37-1.56-4.64-3.29-6.25C178.27,267.45,175.94,266.64,173.58,266.98z"/>
		</g>
		<g>
			<path class="st1" d="M215.68,266.19v0.45c-1.75,0.06-2.7,0.73-2.7,2.26v19.56h-1.24l-14.15-18.89v16.19
				c0,1.53,0.95,2.19,2.7,2.26v0.45h-6.9V288c1.43-0.06,2.77-0.73,2.77-2.26v-18.13l-0.1-0.1c-0.73-0.83-1.65-0.79-2.64-0.86v-0.48
				h1.65c1.02,0,1.72-0.1,2.8,0.41c1.3,0.57,8.62,10.78,13.67,17.65v-15.36c0-1.53-1.34-2.19-2.77-2.26v-0.45H215.68z"/>
			<path class="st1" d="M213.23,288.7h-1.61l-13.78-18.39v15.44c0,1.33,0.76,1.95,2.46,2.01l0.24,0.01v0.94h-7.4v-0.93l0.24-0.01
				c0.59-0.03,2.53-0.25,2.53-2.01l-0.02-18.04c-0.6-0.68-1.34-0.72-2.2-0.77l-0.52-0.03v-0.96l2.31,0c0.81-0.01,1.51-0.02,2.5,0.44
				c1.08,0.47,5.38,6.27,11.34,14.42c0.68,0.93,1.34,1.83,1.98,2.7v-14.6c0-1.76-1.93-1.98-2.53-2.01l-0.24-0.01v-0.93h7.4v0.94
				l-0.24,0.01c-1.7,0.06-2.46,0.68-2.46,2.01V288.7z M211.86,288.2h0.86v-19.31c0-1.41,0.78-2.23,2.31-2.45h-5.7
				c1.27,0.2,2.46,0.92,2.46,2.45v16.12l-0.45-0.61c-0.77-1.04-1.59-2.16-2.43-3.31c-4.5-6.15-10.1-13.8-11.14-14.26
				c-0.88-0.42-1.47-0.41-2.28-0.4l-1.67,0c0.85,0.05,1.72,0.13,2.42,0.92l0.16,0.16v18.23c0,1.53-1.19,2.25-2.46,2.45h5.7
				c-1.54-0.22-2.31-1.04-2.31-2.45v-16.94L211.86,288.2z"/>
		</g>
		<g>
			<path class="st1" d="M241.76,275.86c0,6.39-3.08,12.75-11.93,12.59h-7.12V288c2.39-0.1,3.12,0.06,3.12-1.3v-18.76
				c0-1.37-0.73-1.21-3.12-1.3v-0.45l8.68-0.03C237.69,266.16,241.76,270,241.76,275.86z M239.24,277.16c0-6.39-3.12-9.67-8.4-10.11
				l-2.64-0.1v19.65c0.92,0.16,2.42,0.41,3.24,0.45C238.1,287.27,239.24,282.28,239.24,277.16z"/>
			<path class="st1" d="M230.16,288.7c-0.11,0-0.22,0-0.33,0h-7.37v-0.94l0.24-0.01c0.28-0.01,0.54-0.02,0.77-0.03
				c1.87-0.06,2.11-0.1,2.11-1.03v-18.76c0-0.93-0.24-0.97-2.1-1.03c-0.24-0.01-0.49-0.02-0.77-0.03l-0.24-0.01v-0.93l8.93-0.03
				c6.45,0,10.62,3.91,10.62,9.95c0,4.1-1.25,7.6-3.53,9.83C236.44,287.69,233.64,288.7,230.16,288.7z M224.25,288.2h5.58
				c3.5,0.07,6.29-0.9,8.3-2.87c2.18-2.14,3.38-5.51,3.38-9.47c0-5.74-3.97-9.45-10.12-9.45l-7.24,0.03
				c1.31,0.06,1.92,0.25,1.92,1.5v18.76C226.07,287.92,225.5,288.13,224.25,288.2z M231.87,287.31c-0.14,0-0.28,0-0.42-0.01
				c-0.87-0.03-2.43-0.3-3.28-0.45l-0.21-0.04v-20.12l2.9,0.1c5.65,0.48,8.64,4.06,8.64,10.36c0,2.57-0.25,6.23-2.44,8.35
				C235.82,286.7,234.07,287.31,231.87,287.31z M228.46,286.39c0.86,0.15,2.24,0.38,3,0.41c2.31,0.08,4.01-0.46,5.24-1.65
				c1.56-1.51,2.29-4.05,2.29-7.99c0-6-2.82-9.41-8.17-9.86l-2.37-0.09V286.39z"/>
		</g>
		<g>
			<path class="st1" d="M253.9,268.89v16.85c0,1.53,0.95,2.19,2.7,2.26v0.45h-7.86V288c1.75-0.06,2.77-0.73,2.77-2.26v-16.85
				c0-1.53-1.02-2.19-2.77-2.26v-0.45h7.86v0.45C254.86,266.7,253.9,267.36,253.9,268.89z"/>
			<path class="st1" d="M256.85,288.7h-8.35v-0.94l0.24-0.01c1.72-0.06,2.53-0.7,2.53-2.01v-16.85c0-1.31-0.8-1.95-2.53-2.01
				l-0.24-0.01v-0.94h8.35v0.94l-0.24,0.01c-1.7,0.06-2.46,0.68-2.46,2.01v16.85c0,1.33,0.76,1.95,2.46,2.01l0.24,0.01V288.7z
				 M249.4,288.2h6.56c-1.54-0.22-2.31-1.04-2.31-2.45v-16.85c0-1.41,0.78-2.23,2.31-2.45h-6.56c1.57,0.22,2.37,1.04,2.37,2.45
				v16.85C251.77,287.16,250.97,287.98,249.4,288.2z"/>
		</g>
		<g>
			<path class="st1" d="M286.15,266.19v0.45c-1.75,0.06-2.7,0.73-2.7,2.26v19.56h-1.24l-14.15-18.89v16.19
				c0,1.53,0.95,2.19,2.7,2.26v0.45h-6.9V288c1.43-0.06,2.77-0.73,2.77-2.26v-18.13l-0.1-0.1c-0.73-0.83-1.65-0.79-2.64-0.86v-0.48
				h1.65c1.02,0,1.72-0.1,2.8,0.41c1.3,0.57,8.62,10.78,13.67,17.65v-15.36c0-1.53-1.34-2.19-2.77-2.26v-0.45H286.15z"/>
			<path class="st1" d="M283.69,288.7h-1.62l-0.08-0.1l-13.7-18.29v15.44c0,1.33,0.76,1.95,2.46,2.01l0.24,0.01v0.94h-7.4v-0.93
				l0.24-0.01c0.59-0.03,2.53-0.25,2.53-2.01l-0.02-18.04c-0.6-0.68-1.34-0.72-2.2-0.77l-0.52-0.03v-0.96l2.31,0
				c0.81-0.01,1.51-0.02,2.49,0.44c1.08,0.47,5.38,6.27,11.34,14.42c0.68,0.93,1.34,1.83,1.98,2.7v-14.6c0-1.76-1.93-1.98-2.53-2.01
				l-0.24-0.01v-0.93h7.4v0.94l-0.24,0.01c-1.7,0.06-2.46,0.68-2.46,2.01V288.7z M282.33,288.2h0.87v-19.31
				c0-1.41,0.78-2.23,2.31-2.45h-5.7c1.27,0.2,2.46,0.92,2.46,2.45v16.12l-0.45-0.61c-0.77-1.04-1.59-2.16-2.43-3.31
				c-4.5-6.15-10.1-13.8-11.15-14.26c-0.88-0.42-1.47-0.41-2.28-0.4l-1.67,0c0.85,0.05,1.72,0.13,2.42,0.92l0.16,0.16v18.23
				c0,1.53-1.19,2.25-2.46,2.45h5.7c-1.54-0.22-2.31-1.04-2.31-2.45v-16.94L282.33,288.2z"/>
		</g>
		<g>
			<path class="st1" d="M311.71,283.3l-0.73,5.15H293.2V288c2.39-0.1,3.12,0.06,3.12-1.3v-18.76c0-1.37-0.73-1.21-3.12-1.3v-0.45
				h17.59v0.22l0.7,4.93h-0.6c-0.51-3.12-2.32-3.75-4.2-3.94l-7.95-0.41v9.57l7.63-0.25c1.24-0.13,1.81-1.08,1.88-2.67h0.45v6.71
				h-0.45c-0.06-1.59-0.64-2.61-1.91-2.73l-7.6-0.25v10.3l7.95-0.41c1.84-0.19,3.91-0.86,4.42-3.94H311.71z"/>
			<path class="st1" d="M311.2,288.7h-18.24v-0.94l0.24-0.01c0.28-0.01,0.54-0.02,0.77-0.03c1.87-0.06,2.11-0.1,2.11-1.03v-18.76
				c0-0.93-0.24-0.97-2.1-1.03c-0.24-0.01-0.49-0.02-0.77-0.03l-0.24-0.01v-0.94h18.09v0.47l0.74,5.18h-1.11l-0.03-0.21
				c-0.49-2.98-2.2-3.55-3.98-3.73l-7.68-0.4v9.05l7.37-0.25c1.03-0.11,1.57-0.9,1.63-2.43l0.01-0.24h0.94v7.21h-0.94l-0.01-0.24
				c-0.06-1.57-0.61-2.39-1.68-2.5l-7.33-0.24v9.78l7.69-0.4c1.68-0.17,3.7-0.76,4.19-3.73l0.04-0.21h1.1L311.2,288.7z
				 M294.75,288.2h16.01l0.66-4.65h-0.11c-0.61,3.17-2.91,3.77-4.6,3.94l-8.23,0.43v-10.83l7.86,0.26c0.85,0.08,1.84,0.57,2.09,2.36
				v-5.45c-0.2,1.4-0.88,2.17-2.05,2.29l-7.91,0.26v-10.09l8.21,0.43c1.85,0.19,3.8,0.81,4.39,3.94h0.11l-0.66-4.65h-15.79
				c1.24,0.07,1.82,0.28,1.82,1.5v18.76C296.57,287.92,296,288.13,294.75,288.2z"/>
		</g>
		<g>
			<path class="st1" d="M336.9,283.3l-0.73,5.15h-17.52v-0.48l1.69-0.32l1.05-0.64h0.03v-18.13c0-1.53-1.02-2.19-2.77-2.26v-0.45
				h7.86v0.45c-1.75,0.06-2.7,0.73-2.7,2.26v18.76l7.16-0.35c2.04-0.1,4.74-0.38,5.34-4.01H336.9z"/>
			<path class="st1" d="M336.38,288.7h-17.99v-0.93l1.84-0.35l0.92-0.56v-17.97c0-1.31-0.8-1.95-2.53-2.01l-0.24-0.01v-0.94h8.35
				v0.94l-0.24,0.01c-1.7,0.06-2.46,0.68-2.46,2.01v18.5l6.89-0.34c2.28-0.11,4.56-0.49,5.11-3.8l0.04-0.21h1.1L336.38,288.7z
				 M318.89,288.2h17.06l0.66-4.65h-0.11c-0.74,3.78-3.85,3.93-5.54,4.01l-7.42,0.36v-19.03c0-1.41,0.78-2.23,2.31-2.45h-6.56
				c1.57,0.22,2.37,1.04,2.37,2.45v18.38h-0.21l-1.07,0.63L318.89,288.2z"/>
		</g>
		<g>
			<path class="st1" d="M361.25,283.3l-0.73,5.15H343v-0.48l1.69-0.32l1.05-0.64h0.03v-18.13c0-1.53-1.02-2.19-2.77-2.26v-0.45h7.86
				v0.45c-1.75,0.06-2.7,0.73-2.7,2.26v18.76l7.16-0.35c2.04-0.1,4.74-0.38,5.34-4.01H361.25z"/>
			<path class="st1" d="M360.74,288.7h-17.99v-0.93l1.84-0.35l0.92-0.56v-17.97c0-1.31-0.8-1.95-2.53-2.01l-0.24-0.01v-0.94h8.35
				v0.94l-0.24,0.01c-1.7,0.06-2.46,0.68-2.46,2.01v18.5l6.89-0.34c2.28-0.11,4.56-0.49,5.11-3.8l0.04-0.21h1.1L360.74,288.7z
				 M343.25,288.2h17.06l0.66-4.65h-0.11c-0.74,3.78-3.85,3.93-5.54,4.01l-7.42,0.36v-19.03c0-1.41,0.78-2.23,2.31-2.45h-6.56
				c1.57,0.22,2.37,1.04,2.37,2.45v18.38h-0.21l-1.07,0.63L343.25,288.2z"/>
		</g>
		<g>
			<path class="st1" d="M372.57,268.89v16.85c0,1.53,0.95,2.19,2.7,2.26v0.45h-7.86V288c1.75-0.06,2.77-0.73,2.77-2.26v-16.85
				c0-1.53-1.02-2.19-2.77-2.26v-0.45h7.86v0.45C373.53,266.7,372.57,267.36,372.57,268.89z"/>
			<path class="st1" d="M375.53,288.7h-8.36v-0.94l0.24-0.01c1.72-0.06,2.53-0.7,2.53-2.01v-16.85c0-1.31-0.8-1.95-2.53-2.01
				l-0.24-0.01v-0.94h8.36v0.94l-0.24,0.01c-1.7,0.06-2.46,0.68-2.46,2.01v16.85c0,1.33,0.76,1.95,2.46,2.01l0.24,0.01V288.7z
				 M368.07,288.2h6.56c-1.54-0.22-2.31-1.04-2.31-2.45v-16.85c0-1.41,0.78-2.23,2.31-2.45h-6.56c1.57,0.22,2.37,1.04,2.37,2.45
				v16.85C370.44,287.16,369.64,287.98,368.07,288.2z"/>
		</g>
	</g>
</g>
</svg>
